<?xml version="1.0" encoding="UTF-8" standalone="no"?>
<!DOCTYPE svg PUBLIC "-//W3C//DTD SVG 1.1//EN"
 "http://www.w3.org/Graphics/SVG/1.1/DTD/svg11.dtd">
<!-- Generated by graphviz version 2.40.1 (20161225.0304)
 -->
<!-- Title: AutomateSolutionDocGeneration Pages: 1 -->
<svg width="427pt" height="717pt"
 viewBox="0.00 0.00 427.39 716.80" xmlns="http://www.w3.org/2000/svg" xmlns:xlink="http://www.w3.org/1999/xlink">
<g id="graph0" class="graph" transform="scale(0.6 0.6) rotate(0) translate(4 712.8)">
<title>AutomateSolutionDocGeneration</title>
<polygon fill="#ffffff" stroke="transparent" points="-4,4 -4,-712.8 423.3888,-712.8 423.3888,4 -4,4"/>
<!-- trigger_file_created -->
<g id="node1" class="node">
<title>trigger_file_created</title>
<ellipse fill="#add8e6" stroke="#000000" cx="209.6944" cy="-690.8" rx="79.8333" ry="18"/>
<text text-anchor="middle" x="209.6944" y="-686.6" font-family="Times,serif" font-size="14.00" fill="#000000">When file created</text>
</g>
<!-- compose_file_name -->
<g id="node2" class="node">
<title>compose_file_name</title>
<path fill="#add8e6" stroke="#000000" d="M247.1119,-635.8C247.1119,-635.8 172.2769,-635.8 172.2769,-635.8 166.2769,-635.8 160.2769,-629.8 160.2769,-623.8 160.2769,-623.8 160.2769,-611.8 160.2769,-611.8 160.2769,-605.8 166.2769,-599.8 172.2769,-599.8 172.2769,-599.8 247.1119,-599.8 247.1119,-599.8 253.1119,-599.8 259.1119,-605.8 259.1119,-611.8 259.1119,-611.8 259.1119,-623.8 259.1119,-623.8 259.1119,-629.8 253.1119,-635.8 247.1119,-635.8"/>
<text text-anchor="middle" x="209.6944" y="-613.6" font-family="Times,serif" font-size="14.00" fill="#000000">Get File Name</text>
</g>
<!-- trigger_file_created&#45;&gt;compose_file_name -->
<g id="edge1" class="edge">
<title>trigger_file_created&#45;&gt;compose_file_name</title>
<path fill="none" stroke="#000000" d="M209.6944,-672.7551C209.6944,-664.6828 209.6944,-654.9764 209.6944,-645.9817"/>
<polygon fill="#000000" stroke="#000000" points="213.1945,-645.8903 209.6944,-635.8904 206.1945,-645.8904 213.1945,-645.8903"/>
</g>
<!-- compose_doc_folder_path -->
<g id="node3" class="node">
<title>compose_doc_folder_path</title>
<path fill="#add8e6" stroke="#000000" d="M279.8383,-562.8C279.8383,-562.8 139.5505,-562.8 139.5505,-562.8 133.5505,-562.8 127.5505,-556.8 127.5505,-550.8 127.5505,-550.8 127.5505,-538.8 127.5505,-538.8 127.5505,-532.8 133.5505,-526.8 139.5505,-526.8 139.5505,-526.8 279.8383,-526.8 279.8383,-526.8 285.8383,-526.8 291.8383,-532.8 291.8383,-538.8 291.8383,-538.8 291.8383,-550.8 291.8383,-550.8 291.8383,-556.8 285.8383,-562.8 279.8383,-562.8"/>
<text text-anchor="middle" x="209.6944" y="-540.6" font-family="Times,serif" font-size="14.00" fill="#000000">Compose Doc Folder Path</text>
</g>
<!-- compose_file_name&#45;&gt;compose_doc_folder_path -->
<g id="edge2" class="edge">
<title>compose_file_name&#45;&gt;compose_doc_folder_path</title>
<path fill="none" stroke="#000000" d="M209.6944,-599.7551C209.6944,-591.6828 209.6944,-581.9764 209.6944,-572.9817"/>
<polygon fill="#000000" stroke="#000000" points="213.1945,-572.8903 209.6944,-562.8904 206.1945,-572.8904 213.1945,-572.8903"/>
</g>
<!-- compose_file_id -->
<g id="node4" class="node">
<title>compose_file_id</title>
<path fill="#add8e6" stroke="#000000" d="M237.4522,-489.8C237.4522,-489.8 181.9366,-489.8 181.9366,-489.8 175.9366,-489.8 169.9366,-483.8 169.9366,-477.8 169.9366,-477.8 169.9366,-465.8 169.9366,-465.8 169.9366,-459.8 175.9366,-453.8 181.9366,-453.8 181.9366,-453.8 237.4522,-453.8 237.4522,-453.8 243.4522,-453.8 249.4522,-459.8 249.4522,-465.8 249.4522,-465.8 249.4522,-477.8 249.4522,-477.8 249.4522,-483.8 243.4522,-489.8 237.4522,-489.8"/>
<text text-anchor="middle" x="209.6944" y="-467.6" font-family="Times,serif" font-size="14.00" fill="#000000">Get File ID</text>
</g>
<!-- compose_doc_folder_path&#45;&gt;compose_file_id -->
<g id="edge3" class="edge">
<title>compose_doc_folder_path&#45;&gt;compose_file_id</title>
<path fill="none" stroke="#000000" d="M209.6944,-526.7551C209.6944,-518.6828 209.6944,-508.9764 209.6944,-499.9817"/>
<polygon fill="#000000" stroke="#000000" points="213.1945,-499.8903 209.6944,-489.8904 206.1945,-499.8904 213.1945,-499.8903"/>
</g>
<!-- sp_create_folder -->
<g id="node5" class="node">
<title>sp_create_folder</title>
<path fill="#add8e6" stroke="#000000" d="M257.5963,-416.8C257.5963,-416.8 161.7925,-416.8 161.7925,-416.8 155.7925,-416.8 149.7925,-410.8 149.7925,-404.8 149.7925,-404.8 149.7925,-392.8 149.7925,-392.8 149.7925,-386.8 155.7925,-380.8 161.7925,-380.8 161.7925,-380.8 257.5963,-380.8 257.5963,-380.8 263.5963,-380.8 269.5963,-386.8 269.5963,-392.8 269.5963,-392.8 269.5963,-404.8 269.5963,-404.8 269.5963,-410.8 263.5963,-416.8 257.5963,-416.8"/>
<text text-anchor="middle" x="209.6944" y="-394.6" font-family="Times,serif" font-size="14.00" fill="#000000">Create Doc Folder</text>
</g>
<!-- compose_file_id&#45;&gt;sp_create_folder -->
<g id="edge4" class="edge">
<title>compose_file_id&#45;&gt;sp_create_folder</title>
<path fill="none" stroke="#000000" d="M209.6944,-453.7551C209.6944,-445.6828 209.6944,-435.9764 209.6944,-426.9817"/>
<polygon fill="#000000" stroke="#000000" points="213.1945,-426.8903 209.6944,-416.8904 206.1945,-426.8904 213.1945,-426.8903"/>
</g>
<!-- compose_doc_dest_path -->
<g id="node6" class="node">
<title>compose_doc_dest_path</title>
<path fill="#add8e6" stroke="#000000" d="M274.4464,-343.8C274.4464,-343.8 144.9424,-343.8 144.9424,-343.8 138.9424,-343.8 132.9424,-337.8 132.9424,-331.8 132.9424,-331.8 132.9424,-319.8 132.9424,-319.8 132.9424,-313.8 138.9424,-307.8 144.9424,-307.8 144.9424,-307.8 274.4464,-307.8 274.4464,-307.8 280.4464,-307.8 286.4464,-313.8 286.4464,-319.8 286.4464,-319.8 286.4464,-331.8 286.4464,-331.8 286.4464,-337.8 280.4464,-343.8 274.4464,-343.8"/>
<text text-anchor="middle" x="209.6944" y="-321.6" font-family="Times,serif" font-size="14.00" fill="#000000">Compose Doc Dest Path</text>
</g>
<!-- sp_create_folder&#45;&gt;compose_doc_dest_path -->
<g id="edge5" class="edge">
<title>sp_create_folder&#45;&gt;compose_doc_dest_path</title>
<path fill="none" stroke="#000000" d="M209.6944,-380.7551C209.6944,-372.6828 209.6944,-362.9764 209.6944,-353.9817"/>
<polygon fill="#000000" stroke="#000000" points="213.1945,-353.8903 209.6944,-343.8904 206.1945,-353.8904 213.1945,-353.8903"/>
</g>
<!-- child_flow_process_zip -->
<g id="node7" class="node">
<title>child_flow_process_zip</title>
<path fill="#add8e6" stroke="#000000" d="M407.5834,-270.8C407.5834,-270.8 97.697,-270.8 97.697,-270.8 91.697,-270.8 80.1634,-268.4807 74.6298,-266.1614 74.6298,-266.1614 10.8726,-239.4386 10.8726,-239.4386 5.339,-237.1193 5.8054,-234.8 11.8054,-234.8 11.8054,-234.8 321.6918,-234.8 321.6918,-234.8 327.6918,-234.8 339.2254,-237.1193 344.759,-239.4386 344.759,-239.4386 408.5162,-266.1614 408.5162,-266.1614 414.0498,-268.4807 413.5834,-270.8 407.5834,-270.8"/>
<text text-anchor="middle" x="209.6944" y="-248.6" font-family="Times,serif" font-size="14.00" fill="#000000">Run Child Flow: Process Solution</text>
</g>
<!-- compose_doc_dest_path&#45;&gt;child_flow_process_zip -->
<g id="edge6" class="edge">
<title>compose_doc_dest_path&#45;&gt;child_flow_process_zip</title>
<path fill="none" stroke="#000000" d="M209.6944,-307.7551C209.6944,-299.6828 209.6944,-289.9764 209.6944,-280.9817"/>
<polygon fill="#000000" stroke="#000000" points="213.1945,-280.8903 209.6944,-270.8904 206.1945,-280.8904 213.1945,-280.8903"/>
</g>
<!-- compose_success_subject -->
<g id="node8" class="node">
<title>compose_success_subject</title>
<path fill="#add8e6" stroke="#000000" d="M194.8895,-182C194.8895,-182 56.4993,-182 56.4993,-182 50.4993,-182 44.4993,-176 44.4993,-170 44.4993,-170 44.4993,-158 44.4993,-158 44.4993,-152 50.4993,-146 56.4993,-146 56.4993,-146 194.8895,-146 194.8895,-146 200.8895,-146 206.8895,-152 206.8895,-158 206.8895,-158 206.8895,-170 206.8895,-170 206.8895,-176 200.8895,-182 194.8895,-182"/>
<text text-anchor="middle" x="125.6944" y="-159.8" font-family="Times,serif" font-size="14.00" fill="#000000">Compose Success Subject</text>
</g>
<!-- child_flow_process_zip&#45;&gt;compose_success_subject -->
<g id="edge7" class="edge">
<title>child_flow_process_zip&#45;&gt;compose_success_subject</title>
<path fill="none" stroke="#000000" d="M192.2895,-234.4006C180.0446,-221.4559 163.4931,-203.9586 149.9545,-189.6464"/>
<polygon fill="#000000" stroke="#000000" points="152.2042,-186.9315 142.7896,-182.072 147.1189,-191.7419 152.2042,-186.9315"/>
<text text-anchor="middle" x="205.6222" y="-204.2" font-family="Times,serif" font-size="14.00" fill="#000000">Succeeded</text>
</g>
<!-- compose_fail_subject -->
<g id="node10" class="node">
<title>compose_fail_subject</title>
<path fill="#f08080" stroke="#000000" d="M352.3526,-182C352.3526,-182 237.0362,-182 237.0362,-182 231.0362,-182 225.0362,-176 225.0362,-170 225.0362,-170 225.0362,-158 225.0362,-158 225.0362,-152 231.0362,-146 237.0362,-146 237.0362,-146 352.3526,-146 352.3526,-146 358.3526,-146 364.3526,-152 364.3526,-158 364.3526,-158 364.3526,-170 364.3526,-170 364.3526,-176 358.3526,-182 352.3526,-182"/>
<text text-anchor="middle" x="294.6944" y="-159.8" font-family="Times,serif" font-size="14.00" fill="#000000">Compose Fail Subject</text>
</g>
<!-- child_flow_process_zip&#45;&gt;compose_fail_subject -->
<g id="edge8" class="edge">
<title>child_flow_process_zip&#45;&gt;compose_fail_subject</title>
<path fill="none" stroke="#000000" stroke-dasharray="1,5" d="M227.3065,-234.4006C239.6972,-221.4559 256.4458,-203.9586 270.1455,-189.6464"/>
<polygon fill="#000000" stroke="#000000" points="273.0093,-191.7162 277.3957,-182.072 267.9525,-186.8758 273.0093,-191.7162"/>
<text text-anchor="middle" x="302.8557" y="-204.2" font-family="Times,serif" font-size="14.00" fill="#000000">Failed/Timeout</text>
</g>
<!-- compose_success_body -->
<g id="node9" class="node">
<title>compose_success_body</title>
<path fill="#add8e6" stroke="#000000" d="M197.7337,-109C197.7337,-109 71.6551,-109 71.6551,-109 65.6551,-109 59.6551,-103 59.6551,-97 59.6551,-97 59.6551,-85 59.6551,-85 59.6551,-79 65.6551,-73 71.6551,-73 71.6551,-73 197.7337,-73 197.7337,-73 203.7337,-73 209.7337,-79 209.7337,-85 209.7337,-85 209.7337,-97 209.7337,-97 209.7337,-103 203.7337,-109 197.7337,-109"/>
<text text-anchor="middle" x="134.6944" y="-86.8" font-family="Times,serif" font-size="14.00" fill="#000000">Compose Success Body</text>
</g>
<!-- compose_success_subject&#45;&gt;compose_success_body -->
<g id="edge9" class="edge">
<title>compose_success_subject&#45;&gt;compose_success_body</title>
<path fill="none" stroke="#000000" d="M127.9191,-145.9551C128.9143,-137.8828 130.111,-128.1764 131.2199,-119.1817"/>
<polygon fill="#000000" stroke="#000000" points="134.7141,-119.4435 132.4641,-109.0904 127.7667,-118.5869 134.7141,-119.4435"/>
</g>
<!-- o365_send_email -->
<g id="node12" class="node">
<title>o365_send_email</title>
<path fill="#add8e6" stroke="#000000" d="M241.1306,-36C241.1306,-36 184.2582,-36 184.2582,-36 178.2582,-36 172.2582,-30 172.2582,-24 172.2582,-24 172.2582,-12 172.2582,-12 172.2582,-6 178.2582,0 184.2582,0 184.2582,0 241.1306,0 241.1306,0 247.1306,0 253.1306,-6 253.1306,-12 253.1306,-12 253.1306,-24 253.1306,-24 253.1306,-30 247.1306,-36 241.1306,-36"/>
<text text-anchor="middle" x="212.6944" y="-13.8" font-family="Times,serif" font-size="14.00" fill="#000000">Send Email</text>
</g>
<!-- compose_success_body&#45;&gt;o365_send_email -->
<g id="edge11" class="edge">
<title>compose_success_body&#45;&gt;o365_send_email</title>
<path fill="none" stroke="#000000" d="M153.9753,-72.9551C163.6317,-63.9177 175.4768,-52.8319 185.9928,-42.9899"/>
<polygon fill="#000000" stroke="#000000" points="188.4554,-45.479 193.365,-36.0904 183.6721,-40.3681 188.4554,-45.479"/>
</g>
<!-- compose_fail_body -->
<g id="node11" class="node">
<title>compose_fail_body</title>
<path fill="#f08080" stroke="#000000" d="M344.6958,-109C344.6958,-109 240.693,-109 240.693,-109 234.693,-109 228.693,-103 228.693,-97 228.693,-97 228.693,-85 228.693,-85 228.693,-79 234.693,-73 240.693,-73 240.693,-73 344.6958,-73 344.6958,-73 350.6958,-73 356.6958,-79 356.6958,-85 356.6958,-85 356.6958,-97 356.6958,-97 356.6958,-103 350.6958,-109 344.6958,-109"/>
<text text-anchor="middle" x="292.6944" y="-86.8" font-family="Times,serif" font-size="14.00" fill="#000000">Compose Fail Body</text>
</g>
<!-- compose_fail_subject&#45;&gt;compose_fail_body -->
<g id="edge10" class="edge">
<title>compose_fail_subject&#45;&gt;compose_fail_body</title>
<path fill="none" stroke="#000000" d="M294.2,-145.9551C293.9789,-137.8828 293.7129,-128.1764 293.4665,-119.1817"/>
<polygon fill="#000000" stroke="#000000" points="296.9627,-118.9907 293.19,-109.0904 289.9653,-119.1825 296.9627,-118.9907"/>
</g>
<!-- compose_fail_body&#45;&gt;o365_send_email -->
<g id="edge12" class="edge">
<title>compose_fail_body&#45;&gt;o365_send_email</title>
<path fill="none" stroke="#000000" d="M272.9191,-72.9551C263.0151,-63.9177 250.8664,-52.8319 240.0806,-42.9899"/>
<polygon fill="#000000" stroke="#000000" points="242.2655,-40.2455 232.5195,-36.0904 237.5471,-45.4163 242.2655,-40.2455"/>
</g>
</g>
</svg>
