<?xml version="1.0" encoding="UTF-8" standalone="no"?>
<!DOCTYPE svg PUBLIC "-//W3C//DTD SVG 1.1//EN"
 "http://www.w3.org/Graphics/SVG/1.1/DTD/svg11.dtd">
<!-- Generated by graphviz version 2.40.1 (20161225.0304)
 -->
<!-- Title: Flow Pages: 1 -->
<svg width="459pt" height="825pt"
 viewBox="0.00 0.00 458.76 824.80" xmlns="http://www.w3.org/2000/svg" xmlns:xlink="http://www.w3.org/1999/xlink">
<g id="graph0" class="graph" transform="scale(0.6 0.6) rotate(0) translate(4 820.8)">
<title>Flow</title>
<polygon fill="#ffffff" stroke="transparent" points="-4,4 -4,-820.8 454.7612,-820.8 454.7612,4 -4,4"/>
<!-- Trigger: Manually trigger a flow -->
<g id="node1" class="node">
<title>Trigger: Manually trigger a flow</title>
<ellipse fill="#add8e6" stroke="#000000" cx="225.3806" cy="-798.8" rx="137.1386" ry="18"/>
<text text-anchor="middle" x="225.3806" y="-794.6" font-family="Times,serif" font-size="14.00" fill="#000000">Trigger: Manually trigger a flow</text>
</g>
<!-- Initialize variable: status -->
<g id="node2" class="node">
<title>Initialize variable: status</title>
<path fill="#add8e6" stroke="#000000" d="M289.9997,-743.8C289.9997,-743.8 160.7615,-743.8 160.7615,-743.8 154.7615,-743.8 148.7615,-737.8 148.7615,-731.8 148.7615,-731.8 148.7615,-719.8 148.7615,-719.8 148.7615,-713.8 154.7615,-707.8 160.7615,-707.8 160.7615,-707.8 289.9997,-707.8 289.9997,-707.8 295.9997,-707.8 301.9997,-713.8 301.9997,-719.8 301.9997,-719.8 301.9997,-731.8 301.9997,-731.8 301.9997,-737.8 295.9997,-743.8 289.9997,-743.8"/>
<text text-anchor="middle" x="225.3806" y="-721.6" font-family="Times,serif" font-size="14.00" fill="#000000">Initialize variable: status</text>
</g>
<!-- Trigger: Manually trigger a flow&#45;&gt;Initialize variable: status -->
<g id="edge1" class="edge">
<title>Trigger: Manually trigger a flow&#45;&gt;Initialize variable: status</title>
<path fill="none" stroke="#000000" d="M225.3806,-780.7551C225.3806,-772.6828 225.3806,-762.9764 225.3806,-753.9817"/>
<polygon fill="#000000" stroke="#000000" points="228.8807,-753.8903 225.3806,-743.8904 221.8807,-753.8904 228.8807,-753.8903"/>
</g>
<!-- Compose: Get Zip File ID -->
<g id="node3" class="node">
<title>Compose: Get Zip File ID</title>
<path fill="#add8e6" stroke="#000000" d="M294.8582,-670.8C294.8582,-670.8 155.903,-670.8 155.903,-670.8 149.903,-670.8 143.903,-664.8 143.903,-658.8 143.903,-658.8 143.903,-646.8 143.903,-646.8 143.903,-640.8 149.903,-634.8 155.903,-634.8 155.903,-634.8 294.8582,-634.8 294.8582,-634.8 300.8582,-634.8 306.8582,-640.8 306.8582,-646.8 306.8582,-646.8 306.8582,-658.8 306.8582,-658.8 306.8582,-664.8 300.8582,-670.8 294.8582,-670.8"/>
<text text-anchor="middle" x="225.3806" y="-648.6" font-family="Times,serif" font-size="14.00" fill="#000000">Compose: Get Zip File ID</text>
</g>
<!-- Initialize variable: status&#45;&gt;Compose: Get Zip File ID -->
<g id="edge2" class="edge">
<title>Initialize variable: status&#45;&gt;Compose: Get Zip File ID</title>
<path fill="none" stroke="#000000" d="M225.3806,-707.7551C225.3806,-699.6828 225.3806,-689.9764 225.3806,-680.9817"/>
<polygon fill="#000000" stroke="#000000" points="228.8807,-680.8903 225.3806,-670.8904 221.8807,-680.8904 228.8807,-680.8903"/>
</g>
<!-- SharePoint: Get file content -->
<g id="node4" class="node">
<title>SharePoint: Get file content</title>
<path fill="#add8e6" stroke="#000000" d="M299.286,-597.8C299.286,-597.8 151.4752,-597.8 151.4752,-597.8 145.4752,-597.8 139.4752,-591.8 139.4752,-585.8 139.4752,-585.8 139.4752,-573.8 139.4752,-573.8 139.4752,-567.8 145.4752,-561.8 151.4752,-561.8 151.4752,-561.8 299.286,-561.8 299.286,-561.8 305.286,-561.8 311.286,-567.8 311.286,-573.8 311.286,-573.8 311.286,-585.8 311.286,-585.8 311.286,-591.8 305.286,-597.8 299.286,-597.8"/>
<text text-anchor="middle" x="225.3806" y="-575.6" font-family="Times,serif" font-size="14.00" fill="#000000">SharePoint: Get file content</text>
</g>
<!-- Compose: Get Zip File ID&#45;&gt;SharePoint: Get file content -->
<g id="edge3" class="edge">
<title>Compose: Get Zip File ID&#45;&gt;SharePoint: Get file content</title>
<path fill="none" stroke="#000000" d="M225.3806,-634.7551C225.3806,-626.6828 225.3806,-616.9764 225.3806,-607.9817"/>
<polygon fill="#000000" stroke="#000000" points="228.8807,-607.8903 225.3806,-597.8904 221.8807,-607.8904 228.8807,-607.8903"/>
</g>
<!-- Zip Operations: List files -->
<g id="node5" class="node">
<title>Zip Operations: List files</title>
<path fill="#add8e6" stroke="#000000" d="M292.016,-524.8C292.016,-524.8 158.7451,-524.8 158.7451,-524.8 152.7451,-524.8 146.7451,-518.8 146.7451,-512.8 146.7451,-512.8 146.7451,-500.8 146.7451,-500.8 146.7451,-494.8 152.7451,-488.8 158.7451,-488.8 158.7451,-488.8 292.016,-488.8 292.016,-488.8 298.016,-488.8 304.016,-494.8 304.016,-500.8 304.016,-500.8 304.016,-512.8 304.016,-512.8 304.016,-518.8 298.016,-524.8 292.016,-524.8"/>
<text text-anchor="middle" x="225.3806" y="-502.6" font-family="Times,serif" font-size="14.00" fill="#000000">Zip Operations: List files</text>
</g>
<!-- SharePoint: Get file content&#45;&gt;Zip Operations: List files -->
<g id="edge4" class="edge">
<title>SharePoint: Get file content&#45;&gt;Zip Operations: List files</title>
<path fill="none" stroke="#000000" d="M225.3806,-561.7551C225.3806,-553.6828 225.3806,-543.9764 225.3806,-534.9817"/>
<polygon fill="#000000" stroke="#000000" points="228.8807,-534.8903 225.3806,-524.8904 221.8807,-534.8904 228.8807,-534.8903"/>
</g>
<!-- Filter array: customizations.xml -->
<g id="node6" class="node">
<title>Filter array: customizations.xml</title>
<path fill="#add8e6" stroke="#000000" d="M311.1185,-451.8C311.1185,-451.8 139.6426,-451.8 139.6426,-451.8 133.6426,-451.8 127.6426,-445.8 127.6426,-439.8 127.6426,-439.8 127.6426,-427.8 127.6426,-427.8 127.6426,-421.8 133.6426,-415.8 139.6426,-415.8 139.6426,-415.8 311.1185,-415.8 311.1185,-415.8 317.1185,-415.8 323.1185,-421.8 323.1185,-427.8 323.1185,-427.8 323.1185,-439.8 323.1185,-439.8 323.1185,-445.8 317.1185,-451.8 311.1185,-451.8"/>
<text text-anchor="middle" x="225.3806" y="-429.6" font-family="Times,serif" font-size="14.00" fill="#000000">Filter array: customizations.xml</text>
</g>
<!-- Zip Operations: List files&#45;&gt;Filter array: customizations.xml -->
<g id="edge5" class="edge">
<title>Zip Operations: List files&#45;&gt;Filter array: customizations.xml</title>
<path fill="none" stroke="#000000" d="M225.3806,-488.7551C225.3806,-480.6828 225.3806,-470.9764 225.3806,-461.9817"/>
<polygon fill="#000000" stroke="#000000" points="228.8807,-461.8903 225.3806,-451.8904 221.8807,-461.8904 228.8807,-461.8903"/>
</g>
<!-- Condition: customizations.xml found? -->
<g id="node7" class="node">
<title>Condition: customizations.xml found?</title>
<path fill="#add8e6" stroke="#000000" d="M213.4187,-377.8442C213.4187,-377.8442 12.0812,-361.7558 12.0812,-361.7558 6.1003,-361.2779 6.1003,-360.3221 12.0812,-359.8442 12.0812,-359.8442 213.4187,-343.7558 213.4187,-343.7558 219.3997,-343.2779 231.3615,-343.2779 237.3425,-343.7558 237.3425,-343.7558 438.68,-359.8442 438.68,-359.8442 444.6609,-360.3221 444.6609,-361.2779 438.68,-361.7558 438.68,-361.7558 237.3425,-377.8442 237.3425,-377.8442 231.3615,-378.3221 219.3997,-378.3221 213.4187,-377.8442"/>
<text text-anchor="middle" x="225.3806" y="-356.6" font-family="Times,serif" font-size="14.00" fill="#000000">Condition: customizations.xml found?</text>
</g>
<!-- Filter array: customizations.xml&#45;&gt;Condition: customizations.xml found? -->
<g id="edge6" class="edge">
<title>Filter array: customizations.xml&#45;&gt;Condition: customizations.xml found?</title>
<path fill="none" stroke="#000000" d="M225.3806,-415.7551C225.3806,-407.6828 225.3806,-397.9764 225.3806,-388.9817"/>
<polygon fill="#000000" stroke="#000000" points="228.8807,-388.8903 225.3806,-378.8904 221.8807,-388.8904 228.8807,-388.8903"/>
</g>
<!-- Set variable: status = BE -->
<g id="node8" class="node">
<title>Set variable: status = BE</title>
<path fill="#add8e6" stroke="#000000" d="M261.4141,-236C261.4141,-236 131.3471,-236 131.3471,-236 125.3471,-236 119.3471,-230 119.3471,-224 119.3471,-224 119.3471,-212 119.3471,-212 119.3471,-206 125.3471,-200 131.3471,-200 131.3471,-200 261.4141,-200 261.4141,-200 267.4141,-200 273.4141,-206 273.4141,-212 273.4141,-212 273.4141,-224 273.4141,-224 273.4141,-230 267.4141,-236 261.4141,-236"/>
<text text-anchor="middle" x="196.3806" y="-213.8" font-family="Times,serif" font-size="14.00" fill="#000000">Set variable: status = BE</text>
</g>
<!-- Condition: customizations.xml found?&#45;&gt;Set variable: status = BE -->
<g id="edge7" class="edge">
<title>Condition: customizations.xml found?&#45;&gt;Set variable: status = BE</title>
<path fill="none" stroke="#000000" stroke-dasharray="1,5" d="M221.7664,-343.003C216.817,-318.6317 207.88,-274.6249 202.0391,-245.8633"/>
<polygon fill="#000000" stroke="#000000" points="205.4606,-245.1246 200.0404,-236.0213 198.6007,-246.5178 205.4606,-245.1246"/>
<text text-anchor="middle" x="233.1541" y="-312.2" font-family="Times,serif" font-size="14.00" fill="#000000">False</text>
</g>
<!-- Compose: Read XML content -->
<g id="node9" class="node">
<title>Compose: Read XML content</title>
<path fill="#add8e6" stroke="#000000" d="M400.7379,-290C400.7379,-290 240.0232,-290 240.0232,-290 234.0232,-290 228.0232,-284 228.0232,-278 228.0232,-278 228.0232,-266 228.0232,-266 228.0232,-260 234.0232,-254 240.0232,-254 240.0232,-254 400.7379,-254 400.7379,-254 406.7379,-254 412.7379,-260 412.7379,-266 412.7379,-266 412.7379,-278 412.7379,-278 412.7379,-284 406.7379,-290 400.7379,-290"/>
<text text-anchor="middle" x="320.3806" y="-267.8" font-family="Times,serif" font-size="14.00" fill="#000000">Compose: Read XML content</text>
</g>
<!-- Condition: customizations.xml found?&#45;&gt;Compose: Read XML content -->
<g id="edge8" class="edge">
<title>Condition: customizations.xml found?&#45;&gt;Compose: Read XML content</title>
<path fill="none" stroke="#000000" d="M243.2494,-344.0974C257.3835,-330.8857 277.3457,-312.2263 293.4207,-297.2004"/>
<polygon fill="#000000" stroke="#000000" points="296.0418,-299.5414 300.9572,-290.1558 291.2617,-294.4276 296.0418,-299.5414"/>
<text text-anchor="middle" x="295.5945" y="-312.2" font-family="Times,serif" font-size="14.00" fill="#000000">True</text>
</g>
<!-- Response: Respond to app/flow -->
<g id="node12" class="node">
<title>Response: Respond to app/flow</title>
<ellipse fill="#add8e6" stroke="#000000" cx="202.3806" cy="-18" rx="133.7146" ry="18"/>
<text text-anchor="middle" x="202.3806" y="-13.8" font-family="Times,serif" font-size="14.00" fill="#000000">Response: Respond to app/flow</text>
</g>
<!-- Set variable: status = BE&#45;&gt;Response: Respond to app/flow -->
<g id="edge11" class="edge">
<title>Set variable: status = BE&#45;&gt;Response: Respond to app/flow</title>
<path fill="none" stroke="#000000" d="M196.9236,-199.8986C197.9718,-164.9585 200.2808,-87.9938 201.533,-46.2533"/>
<polygon fill="#000000" stroke="#000000" points="205.0329,-46.3051 201.8345,-36.2046 198.0361,-46.0951 205.0329,-46.3051"/>
</g>
<!-- Compose: Convert XML to JSON -->
<g id="node10" class="node">
<title>Compose: Convert XML to JSON</title>
<path fill="#add8e6" stroke="#000000" d="M414.195,-182C414.195,-182 230.5662,-182 230.5662,-182 224.5662,-182 218.5662,-176 218.5662,-170 218.5662,-170 218.5662,-158 218.5662,-158 218.5662,-152 224.5662,-146 230.5662,-146 230.5662,-146 414.195,-146 414.195,-146 420.195,-146 426.195,-152 426.195,-158 426.195,-158 426.195,-170 426.195,-170 426.195,-176 420.195,-182 414.195,-182"/>
<text text-anchor="middle" x="322.3806" y="-159.8" font-family="Times,serif" font-size="14.00" fill="#000000">Compose: Convert XML to JSON</text>
</g>
<!-- Compose: Read XML content&#45;&gt;Compose: Convert XML to JSON -->
<g id="edge9" class="edge">
<title>Compose: Read XML content&#45;&gt;Compose: Convert XML to JSON</title>
<path fill="none" stroke="#000000" d="M320.7199,-253.6793C321.0321,-236.821 321.4998,-211.5651 321.8593,-192.147"/>
<polygon fill="#000000" stroke="#000000" points="325.3605,-192.1133 322.0463,-182.0502 318.3617,-191.9836 325.3605,-192.1133"/>
</g>
<!-- Set variable: status = success -->
<g id="node11" class="node">
<title>Set variable: status = success</title>
<path fill="#add8e6" stroke="#000000" d="M391.5022,-109C391.5022,-109 237.259,-109 237.259,-109 231.259,-109 225.259,-103 225.259,-97 225.259,-97 225.259,-85 225.259,-85 225.259,-79 231.259,-73 237.259,-73 237.259,-73 391.5022,-73 391.5022,-73 397.5022,-73 403.5022,-79 403.5022,-85 403.5022,-85 403.5022,-97 403.5022,-97 403.5022,-103 397.5022,-109 391.5022,-109"/>
<text text-anchor="middle" x="314.3806" y="-86.8" font-family="Times,serif" font-size="14.00" fill="#000000">Set variable: status = success</text>
</g>
<!-- Compose: Convert XML to JSON&#45;&gt;Set variable: status = success -->
<g id="edge10" class="edge">
<title>Compose: Convert XML to JSON&#45;&gt;Set variable: status = success</title>
<path fill="none" stroke="#000000" d="M320.4031,-145.9551C319.5184,-137.8828 318.4547,-128.1764 317.469,-119.1817"/>
<polygon fill="#000000" stroke="#000000" points="320.9317,-118.6495 316.3631,-109.0904 313.9734,-119.4122 320.9317,-118.6495"/>
</g>
<!-- Set variable: status = success&#45;&gt;Response: Respond to app/flow -->
<g id="edge12" class="edge">
<title>Set variable: status = success&#45;&gt;Response: Respond to app/flow</title>
<path fill="none" stroke="#000000" d="M286.6952,-72.9551C272.0472,-63.4077 253.8918,-51.5743 238.1843,-41.3363"/>
<polygon fill="#000000" stroke="#000000" points="240.0363,-38.3657 229.7475,-35.8374 236.214,-44.23 240.0363,-38.3657"/>
</g>
</g>
</svg>
