<?xml version="1.0" encoding="UTF-8" standalone="no"?>
<!DOCTYPE svg PUBLIC "-//W3C//DTD SVG 1.1//EN"
 "http://www.w3.org/Graphics/SVG/1.1/DTD/svg11.dtd">
<!-- Generated by graphviz version 2.40.1 (20161225.0304)
 -->
<!-- Title: Flowchart Pages: 1 -->
<svg width="321pt" height="993pt"
 viewBox="0.00 0.00 320.58 993.20" xmlns="http://www.w3.org/2000/svg" xmlns:xlink="http://www.w3.org/1999/xlink">
<g id="graph0" class="graph" transform="scale(0.6 0.6) rotate(0) translate(4 989.2)">
<title>Flowchart</title>
<polygon fill="#ffffff" stroke="transparent" points="-4,4 -4,-989.2 316.5758,-989.2 316.5758,4 -4,4"/>
<!-- manual -->
<g id="node1" class="node">
<title>manual</title>
<ellipse fill="#add8e6" stroke="#000000" cx="157.2879" cy="-967.2" rx="110.0122" ry="18"/>
<text text-anchor="middle" x="157.2879" y="-963" font-family="Times,serif" font-size="14.00" fill="#000000">Trigger: Manually trigger</text>
</g>
<!-- Compose_Destination_Folder_Path_Input -->
<g id="node2" class="node">
<title>Compose_Destination_Folder_Path_Input</title>
<path fill="#add8e6" stroke="#000000" d="M250.0441,-912.2C250.0441,-912.2 64.5317,-912.2 64.5317,-912.2 58.5317,-912.2 52.5317,-906.2 52.5317,-900.2 52.5317,-900.2 52.5317,-888.2 52.5317,-888.2 52.5317,-882.2 58.5317,-876.2 64.5317,-876.2 64.5317,-876.2 250.0441,-876.2 250.0441,-876.2 256.0441,-876.2 262.0441,-882.2 262.0441,-888.2 262.0441,-888.2 262.0441,-900.2 262.0441,-900.2 262.0441,-906.2 256.0441,-912.2 250.0441,-912.2"/>
<text text-anchor="middle" x="157.2879" y="-890" font-family="Times,serif" font-size="14.00" fill="#000000">Compose: Destination Folder Path</text>
</g>
<!-- manual&#45;&gt;Compose_Destination_Folder_Path_Input -->
<g id="edge1" class="edge">
<title>manual&#45;&gt;Compose_Destination_Folder_Path_Input</title>
<path fill="none" stroke="#000000" d="M157.2879,-949.1551C157.2879,-941.0828 157.2879,-931.3764 157.2879,-922.3817"/>
<polygon fill="#000000" stroke="#000000" points="160.788,-922.2903 157.2879,-912.2904 153.788,-922.2904 160.788,-922.2903"/>
</g>
<!-- Compose_Flow_Name_Input -->
<g id="node3" class="node">
<title>Compose_Flow_Name_Input</title>
<path fill="#add8e6" stroke="#000000" d="M216.2711,-839.2C216.2711,-839.2 98.3047,-839.2 98.3047,-839.2 92.3047,-839.2 86.3047,-833.2 86.3047,-827.2 86.3047,-827.2 86.3047,-815.2 86.3047,-815.2 86.3047,-809.2 92.3047,-803.2 98.3047,-803.2 98.3047,-803.2 216.2711,-803.2 216.2711,-803.2 222.2711,-803.2 228.2711,-809.2 228.2711,-815.2 228.2711,-815.2 228.2711,-827.2 228.2711,-827.2 228.2711,-833.2 222.2711,-839.2 216.2711,-839.2"/>
<text text-anchor="middle" x="157.2879" y="-817" font-family="Times,serif" font-size="14.00" fill="#000000">Compose: Flow Name</text>
</g>
<!-- Compose_Destination_Folder_Path_Input&#45;&gt;Compose_Flow_Name_Input -->
<g id="edge2" class="edge">
<title>Compose_Destination_Folder_Path_Input&#45;&gt;Compose_Flow_Name_Input</title>
<path fill="none" stroke="#000000" d="M157.2879,-876.1551C157.2879,-868.0828 157.2879,-858.3764 157.2879,-849.3817"/>
<polygon fill="#000000" stroke="#000000" points="160.788,-849.2903 157.2879,-839.2904 153.788,-849.2904 160.788,-849.2903"/>
</g>
<!-- Compose_Graphviz_DOT_Code_Input -->
<g id="node4" class="node">
<title>Compose_Graphviz_DOT_Code_Input</title>
<path fill="#add8e6" stroke="#000000" d="M241.9692,-766.2C241.9692,-766.2 72.6066,-766.2 72.6066,-766.2 66.6066,-766.2 60.6066,-760.2 60.6066,-754.2 60.6066,-754.2 60.6066,-742.2 60.6066,-742.2 60.6066,-736.2 66.6066,-730.2 72.6066,-730.2 72.6066,-730.2 241.9692,-730.2 241.9692,-730.2 247.9692,-730.2 253.9692,-736.2 253.9692,-742.2 253.9692,-742.2 253.9692,-754.2 253.9692,-754.2 253.9692,-760.2 247.9692,-766.2 241.9692,-766.2"/>
<text text-anchor="middle" x="157.2879" y="-744" font-family="Times,serif" font-size="14.00" fill="#000000">Compose: Graphviz DOT Code</text>
</g>
<!-- Compose_Flow_Name_Input&#45;&gt;Compose_Graphviz_DOT_Code_Input -->
<g id="edge3" class="edge">
<title>Compose_Flow_Name_Input&#45;&gt;Compose_Graphviz_DOT_Code_Input</title>
<path fill="none" stroke="#000000" d="M157.2879,-803.1551C157.2879,-795.0828 157.2879,-785.3764 157.2879,-776.3817"/>
<polygon fill="#000000" stroke="#000000" points="160.788,-776.2903 157.2879,-766.2904 153.788,-776.2904 160.788,-776.2903"/>
</g>
<!-- Replace_words_in_text_Prepare_Graphviz_Code_for_API -->
<g id="node5" class="node">
<title>Replace_words_in_text_Prepare_Graphviz_Code_for_API</title>
<path fill="#add8e6" stroke="#000000" d="M259.8077,-693.2C259.8077,-693.2 54.7681,-693.2 54.7681,-693.2 48.7681,-693.2 42.7681,-687.2 42.7681,-681.2 42.7681,-681.2 42.7681,-669.2 42.7681,-669.2 42.7681,-663.2 48.7681,-657.2 54.7681,-657.2 54.7681,-657.2 259.8077,-657.2 259.8077,-657.2 265.8077,-657.2 271.8077,-663.2 271.8077,-669.2 271.8077,-669.2 271.8077,-681.2 271.8077,-681.2 271.8077,-687.2 265.8077,-693.2 259.8077,-693.2"/>
<text text-anchor="middle" x="157.2879" y="-671" font-family="Times,serif" font-size="14.00" fill="#000000">Replace Text: Prepare Graphviz Code</text>
</g>
<!-- Compose_Graphviz_DOT_Code_Input&#45;&gt;Replace_words_in_text_Prepare_Graphviz_Code_for_API -->
<g id="edge4" class="edge">
<title>Compose_Graphviz_DOT_Code_Input&#45;&gt;Replace_words_in_text_Prepare_Graphviz_Code_for_API</title>
<path fill="none" stroke="#000000" d="M157.2879,-730.1551C157.2879,-722.0828 157.2879,-712.3764 157.2879,-703.3817"/>
<polygon fill="#000000" stroke="#000000" points="160.788,-703.2903 157.2879,-693.2904 153.788,-703.2904 160.788,-703.2903"/>
</g>
<!-- HTTP_Call_Graphviz_API -->
<g id="node6" class="node">
<title>HTTP_Call_Graphviz_API</title>
<path fill="#add8e6" stroke="#000000" d="M227.1425,-620.2C227.1425,-620.2 87.4333,-620.2 87.4333,-620.2 81.4333,-620.2 75.4333,-614.2 75.4333,-608.2 75.4333,-608.2 75.4333,-596.2 75.4333,-596.2 75.4333,-590.2 81.4333,-584.2 87.4333,-584.2 87.4333,-584.2 227.1425,-584.2 227.1425,-584.2 233.1425,-584.2 239.1425,-590.2 239.1425,-596.2 239.1425,-596.2 239.1425,-608.2 239.1425,-608.2 239.1425,-614.2 233.1425,-620.2 227.1425,-620.2"/>
<text text-anchor="middle" x="157.2879" y="-598" font-family="Times,serif" font-size="14.00" fill="#000000">HTTP: Call Graphviz API</text>
</g>
<!-- Replace_words_in_text_Prepare_Graphviz_Code_for_API&#45;&gt;HTTP_Call_Graphviz_API -->
<g id="edge5" class="edge">
<title>Replace_words_in_text_Prepare_Graphviz_Code_for_API&#45;&gt;HTTP_Call_Graphviz_API</title>
<path fill="none" stroke="#000000" d="M157.2879,-657.1551C157.2879,-649.0828 157.2879,-639.3764 157.2879,-630.3817"/>
<polygon fill="#000000" stroke="#000000" points="160.788,-630.2903 157.2879,-620.2904 153.788,-630.2904 160.788,-630.2903"/>
</g>
<!-- Compose_svg_xml_text -->
<g id="node7" class="node">
<title>Compose_svg_xml_text</title>
<path fill="#add8e6" stroke="#000000" d="M229.3223,-547.2C229.3223,-547.2 85.2535,-547.2 85.2535,-547.2 79.2535,-547.2 73.2535,-541.2 73.2535,-535.2 73.2535,-535.2 73.2535,-523.2 73.2535,-523.2 73.2535,-517.2 79.2535,-511.2 85.2535,-511.2 85.2535,-511.2 229.3223,-511.2 229.3223,-511.2 235.3223,-511.2 241.3223,-517.2 241.3223,-523.2 241.3223,-523.2 241.3223,-535.2 241.3223,-535.2 241.3223,-541.2 235.3223,-547.2 229.3223,-547.2"/>
<text text-anchor="middle" x="157.2879" y="-525" font-family="Times,serif" font-size="14.00" fill="#000000">Compose: SVG XML Text</text>
</g>
<!-- HTTP_Call_Graphviz_API&#45;&gt;Compose_svg_xml_text -->
<g id="edge6" class="edge">
<title>HTTP_Call_Graphviz_API&#45;&gt;Compose_svg_xml_text</title>
<path fill="none" stroke="#000000" d="M157.2879,-584.1551C157.2879,-576.0828 157.2879,-566.3764 157.2879,-557.3817"/>
<polygon fill="#000000" stroke="#000000" points="160.788,-557.2903 157.2879,-547.2904 153.788,-557.2904 160.788,-557.2903"/>
</g>
<!-- Replace_words_in_text_Rescale_xml -->
<g id="node8" class="node">
<title>Replace_words_in_text_Rescale_xml</title>
<path fill="#add8e6" stroke="#000000" d="M249.0519,-474.0019C249.0519,-474.0019 65.5239,-474.0019 65.5239,-474.0019 59.5239,-474.0019 53.5239,-468.0019 53.5239,-462.0019 53.5239,-462.0019 53.5239,-444.7981 53.5239,-444.7981 53.5239,-438.7981 59.5239,-432.7981 65.5239,-432.7981 65.5239,-432.7981 249.0519,-432.7981 249.0519,-432.7981 255.0519,-432.7981 261.0519,-438.7981 261.0519,-444.7981 261.0519,-444.7981 261.0519,-462.0019 261.0519,-462.0019 261.0519,-468.0019 255.0519,-474.0019 249.0519,-474.0019"/>
<text text-anchor="middle" x="157.2879" y="-457.6" font-family="Times,serif" font-size="14.00" fill="#000000">Replace Text: Rescale SVG XML</text>
<text text-anchor="middle" x="157.2879" y="-440.8" font-family="Times,serif" font-size="14.00" fill="#000000">(Rescales diagram)</text>
</g>
<!-- Compose_svg_xml_text&#45;&gt;Replace_words_in_text_Rescale_xml -->
<g id="edge7" class="edge">
<title>Compose_svg_xml_text&#45;&gt;Replace_words_in_text_Rescale_xml</title>
<path fill="none" stroke="#000000" d="M157.2879,-510.8509C157.2879,-502.915 157.2879,-493.4041 157.2879,-484.4258"/>
<polygon fill="#000000" stroke="#000000" points="160.788,-484.2568 157.2879,-474.2568 153.788,-484.2569 160.788,-484.2568"/>
</g>
<!-- Create_file_Create_SVG_Diagram_File_in_SharePoint -->
<g id="node9" class="node">
<title>Create_file_Create_SVG_Diagram_File_in_SharePoint</title>
<path fill="#add8e6" stroke="#000000" d="M234.4205,-395.6C234.4205,-395.6 80.1553,-395.6 80.1553,-395.6 74.1553,-395.6 68.1553,-389.6 68.1553,-383.6 68.1553,-383.6 68.1553,-371.6 68.1553,-371.6 68.1553,-365.6 74.1553,-359.6 80.1553,-359.6 80.1553,-359.6 234.4205,-359.6 234.4205,-359.6 240.4205,-359.6 246.4205,-365.6 246.4205,-371.6 246.4205,-371.6 246.4205,-383.6 246.4205,-383.6 246.4205,-389.6 240.4205,-395.6 234.4205,-395.6"/>
<text text-anchor="middle" x="157.2879" y="-373.4" font-family="Times,serif" font-size="14.00" fill="#000000">SharePoint: Create SVG File</text>
</g>
<!-- Replace_words_in_text_Rescale_xml&#45;&gt;Create_file_Create_SVG_Diagram_File_in_SharePoint -->
<g id="edge8" class="edge">
<title>Replace_words_in_text_Rescale_xml&#45;&gt;Create_file_Create_SVG_Diagram_File_in_SharePoint</title>
<path fill="none" stroke="#000000" d="M157.2879,-432.6873C157.2879,-424.3698 157.2879,-414.6512 157.2879,-405.7124"/>
<polygon fill="#000000" stroke="#000000" points="160.788,-405.7078 157.2879,-395.7078 153.788,-405.7079 160.788,-405.7078"/>
</g>
<!-- Get_file_metadata_using_path_if_file_already_exists -->
<g id="node10" class="node">
<title>Get_file_metadata_using_path_if_file_already_exists</title>
<path fill="#f08080" stroke="#000000" d="M177.1891,-306.6019C177.1891,-306.6019 15.3867,-306.6019 15.3867,-306.6019 9.3867,-306.6019 3.3867,-300.6019 3.3867,-294.6019 3.3867,-294.6019 3.3867,-277.3981 3.3867,-277.3981 3.3867,-271.3981 9.3867,-265.3981 15.3867,-265.3981 15.3867,-265.3981 177.1891,-265.3981 177.1891,-265.3981 183.1891,-265.3981 189.1891,-271.3981 189.1891,-277.3981 189.1891,-277.3981 189.1891,-294.6019 189.1891,-294.6019 189.1891,-300.6019 183.1891,-306.6019 177.1891,-306.6019"/>
<text text-anchor="middle" x="96.2879" y="-290.2" font-family="Times,serif" font-size="14.00" fill="#000000">SharePoint: Get File Metadata</text>
<text text-anchor="middle" x="96.2879" y="-273.4" font-family="Times,serif" font-size="14.00" fill="#000000">(On Create File Failed)</text>
</g>
<!-- Create_file_Create_SVG_Diagram_File_in_SharePoint&#45;&gt;Get_file_metadata_using_path_if_file_already_exists -->
<g id="edge10" class="edge">
<title>Create_file_Create_SVG_Diagram_File_in_SharePoint&#45;&gt;Get_file_metadata_using_path_if_file_already_exists</title>
<path fill="none" stroke="#ff0000" stroke-dasharray="1,5" d="M145.2363,-359.5028C136.8402,-346.895 125.4566,-329.8009 115.7802,-315.2704"/>
<polygon fill="#ff0000" stroke="#ff0000" points="118.4739,-313.0008 110.0179,-306.6175 112.6476,-316.8808 118.4739,-313.0008"/>
<text text-anchor="middle" x="149.7844" y="-329" font-family="Times,serif" font-size="14.00" fill="#000000">Failed</text>
</g>
<!-- Get_file_properties_for_SVG_File -->
<g id="node12" class="node">
<title>Get_file_properties_for_SVG_File</title>
<path fill="#add8e6" stroke="#000000" d="M300.3642,-247.0019C300.3642,-247.0019 134.2116,-247.0019 134.2116,-247.0019 128.2116,-247.0019 122.2116,-241.0019 122.2116,-235.0019 122.2116,-235.0019 122.2116,-217.7981 122.2116,-217.7981 122.2116,-211.7981 128.2116,-205.7981 134.2116,-205.7981 134.2116,-205.7981 300.3642,-205.7981 300.3642,-205.7981 306.3642,-205.7981 312.3642,-211.7981 312.3642,-217.7981 312.3642,-217.7981 312.3642,-235.0019 312.3642,-235.0019 312.3642,-241.0019 306.3642,-247.0019 300.3642,-247.0019"/>
<text text-anchor="middle" x="217.2879" y="-230.6" font-family="Times,serif" font-size="14.00" fill="#000000">SharePoint: Get File Properties</text>
<text text-anchor="middle" x="217.2879" y="-213.8" font-family="Times,serif" font-size="14.00" fill="#000000">(New File)</text>
</g>
<!-- Create_file_Create_SVG_Diagram_File_in_SharePoint&#45;&gt;Get_file_properties_for_SVG_File -->
<g id="edge9" class="edge">
<title>Create_file_Create_SVG_Diagram_File_in_SharePoint&#45;&gt;Get_file_properties_for_SVG_File</title>
<path fill="none" stroke="#000000" d="M169.8138,-359.4264C178.8689,-345.5538 190.7825,-325.6741 198.2879,-306.8 204.6179,-290.8817 209.1771,-272.3161 212.24,-257.0383"/>
<polygon fill="#000000" stroke="#000000" points="215.7079,-257.5355 214.1248,-247.0596 208.8295,-256.2363 215.7079,-257.5355"/>
<text text-anchor="middle" x="220.2157" y="-329" font-family="Times,serif" font-size="14.00" fill="#000000">Succeeded</text>
</g>
<!-- Get_file_properties_For_Existing_SVG_File -->
<g id="node11" class="node">
<title>Get_file_properties_For_Existing_SVG_File</title>
<path fill="#add8e6" stroke="#000000" d="M178.3642,-187.4019C178.3642,-187.4019 12.2116,-187.4019 12.2116,-187.4019 6.2116,-187.4019 .2116,-181.4019 .2116,-175.4019 .2116,-175.4019 .2116,-158.1981 .2116,-158.1981 .2116,-152.1981 6.2116,-146.1981 12.2116,-146.1981 12.2116,-146.1981 178.3642,-146.1981 178.3642,-146.1981 184.3642,-146.1981 190.3642,-152.1981 190.3642,-158.1981 190.3642,-158.1981 190.3642,-175.4019 190.3642,-175.4019 190.3642,-181.4019 184.3642,-187.4019 178.3642,-187.4019"/>
<text text-anchor="middle" x="95.2879" y="-171" font-family="Times,serif" font-size="14.00" fill="#000000">SharePoint: Get File Properties</text>
<text text-anchor="middle" x="95.2879" y="-154.2" font-family="Times,serif" font-size="14.00" fill="#000000">(Existing File)</text>
</g>
<!-- Get_file_metadata_using_path_if_file_already_exists&#45;&gt;Get_file_properties_For_Existing_SVG_File -->
<g id="edge12" class="edge">
<title>Get_file_metadata_using_path_if_file_already_exists&#45;&gt;Get_file_properties_For_Existing_SVG_File</title>
<path fill="none" stroke="#000000" d="M96.1137,-265.2369C95.9577,-246.6348 95.7266,-219.0923 95.5485,-197.868"/>
<polygon fill="#000000" stroke="#000000" points="99.0473,-197.6953 95.4634,-187.7251 92.0476,-197.7541 99.0473,-197.6953"/>
</g>
<!-- Compose_SVG_File_Link_Output -->
<g id="node13" class="node">
<title>Compose_SVG_File_Link_Output</title>
<path fill="#add8e6" stroke="#000000" d="M245.1701,-109C245.1701,-109 67.4057,-109 67.4057,-109 61.4057,-109 55.4057,-103 55.4057,-97 55.4057,-97 55.4057,-85 55.4057,-85 55.4057,-79 61.4057,-73 67.4057,-73 67.4057,-73 245.1701,-73 245.1701,-73 251.1701,-73 257.1701,-79 257.1701,-85 257.1701,-85 257.1701,-97 257.1701,-97 257.1701,-103 251.1701,-109 245.1701,-109"/>
<text text-anchor="middle" x="156.2879" y="-86.8" font-family="Times,serif" font-size="14.00" fill="#000000">Compose: SVG File Link Output</text>
</g>
<!-- Get_file_properties_For_Existing_SVG_File&#45;&gt;Compose_SVG_File_Link_Output -->
<g id="edge13" class="edge">
<title>Get_file_properties_For_Existing_SVG_File&#45;&gt;Compose_SVG_File_Link_Output</title>
<path fill="none" stroke="#000000" d="M111.9564,-146.0873C119.1592,-137.137 127.6677,-126.5642 135.2948,-117.0865"/>
<polygon fill="#000000" stroke="#000000" points="138.1728,-119.0928 141.7156,-109.1078 132.7194,-114.7041 138.1728,-119.0928"/>
</g>
<!-- Get_file_properties_for_SVG_File&#45;&gt;Compose_SVG_File_Link_Output -->
<g id="edge11" class="edge">
<title>Get_file_properties_for_SVG_File&#45;&gt;Compose_SVG_File_Link_Output</title>
<path fill="none" stroke="#000000" d="M215.2141,-205.7627C212.9429,-189.0181 208.3413,-165.1362 199.2879,-146 194.4956,-135.8707 187.5565,-125.8842 180.6461,-117.2586"/>
<polygon fill="#000000" stroke="#000000" points="183.2054,-114.8633 174.1006,-109.4454 177.8395,-119.3586 183.2054,-114.8633"/>
</g>
<!-- Respond_to_a_Power_App_or_flow -->
<g id="node14" class="node">
<title>Respond_to_a_Power_App_or_flow</title>
<ellipse fill="#add8e6" stroke="#000000" cx="156.2879" cy="-18" rx="138.3908" ry="18"/>
<text text-anchor="middle" x="156.2879" y="-13.8" font-family="Times,serif" font-size="14.00" fill="#000000">Response: Respond to App/Flow</text>
</g>
<!-- Compose_SVG_File_Link_Output&#45;&gt;Respond_to_a_Power_App_or_flow -->
<g id="edge14" class="edge">
<title>Compose_SVG_File_Link_Output&#45;&gt;Respond_to_a_Power_App_or_flow</title>
<path fill="none" stroke="#000000" d="M156.2879,-72.9551C156.2879,-64.8828 156.2879,-55.1764 156.2879,-46.1817"/>
<polygon fill="#000000" stroke="#000000" points="159.788,-46.0903 156.2879,-36.0904 152.788,-46.0904 159.788,-46.0903"/>
</g>
</g>
</svg>
