<?xml version="1.0" encoding="UTF-8" standalone="no"?>
<!DOCTYPE svg PUBLIC "-//W3C//DTD SVG 1.1//EN"
 "http://www.w3.org/Graphics/SVG/1.1/DTD/svg11.dtd">
<!-- Generated by graphviz version 2.40.1 (20161225.0304)
 -->
<!-- Title: GenerateFormattedWordDocument Pages: 1 -->
<svg width="325pt" height="764pt"
 viewBox="0.00 0.00 325.03 764.00" xmlns="http://www.w3.org/2000/svg" xmlns:xlink="http://www.w3.org/1999/xlink">
<g id="graph0" class="graph" transform="scale(0.6 0.6) rotate(0) translate(4 760)">
<title>GenerateFormattedWordDocument</title>
<polygon fill="#ffffff" stroke="transparent" points="-4,4 -4,-760 321.0311,-760 321.0311,4 -4,4"/>
<!-- trigger_manual -->
<g id="node1" class="node">
<title>trigger_manual</title>
<ellipse fill="#add8e6" stroke="#000000" cx="158.5156" cy="-738" rx="107.084" ry="18"/>
<text text-anchor="middle" x="158.5156" y="-733.8" font-family="Times,serif" font-size="14.00" fill="#000000">Manual Trigger (Button)</text>
</g>
<!-- action_Compose_Destination_Folder_Path_Input -->
<g id="node2" class="node">
<title>action_Compose_Destination_Folder_Path_Input</title>
<path fill="#add8e6" stroke="#000000" d="M249.3813,-684C249.3813,-684 67.6498,-684 67.6498,-684 61.6498,-684 55.6498,-678 55.6498,-672 55.6498,-672 55.6498,-660 55.6498,-660 55.6498,-654 61.6498,-648 67.6498,-648 67.6498,-648 249.3813,-648 249.3813,-648 255.3813,-648 261.3813,-654 261.3813,-660 261.3813,-660 261.3813,-672 261.3813,-672 261.3813,-678 255.3813,-684 249.3813,-684"/>
<text text-anchor="middle" x="158.5156" y="-661.8" font-family="Times,serif" font-size="14.00" fill="#000000">Compose Destination Folder Path</text>
</g>
<!-- trigger_manual&#45;&gt;action_Compose_Destination_Folder_Path_Input -->
<g id="edge1" class="edge">
<title>trigger_manual&#45;&gt;action_Compose_Destination_Folder_Path_Input</title>
<path fill="none" stroke="#000000" d="M158.5156,-719.8314C158.5156,-712.131 158.5156,-702.9743 158.5156,-694.4166"/>
<polygon fill="#000000" stroke="#000000" points="162.0157,-694.4132 158.5156,-684.4133 155.0157,-694.4133 162.0157,-694.4132"/>
</g>
<!-- action_Compose_Document_File_Name_Input -->
<g id="node3" class="node">
<title>action_Compose_Document_File_Name_Input</title>
<path fill="#add8e6" stroke="#000000" d="M259.475,-612C259.475,-612 57.5562,-612 57.5562,-612 51.5562,-612 45.5562,-606 45.5562,-600 45.5562,-600 45.5562,-588 45.5562,-588 45.5562,-582 51.5562,-576 57.5562,-576 57.5562,-576 259.475,-576 259.475,-576 265.475,-576 271.475,-582 271.475,-588 271.475,-588 271.475,-600 271.475,-600 271.475,-606 265.475,-612 259.475,-612"/>
<text text-anchor="middle" x="158.5156" y="-589.8" font-family="Times,serif" font-size="14.00" fill="#000000">Compose Document File Name Input</text>
</g>
<!-- action_Compose_Destination_Folder_Path_Input&#45;&gt;action_Compose_Document_File_Name_Input -->
<g id="edge2" class="edge">
<title>action_Compose_Destination_Folder_Path_Input&#45;&gt;action_Compose_Document_File_Name_Input</title>
<path fill="none" stroke="#000000" d="M158.5156,-647.8314C158.5156,-640.131 158.5156,-630.9743 158.5156,-622.4166"/>
<polygon fill="#000000" stroke="#000000" points="162.0157,-622.4132 158.5156,-612.4133 155.0157,-622.4133 162.0157,-622.4132"/>
</g>
<!-- action_Compose_Document_File_Name -->
<g id="node4" class="node">
<title>action_Compose_Document_File_Name</title>
<path fill="#add8e6" stroke="#000000" d="M242.9238,-540C242.9238,-540 74.1074,-540 74.1074,-540 68.1074,-540 62.1074,-534 62.1074,-528 62.1074,-528 62.1074,-516 62.1074,-516 62.1074,-510 68.1074,-504 74.1074,-504 74.1074,-504 242.9238,-504 242.9238,-504 248.9238,-504 254.9238,-510 254.9238,-516 254.9238,-516 254.9238,-528 254.9238,-528 254.9238,-534 248.9238,-540 242.9238,-540"/>
<text text-anchor="middle" x="158.5156" y="-517.8" font-family="Times,serif" font-size="14.00" fill="#000000">Compose Document File Name</text>
</g>
<!-- action_Compose_Document_File_Name_Input&#45;&gt;action_Compose_Document_File_Name -->
<g id="edge3" class="edge">
<title>action_Compose_Document_File_Name_Input&#45;&gt;action_Compose_Document_File_Name</title>
<path fill="none" stroke="#000000" d="M158.5156,-575.8314C158.5156,-568.131 158.5156,-558.9743 158.5156,-550.4166"/>
<polygon fill="#000000" stroke="#000000" points="162.0157,-550.4132 158.5156,-540.4133 155.0157,-550.4133 162.0157,-550.4132"/>
</g>
<!-- action_Compose_Document_xml_Content_JSON_Input -->
<g id="node5" class="node">
<title>action_Compose_Document_xml_Content_JSON_Input</title>
<path fill="#add8e6" stroke="#000000" d="M288.1468,-468C288.1468,-468 28.8843,-468 28.8843,-468 22.8843,-468 16.8843,-462 16.8843,-456 16.8843,-456 16.8843,-444 16.8843,-444 16.8843,-438 22.8843,-432 28.8843,-432 28.8843,-432 288.1468,-432 288.1468,-432 294.1468,-432 300.1468,-438 300.1468,-444 300.1468,-444 300.1468,-456 300.1468,-456 300.1468,-462 294.1468,-468 288.1468,-468"/>
<text text-anchor="middle" x="158.5156" y="-445.8" font-family="Times,serif" font-size="14.00" fill="#000000">Compose Document XML Content JSON Input</text>
</g>
<!-- action_Compose_Document_File_Name&#45;&gt;action_Compose_Document_xml_Content_JSON_Input -->
<g id="edge4" class="edge">
<title>action_Compose_Document_File_Name&#45;&gt;action_Compose_Document_xml_Content_JSON_Input</title>
<path fill="none" stroke="#000000" d="M158.5156,-503.8314C158.5156,-496.131 158.5156,-486.9743 158.5156,-478.4166"/>
<polygon fill="#000000" stroke="#000000" points="162.0157,-478.4132 158.5156,-468.4133 155.0157,-478.4133 162.0157,-478.4132"/>
</g>
<!-- action_Parse_JSON_Document_xml_Content_JSON -->
<g id="node6" class="node">
<title>action_Parse_JSON_Document_xml_Content_JSON</title>
<path fill="#add8e6" stroke="#000000" d="M260.0267,-396C260.0267,-396 57.0044,-396 57.0044,-396 51.0044,-396 45.0044,-390 45.0044,-384 45.0044,-384 45.0044,-372 45.0044,-372 45.0044,-366 51.0044,-360 57.0044,-360 57.0044,-360 260.0267,-360 260.0267,-360 266.0267,-360 272.0267,-366 272.0267,-372 272.0267,-372 272.0267,-384 272.0267,-384 272.0267,-390 266.0267,-396 260.0267,-396"/>
<text text-anchor="middle" x="158.5156" y="-373.8" font-family="Times,serif" font-size="14.00" fill="#000000">Parse Document XML Content JSON</text>
</g>
<!-- action_Compose_Document_xml_Content_JSON_Input&#45;&gt;action_Parse_JSON_Document_xml_Content_JSON -->
<g id="edge5" class="edge">
<title>action_Compose_Document_xml_Content_JSON_Input&#45;&gt;action_Parse_JSON_Document_xml_Content_JSON</title>
<path fill="none" stroke="#000000" d="M158.5156,-431.8314C158.5156,-424.131 158.5156,-414.9743 158.5156,-406.4166"/>
<polygon fill="#000000" stroke="#000000" points="162.0157,-406.4132 158.5156,-396.4133 155.0157,-406.4133 162.0157,-406.4132"/>
</g>
<!-- action_Compose_Repeating_Sections_cloud_flows_JSON -->
<g id="node7" class="node">
<title>action_Compose_Repeating_Sections_cloud_flows_JSON</title>
<path fill="#add8e6" stroke="#000000" d="M292.9936,-324C292.9936,-324 24.0376,-324 24.0376,-324 18.0376,-324 12.0376,-318 12.0376,-312 12.0376,-312 12.0376,-300 12.0376,-300 12.0376,-294 18.0376,-288 24.0376,-288 24.0376,-288 292.9936,-288 292.9936,-288 298.9936,-288 304.9936,-294 304.9936,-300 304.9936,-300 304.9936,-312 304.9936,-312 304.9936,-318 298.9936,-324 292.9936,-324"/>
<text text-anchor="middle" x="158.5156" y="-301.8" font-family="Times,serif" font-size="14.00" fill="#000000">Compose Repeating Sections Cloud Flows JSON</text>
</g>
<!-- action_Parse_JSON_Document_xml_Content_JSON&#45;&gt;action_Compose_Repeating_Sections_cloud_flows_JSON -->
<g id="edge6" class="edge">
<title>action_Parse_JSON_Document_xml_Content_JSON&#45;&gt;action_Compose_Repeating_Sections_cloud_flows_JSON</title>
<path fill="none" stroke="#000000" d="M158.5156,-359.8314C158.5156,-352.131 158.5156,-342.9743 158.5156,-334.4166"/>
<polygon fill="#000000" stroke="#000000" points="162.0157,-334.4132 158.5156,-324.4133 155.0157,-334.4133 162.0157,-334.4132"/>
</g>
<!-- action_Compose_Repeating_Sections_Desktop_flows_JSON -->
<g id="node8" class="node">
<title>action_Compose_Repeating_Sections_Desktop_flows_JSON</title>
<path fill="#add8e6" stroke="#000000" d="M298.9224,-252C298.9224,-252 18.1088,-252 18.1088,-252 12.1088,-252 6.1088,-246 6.1088,-240 6.1088,-240 6.1088,-228 6.1088,-228 6.1088,-222 12.1088,-216 18.1088,-216 18.1088,-216 298.9224,-216 298.9224,-216 304.9224,-216 310.9224,-222 310.9224,-228 310.9224,-228 310.9224,-240 310.9224,-240 310.9224,-246 304.9224,-252 298.9224,-252"/>
<text text-anchor="middle" x="158.5156" y="-229.8" font-family="Times,serif" font-size="14.00" fill="#000000">Compose Repeating Sections Desktop Flows JSON</text>
</g>
<!-- action_Compose_Repeating_Sections_cloud_flows_JSON&#45;&gt;action_Compose_Repeating_Sections_Desktop_flows_JSON -->
<g id="edge7" class="edge">
<title>action_Compose_Repeating_Sections_cloud_flows_JSON&#45;&gt;action_Compose_Repeating_Sections_Desktop_flows_JSON</title>
<path fill="none" stroke="#000000" d="M158.5156,-287.8314C158.5156,-280.131 158.5156,-270.9743 158.5156,-262.4166"/>
<polygon fill="#000000" stroke="#000000" points="162.0157,-262.4132 158.5156,-252.4133 155.0157,-262.4133 162.0157,-262.4132"/>
</g>
<!-- action_Populate_a_Microsoft_Word_template -->
<g id="node9" class="node">
<title>action_Populate_a_Microsoft_Word_template</title>
<path fill="#add8e6" stroke="#000000" d="M305.0467,-180C305.0467,-180 76.8591,-180 76.8591,-180 70.8591,-180 59.6128,-177.0887 54.3664,-174.1774 54.3664,-174.1774 10.4772,-149.8226 10.4772,-149.8226 5.2308,-146.9113 5.9844,-144 11.9844,-144 11.9844,-144 240.172,-144 240.172,-144 246.172,-144 257.4184,-146.9113 262.6647,-149.8226 262.6647,-149.8226 306.554,-174.1774 306.554,-174.1774 311.8004,-177.0887 311.0467,-180 305.0467,-180"/>
<text text-anchor="middle" x="158.5156" y="-157.8" font-family="Times,serif" font-size="14.00" fill="#000000">Populate Word Template</text>
</g>
<!-- action_Compose_Repeating_Sections_Desktop_flows_JSON&#45;&gt;action_Populate_a_Microsoft_Word_template -->
<g id="edge8" class="edge">
<title>action_Compose_Repeating_Sections_Desktop_flows_JSON&#45;&gt;action_Populate_a_Microsoft_Word_template</title>
<path fill="none" stroke="#000000" d="M158.5156,-215.8314C158.5156,-208.131 158.5156,-198.9743 158.5156,-190.4166"/>
<polygon fill="#000000" stroke="#000000" points="162.0157,-190.4132 158.5156,-180.4133 155.0157,-190.4133 162.0157,-190.4132"/>
</g>
<!-- action_Create_file -->
<g id="node10" class="node">
<title>action_Create_file</title>
<path fill="#add8e6" stroke="#000000" d="M300.103,-108C300.103,-108 79.7798,-108 79.7798,-108 73.7798,-108 62.5733,-105.0179 57.3669,-102.0357 57.3669,-102.0357 15.341,-77.9643 15.341,-77.9643 10.1346,-74.9821 10.9281,-72 16.9281,-72 16.9281,-72 237.2514,-72 237.2514,-72 243.2514,-72 254.4578,-74.9821 259.6642,-77.9643 259.6642,-77.9643 301.6901,-102.0357 301.6901,-102.0357 306.8966,-105.0179 306.103,-108 300.103,-108"/>
<text text-anchor="middle" x="158.5156" y="-85.8" font-family="Times,serif" font-size="14.00" fill="#000000">Create File (SharePoint)</text>
</g>
<!-- action_Populate_a_Microsoft_Word_template&#45;&gt;action_Create_file -->
<g id="edge9" class="edge">
<title>action_Populate_a_Microsoft_Word_template&#45;&gt;action_Create_file</title>
<path fill="none" stroke="#000000" d="M158.5156,-143.8314C158.5156,-136.131 158.5156,-126.9743 158.5156,-118.4166"/>
<polygon fill="#000000" stroke="#000000" points="162.0157,-118.4132 158.5156,-108.4133 155.0157,-118.4133 162.0157,-118.4132"/>
</g>
<!-- action_Respond_to_a_Power_App_or_flow -->
<g id="node11" class="node">
<title>action_Respond_to_a_Power_App_or_flow</title>
<ellipse fill="#add8e6" stroke="#000000" cx="158.5156" cy="-18" rx="133.7185" ry="18"/>
<text text-anchor="middle" x="158.5156" y="-13.8" font-family="Times,serif" font-size="14.00" fill="#000000">Respond to Power App or Flow</text>
</g>
<!-- action_Create_file&#45;&gt;action_Respond_to_a_Power_App_or_flow -->
<g id="edge10" class="edge">
<title>action_Create_file&#45;&gt;action_Respond_to_a_Power_App_or_flow</title>
<path fill="none" stroke="#000000" d="M158.5156,-71.8314C158.5156,-64.131 158.5156,-54.9743 158.5156,-46.4166"/>
<polygon fill="#000000" stroke="#000000" points="162.0157,-46.4132 158.5156,-36.4133 155.0157,-46.4133 162.0157,-46.4132"/>
</g>
</g>
</svg>
