<?xml version="1.0" encoding="UTF-8" standalone="no"?>
<!DOCTYPE svg PUBLIC "-//W3C//DTD SVG 1.1//EN"
 "http://www.w3.org/Graphics/SVG/1.1/DTD/svg11.dtd">
<!-- Generated by graphviz version 2.40.1 (20161225.0304)
 -->
<!-- Title: ProcessIndividualDesktopFlow Pages: 1 -->
<svg width="2186pt" height="1901pt"
 viewBox="0.00 0.00 2186.46 1901.00" xmlns="http://www.w3.org/2000/svg" xmlns:xlink="http://www.w3.org/1999/xlink">
<g id="graph0" class="graph" transform="scale(0.6 0.6) rotate(0) translate(4 1897)">
<title>ProcessIndividualDesktopFlow</title>
<polygon fill="#ffffff" stroke="transparent" points="-4,4 -4,-1897 2182.4557,-1897 2182.4557,4 -4,4"/>
<g id="clust1" class="cluster">
<title>cluster_Scope_Generate_Documentation_for_Individual_Flow</title>
<polygon fill="#d3d3d3" stroke="#000000" points="658.4557,-8 658.4557,-1885 2170.4557,-1885 2170.4557,-8 658.4557,-8"/>
<text text-anchor="middle" x="1414.4557" y="-1868.4" font-family="Times,serif" font-size="14.00" fill="#000000">Scope &#45; Generate Documentation for Individual Flow</text>
</g>
<g id="clust2" class="cluster">
<title>cluster_Scope_Check_if_SVG_file_has_been_created</title>
<polygon fill="#d3d3d3" stroke="#000000" points="1490.4557,-726 1490.4557,-1852.2 2162.4557,-1852.2 2162.4557,-726 1490.4557,-726"/>
<text text-anchor="middle" x="1826.4557" y="-1835.6" font-family="Times,serif" font-size="14.00" fill="#000000">Scope &#45; Check if SVG file has been created</text>
</g>
<g id="clust3" class="cluster">
<title>cluster_Scope_Convert_lists_to_bullet_points</title>
<polygon fill="#d3d3d3" stroke="#000000" points="1224.4557,-16 1224.4557,-1852.2 1482.4557,-1852.2 1482.4557,-16 1224.4557,-16"/>
<text text-anchor="middle" x="1353.4557" y="-1835.6" font-family="Times,serif" font-size="14.00" fill="#000000">Scope &#45; Convert lists to bullet points</text>
</g>
<!-- start -->
<g id="node1" class="node">
<title>start</title>
<ellipse fill="#add8e6" stroke="#000000" cx="288.4557" cy="-1801.4" rx="71.8105" ry="18"/>
<text text-anchor="middle" x="288.4557" y="-1797.2" font-family="Times,serif" font-size="14.00" fill="#000000">Manual Trigger</text>
</g>
<!-- scope_gen_doc_node -->
<g id="node2" class="node">
<title>scope_gen_doc_node</title>
<path fill="#add8e6" stroke="#000000" d="M480.949,-1746.4C480.949,-1746.4 179.6459,-1746.4 179.6459,-1746.4 173.6459,-1746.4 162.1343,-1744.0289 156.6227,-1741.6579 156.6227,-1741.6579 94.9856,-1715.1421 94.9856,-1715.1421 89.474,-1712.7711 89.9624,-1710.4 95.9624,-1710.4 95.9624,-1710.4 397.2655,-1710.4 397.2655,-1710.4 403.2655,-1710.4 414.7771,-1712.7711 420.2888,-1715.1421 420.2888,-1715.1421 481.9258,-1741.6579 481.9258,-1741.6579 487.4374,-1744.0289 486.949,-1746.4 480.949,-1746.4"/>
<text text-anchor="middle" x="288.4557" y="-1724.2" font-family="Times,serif" font-size="14.00" fill="#000000">Scope &#45; Generate Documentation</text>
</g>
<!-- start&#45;&gt;scope_gen_doc_node -->
<g id="edge1" class="edge">
<title>start&#45;&gt;scope_gen_doc_node</title>
<path fill="none" stroke="#000000" d="M288.4557,-1783.3551C288.4557,-1775.2828 288.4557,-1765.5764 288.4557,-1756.5817"/>
<polygon fill="#000000" stroke="#000000" points="291.9558,-1756.4903 288.4557,-1746.4904 284.9558,-1756.4904 291.9558,-1756.4903"/>
</g>
<!-- respond_node -->
<g id="node3" class="node">
<title>respond_node</title>
<ellipse fill="#add8e6" stroke="#000000" cx="131.4557" cy="-1639.6" rx="131.4114" ry="18"/>
<text text-anchor="middle" x="131.4557" y="-1635.4" font-family="Times,serif" font-size="14.00" fill="#000000">Respond to Power App or flow</text>
</g>
<!-- scope_gen_doc_node&#45;&gt;respond_node -->
<g id="edge2" class="edge">
<title>scope_gen_doc_node&#45;&gt;respond_node</title>
<path fill="none" stroke="#000000" stroke-dasharray="1,5" d="M256.3056,-1710.2157C231.7491,-1696.3264 197.7648,-1677.1047 171.4521,-1662.2221"/>
<polygon fill="#000000" stroke="#000000" points="172.9202,-1659.0315 162.4929,-1657.1548 169.474,-1665.1244 172.9202,-1659.0315"/>
<text text-anchor="middle" x="334.0967" y="-1679.8" font-family="Times,serif" font-size="14.00" fill="#000000">Succeeded, Skipped, Failed, TimedOut</text>
</g>
<!-- cluster_Scope_Generate_Documentation_for_Individual_Flow -->
<g id="node33" class="node">
<title>cluster_Scope_Generate_Documentation_for_Individual_Flow</title>
<path fill="#add8e6" stroke="#000000" d="M637.9601,-1657.6C637.9601,-1657.6 292.9513,-1657.6 292.9513,-1657.6 286.9513,-1657.6 280.9513,-1651.6 280.9513,-1645.6 280.9513,-1645.6 280.9513,-1633.6 280.9513,-1633.6 280.9513,-1627.6 286.9513,-1621.6 292.9513,-1621.6 292.9513,-1621.6 637.9601,-1621.6 637.9601,-1621.6 643.9601,-1621.6 649.9601,-1627.6 649.9601,-1633.6 649.9601,-1633.6 649.9601,-1645.6 649.9601,-1645.6 649.9601,-1651.6 643.9601,-1657.6 637.9601,-1657.6"/>
<text text-anchor="middle" x="465.4557" y="-1635.4" font-family="Times,serif" font-size="14.00" fill="#000000">cluster_Scope_Generate_Documentation_for_Individual_Flow</text>
</g>
<!-- scope_gen_doc_node&#45;&gt;cluster_Scope_Generate_Documentation_for_Individual_Flow -->
<g id="edge29" class="edge">
<title>scope_gen_doc_node&#45;&gt;cluster_Scope_Generate_Documentation_for_Individual_Flow</title>
<path fill="none" stroke="#000000" stroke-dasharray="1,5" d="M403.4732,-1710.3032C423.0989,-1705.3649 439.6693,-1699.4026 447.4557,-1692.4 457.249,-1683.5925 461.717,-1669.2414 463.7539,-1657.7225"/>
</g>
<!-- compose_input_data -->
<g id="node4" class="node">
<title>compose_input_data</title>
<path fill="#add8e6" stroke="#000000" d="M1014.7604,-1819.4C1014.7604,-1819.4 866.151,-1819.4 866.151,-1819.4 860.151,-1819.4 854.151,-1813.4 854.151,-1807.4 854.151,-1807.4 854.151,-1795.4 854.151,-1795.4 854.151,-1789.4 860.151,-1783.4 866.151,-1783.4 866.151,-1783.4 1014.7604,-1783.4 1014.7604,-1783.4 1020.7604,-1783.4 1026.7604,-1789.4 1026.7604,-1795.4 1026.7604,-1795.4 1026.7604,-1807.4 1026.7604,-1807.4 1026.7604,-1813.4 1020.7604,-1819.4 1014.7604,-1819.4"/>
<text text-anchor="middle" x="940.4557" y="-1797.2" font-family="Times,serif" font-size="14.00" fill="#000000">Compose &#45; Flow Input Data</text>
</g>
<!-- compose_id_list -->
<g id="node5" class="node">
<title>compose_id_list</title>
<path fill="#add8e6" stroke="#000000" d="M1021.3793,-1657.6C1021.3793,-1657.6 859.5321,-1657.6 859.5321,-1657.6 853.5321,-1657.6 847.5321,-1651.6 847.5321,-1645.6 847.5321,-1645.6 847.5321,-1633.6 847.5321,-1633.6 847.5321,-1627.6 853.5321,-1621.6 859.5321,-1621.6 859.5321,-1621.6 1021.3793,-1621.6 1021.3793,-1621.6 1027.3793,-1621.6 1033.3793,-1627.6 1033.3793,-1633.6 1033.3793,-1633.6 1033.3793,-1645.6 1033.3793,-1645.6 1033.3793,-1651.6 1027.3793,-1657.6 1021.3793,-1657.6"/>
<text text-anchor="middle" x="940.4557" y="-1635.4" font-family="Times,serif" font-size="14.00" fill="#000000">Compose &#45; Flow ID List Input</text>
</g>
<!-- compose_input_data&#45;&gt;compose_id_list -->
<g id="edge3" class="edge">
<title>compose_input_data&#45;&gt;compose_id_list</title>
<path fill="none" stroke="#000000" d="M940.4557,-1783.154C940.4557,-1755.2351 940.4557,-1701.6651 940.4557,-1668.4464"/>
<polygon fill="#000000" stroke="#000000" points="943.9558,-1668.0275 940.4557,-1658.0276 936.9558,-1668.0276 943.9558,-1668.0275"/>
<text text-anchor="middle" x="970.3835" y="-1724.2" font-family="Times,serif" font-size="14.00" fill="#000000">Succeeded</text>
</g>
<!-- compose_name_input -->
<g id="node6" class="node">
<title>compose_name_input</title>
<path fill="#add8e6" stroke="#000000" d="M1018.2604,-1530.8C1018.2604,-1530.8 862.6511,-1530.8 862.6511,-1530.8 856.6511,-1530.8 850.6511,-1524.8 850.6511,-1518.8 850.6511,-1518.8 850.6511,-1506.8 850.6511,-1506.8 850.6511,-1500.8 856.6511,-1494.8 862.6511,-1494.8 862.6511,-1494.8 1018.2604,-1494.8 1018.2604,-1494.8 1024.2604,-1494.8 1030.2604,-1500.8 1030.2604,-1506.8 1030.2604,-1506.8 1030.2604,-1518.8 1030.2604,-1518.8 1030.2604,-1524.8 1024.2604,-1530.8 1018.2604,-1530.8"/>
<text text-anchor="middle" x="940.4557" y="-1508.6" font-family="Times,serif" font-size="14.00" fill="#000000">Compose &#45; Flow Name Input</text>
</g>
<!-- compose_id_list&#45;&gt;compose_name_input -->
<g id="edge4" class="edge">
<title>compose_id_list&#45;&gt;compose_name_input</title>
<path fill="none" stroke="#000000" d="M940.4557,-1621.4327C940.4557,-1600.4352 940.4557,-1565.6261 940.4557,-1541.079"/>
<polygon fill="#000000" stroke="#000000" points="943.9558,-1540.9336 940.4557,-1530.9336 936.9558,-1540.9337 943.9558,-1540.9336"/>
<text text-anchor="middle" x="970.3835" y="-1572" font-family="Times,serif" font-size="14.00" fill="#000000">Succeeded</text>
</g>
<!-- compose_dest_folder -->
<g id="node7" class="node">
<title>compose_dest_folder</title>
<path fill="#add8e6" stroke="#000000" d="M1051.5333,-1404C1051.5333,-1404 829.3781,-1404 829.3781,-1404 823.3781,-1404 817.3781,-1398 817.3781,-1392 817.3781,-1392 817.3781,-1380 817.3781,-1380 817.3781,-1374 823.3781,-1368 829.3781,-1368 829.3781,-1368 1051.5333,-1368 1051.5333,-1368 1057.5333,-1368 1063.5333,-1374 1063.5333,-1380 1063.5333,-1380 1063.5333,-1392 1063.5333,-1392 1063.5333,-1398 1057.5333,-1404 1051.5333,-1404"/>
<text text-anchor="middle" x="940.4557" y="-1381.8" font-family="Times,serif" font-size="14.00" fill="#000000">Compose &#45; Destination Folder Path Input</text>
</g>
<!-- compose_name_input&#45;&gt;compose_dest_folder -->
<g id="edge5" class="edge">
<title>compose_name_input&#45;&gt;compose_dest_folder</title>
<path fill="none" stroke="#000000" d="M940.4557,-1494.6327C940.4557,-1473.6352 940.4557,-1438.8261 940.4557,-1414.279"/>
<polygon fill="#000000" stroke="#000000" points="943.9558,-1414.1336 940.4557,-1404.1336 936.9558,-1414.1337 943.9558,-1414.1336"/>
<text text-anchor="middle" x="970.3835" y="-1445.2" font-family="Times,serif" font-size="14.00" fill="#000000">Succeeded</text>
</g>
<!-- child_retrieve_desktop_flow -->
<g id="node8" class="node">
<title>child_retrieve_desktop_flow</title>
<path fill="#add8e6" stroke="#000000" d="M1201.966,-1277.2C1201.966,-1277.2 790.8724,-1277.2 790.8724,-1277.2 784.8724,-1277.2 773.1605,-1275.3629 767.4487,-1273.5257 767.4487,-1273.5257 678.3691,-1244.8743 678.3691,-1244.8743 672.6573,-1243.0371 672.9455,-1241.2 678.9455,-1241.2 678.9455,-1241.2 1090.0391,-1241.2 1090.0391,-1241.2 1096.0391,-1241.2 1107.7509,-1243.0371 1113.4627,-1244.8743 1113.4627,-1244.8743 1202.5423,-1273.5257 1202.5423,-1273.5257 1208.2541,-1275.3629 1207.966,-1277.2 1201.966,-1277.2"/>
<text text-anchor="middle" x="940.4557" y="-1255" font-family="Times,serif" font-size="14.00" fill="#000000">Run Child Flow &#45; Retrieve Desktop flow info</text>
</g>
<!-- compose_dest_folder&#45;&gt;child_retrieve_desktop_flow -->
<g id="edge6" class="edge">
<title>compose_dest_folder&#45;&gt;child_retrieve_desktop_flow</title>
<path fill="none" stroke="#000000" d="M940.4557,-1367.8327C940.4557,-1346.8352 940.4557,-1312.0261 940.4557,-1287.479"/>
<polygon fill="#000000" stroke="#000000" points="943.9558,-1287.3336 940.4557,-1277.3336 936.9558,-1287.3337 943.9558,-1287.3336"/>
<text text-anchor="middle" x="970.3835" y="-1318.4" font-family="Times,serif" font-size="14.00" fill="#000000">Succeeded</text>
</g>
<!-- compose_ai_prompt_text -->
<g id="node9" class="node">
<title>compose_ai_prompt_text</title>
<path fill="#add8e6" stroke="#000000" d="M1094.9218,-1150.4C1094.9218,-1150.4 785.9896,-1150.4 785.9896,-1150.4 779.9896,-1150.4 773.9896,-1144.4 773.9896,-1138.4 773.9896,-1138.4 773.9896,-1126.4 773.9896,-1126.4 773.9896,-1120.4 779.9896,-1114.4 785.9896,-1114.4 785.9896,-1114.4 1094.9218,-1114.4 1094.9218,-1114.4 1100.9218,-1114.4 1106.9218,-1120.4 1106.9218,-1126.4 1106.9218,-1126.4 1106.9218,-1138.4 1106.9218,-1138.4 1106.9218,-1144.4 1100.9218,-1150.4 1094.9218,-1150.4"/>
<text text-anchor="middle" x="940.4557" y="-1128.2" font-family="Times,serif" font-size="14.00" fill="#000000">Compose &#45; AI Prompt &#45; Generate Flow Text Description</text>
</g>
<!-- child_retrieve_desktop_flow&#45;&gt;compose_ai_prompt_text -->
<g id="edge7" class="edge">
<title>child_retrieve_desktop_flow&#45;&gt;compose_ai_prompt_text</title>
<path fill="none" stroke="#000000" d="M940.4557,-1241.0327C940.4557,-1220.0352 940.4557,-1185.2261 940.4557,-1160.679"/>
<polygon fill="#000000" stroke="#000000" points="943.9558,-1160.5336 940.4557,-1150.5336 936.9558,-1160.5337 943.9558,-1160.5336"/>
<text text-anchor="middle" x="970.3835" y="-1191.6" font-family="Times,serif" font-size="14.00" fill="#000000">Succeeded</text>
</g>
<!-- child_ai_text_gen -->
<g id="node10" class="node">
<title>child_ai_text_gen</title>
<path fill="#add8e6" stroke="#000000" d="M1158.6449,-1023.6C1158.6449,-1023.6 816.4654,-1023.6 816.4654,-1023.6 810.4654,-1023.6 798.8608,-1021.4581 793.2561,-1019.3161 793.2561,-1019.3161 721.4758,-991.8839 721.4758,-991.8839 715.8712,-989.7419 716.2665,-987.6 722.2665,-987.6 722.2665,-987.6 1064.446,-987.6 1064.446,-987.6 1070.446,-987.6 1082.0507,-989.7419 1087.6553,-991.8839 1087.6553,-991.8839 1159.4356,-1019.3161 1159.4356,-1019.3161 1165.0402,-1021.4581 1164.6449,-1023.6 1158.6449,-1023.6"/>
<text text-anchor="middle" x="940.4557" y="-1001.4" font-family="Times,serif" font-size="14.00" fill="#000000">Run Child Flow &#45; AI Text Generation</text>
</g>
<!-- compose_ai_prompt_text&#45;&gt;child_ai_text_gen -->
<g id="edge8" class="edge">
<title>compose_ai_prompt_text&#45;&gt;child_ai_text_gen</title>
<path fill="none" stroke="#000000" d="M940.4557,-1114.2327C940.4557,-1093.2352 940.4557,-1058.4261 940.4557,-1033.879"/>
<polygon fill="#000000" stroke="#000000" points="943.9558,-1033.7336 940.4557,-1023.7336 936.9558,-1033.7337 943.9558,-1033.7336"/>
<text text-anchor="middle" x="970.3835" y="-1064.8" font-family="Times,serif" font-size="14.00" fill="#000000">Succeeded</text>
</g>
<!-- scope_check_svg_node -->
<g id="node11" class="node">
<title>scope_check_svg_node</title>
<path fill="#add8e6" stroke="#000000" d="M1190.5228,-896.8C1190.5228,-896.8 797.6327,-896.8 797.6327,-896.8 791.6327,-896.8 779.9446,-894.8906 774.2565,-892.9812 774.2565,-892.9812 689.7648,-864.6188 689.7648,-864.6188 684.0767,-862.7094 684.3886,-860.8 690.3886,-860.8 690.3886,-860.8 1083.2787,-860.8 1083.2787,-860.8 1089.2787,-860.8 1100.9668,-862.7094 1106.6549,-864.6188 1106.6549,-864.6188 1191.1467,-892.9812 1191.1467,-892.9812 1196.8347,-894.8906 1196.5228,-896.8 1190.5228,-896.8"/>
<text text-anchor="middle" x="940.4557" y="-874.6" font-family="Times,serif" font-size="14.00" fill="#000000">Scope &#45; Check if SVG file has been created</text>
</g>
<!-- child_ai_text_gen&#45;&gt;scope_check_svg_node -->
<g id="edge9" class="edge">
<title>child_ai_text_gen&#45;&gt;scope_check_svg_node</title>
<path fill="none" stroke="#000000" d="M940.4557,-987.4327C940.4557,-966.4352 940.4557,-931.6261 940.4557,-907.079"/>
<polygon fill="#000000" stroke="#000000" points="943.9558,-906.9336 940.4557,-896.9336 936.9558,-906.9337 943.9558,-906.9336"/>
<text text-anchor="middle" x="970.3835" y="-938" font-family="Times,serif" font-size="14.00" fill="#000000">Succeeded</text>
</g>
<!-- compose_svg_link -->
<g id="node12" class="node">
<title>compose_svg_link</title>
<path fill="#add8e6" stroke="#000000" d="M866.9426,-770C866.9426,-770 751.9689,-770 751.9689,-770 745.9689,-770 739.9689,-764 739.9689,-758 739.9689,-758 739.9689,-746 739.9689,-746 739.9689,-740 745.9689,-734 751.9689,-734 751.9689,-734 866.9426,-734 866.9426,-734 872.9426,-734 878.9426,-740 878.9426,-746 878.9426,-746 878.9426,-758 878.9426,-758 878.9426,-764 872.9426,-770 866.9426,-770"/>
<text text-anchor="middle" x="809.4557" y="-747.8" font-family="Times,serif" font-size="14.00" fill="#000000">Compose &#45; SVG Link</text>
</g>
<!-- scope_check_svg_node&#45;&gt;compose_svg_link -->
<g id="edge10" class="edge">
<title>scope_check_svg_node&#45;&gt;compose_svg_link</title>
<path fill="none" stroke="#000000" stroke-dasharray="1,5" d="M859.7143,-860.783C840.7662,-852.6426 822.7475,-840.8544 811.1737,-823.8 802.6929,-811.3031 801.8527,-794.5583 803.3216,-780.383"/>
<polygon fill="#000000" stroke="#000000" points="806.8331,-780.556 804.8066,-770.1568 799.9058,-779.55 806.8331,-780.556"/>
<text text-anchor="middle" x="920.0967" y="-811.2" font-family="Times,serif" font-size="14.00" fill="#000000">Succeeded, Failed, TimedOut, Skipped</text>
</g>
<!-- cluster_Scope_Check_if_SVG_file_has_been_created -->
<g id="node31" class="node">
<title>cluster_Scope_Check_if_SVG_file_has_been_created</title>
<path fill="#add8e6" stroke="#000000" d="M1204.4503,-770C1204.4503,-770 908.4611,-770 908.4611,-770 902.4611,-770 896.4611,-764 896.4611,-758 896.4611,-758 896.4611,-746 896.4611,-746 896.4611,-740 902.4611,-734 908.4611,-734 908.4611,-734 1204.4503,-734 1204.4503,-734 1210.4503,-734 1216.4503,-740 1216.4503,-746 1216.4503,-746 1216.4503,-758 1216.4503,-758 1216.4503,-764 1210.4503,-770 1204.4503,-770"/>
<text text-anchor="middle" x="1056.4557" y="-747.8" font-family="Times,serif" font-size="14.00" fill="#000000">cluster_Scope_Check_if_SVG_file_has_been_created</text>
</g>
<!-- scope_check_svg_node&#45;&gt;cluster_Scope_Check_if_SVG_file_has_been_created -->
<g id="edge27" class="edge">
<title>scope_check_svg_node&#45;&gt;cluster_Scope_Check_if_SVG_file_has_been_created</title>
<path fill="none" stroke="#000000" stroke-dasharray="1,5" d="M986.1608,-860.7171C1003.4214,-851.877 1021.9025,-839.6657 1034.4557,-823.8 1046.7517,-808.2594 1052.2021,-785.861 1054.6012,-770.227"/>
</g>
<!-- compose_check_link_empty -->
<g id="node13" class="node">
<title>compose_check_link_empty</title>
<path fill="#add8e6" stroke="#000000" d="M944.0942,-643.2C944.0942,-643.2 758.8172,-643.2 758.8172,-643.2 752.8172,-643.2 746.8172,-637.2 746.8172,-631.2 746.8172,-631.2 746.8172,-619.2 746.8172,-619.2 746.8172,-613.2 752.8172,-607.2 758.8172,-607.2 758.8172,-607.2 944.0942,-607.2 944.0942,-607.2 950.0942,-607.2 956.0942,-613.2 956.0942,-619.2 956.0942,-619.2 956.0942,-631.2 956.0942,-631.2 956.0942,-637.2 950.0942,-643.2 944.0942,-643.2"/>
<text text-anchor="middle" x="851.4557" y="-621" font-family="Times,serif" font-size="14.00" fill="#000000">Compose &#45; Check if Link is empty</text>
</g>
<!-- compose_svg_link&#45;&gt;compose_check_link_empty -->
<g id="edge11" class="edge">
<title>compose_svg_link&#45;&gt;compose_check_link_empty</title>
<path fill="none" stroke="#000000" d="M815.4733,-733.8327C822.4595,-712.7411 834.0616,-677.7136 842.198,-653.1494"/>
<polygon fill="#000000" stroke="#000000" points="845.6274,-653.927 845.4493,-643.3336 838.9824,-651.7259 845.6274,-653.927"/>
<text text-anchor="middle" x="862.3835" y="-684.4" font-family="Times,serif" font-size="14.00" fill="#000000">Succeeded</text>
</g>
<!-- parse_json -->
<g id="node14" class="node">
<title>parse_json</title>
<path fill="#add8e6" stroke="#000000" d="M975.1411,-516.4C975.1411,-516.4 777.7703,-516.4 777.7703,-516.4 771.7703,-516.4 765.7703,-510.4 765.7703,-504.4 765.7703,-504.4 765.7703,-492.4 765.7703,-492.4 765.7703,-486.4 771.7703,-480.4 777.7703,-480.4 777.7703,-480.4 975.1411,-480.4 975.1411,-480.4 981.1411,-480.4 987.1411,-486.4 987.1411,-492.4 987.1411,-492.4 987.1411,-504.4 987.1411,-504.4 987.1411,-510.4 981.1411,-516.4 975.1411,-516.4"/>
<text text-anchor="middle" x="876.4557" y="-494.2" font-family="Times,serif" font-size="14.00" fill="#000000">Parse JSON &#45; Individual Flow JSON</text>
</g>
<!-- compose_check_link_empty&#45;&gt;parse_json -->
<g id="edge12" class="edge">
<title>compose_check_link_empty&#45;&gt;parse_json</title>
<path fill="none" stroke="#000000" d="M855.0376,-607.0327C859.196,-585.9411 866.1021,-550.9136 870.9452,-526.3494"/>
<polygon fill="#000000" stroke="#000000" points="874.3799,-527.0218 872.8805,-516.5336 867.5121,-525.6677 874.3799,-527.0218"/>
<text text-anchor="middle" x="894.3835" y="-557.6" font-family="Times,serif" font-size="14.00" fill="#000000">Succeeded</text>
</g>
<!-- scope_convert_lists_node -->
<g id="node15" class="node">
<title>scope_convert_lists_node</title>
<path fill="#add8e6" stroke="#000000" d="M1100.5398,-389.6C1100.5398,-389.6 769.663,-389.6 769.663,-389.6 763.663,-389.6 752.0813,-387.3989 746.4996,-385.1978 746.4996,-385.1978 677.535,-358.0022 677.535,-358.0022 671.9534,-355.8011 672.3717,-353.6 678.3717,-353.6 678.3717,-353.6 1009.2485,-353.6 1009.2485,-353.6 1015.2485,-353.6 1026.8301,-355.8011 1032.4118,-358.0022 1032.4118,-358.0022 1101.3764,-385.1978 1101.3764,-385.1978 1106.9581,-387.3989 1106.5398,-389.6 1100.5398,-389.6"/>
<text text-anchor="middle" x="889.4557" y="-367.4" font-family="Times,serif" font-size="14.00" fill="#000000">Scope &#45; Convert lists to bullet points</text>
</g>
<!-- parse_json&#45;&gt;scope_convert_lists_node -->
<g id="edge13" class="edge">
<title>parse_json&#45;&gt;scope_convert_lists_node</title>
<path fill="none" stroke="#000000" d="M878.3183,-480.2327C880.471,-459.2352 884.0398,-424.4261 886.5564,-399.879"/>
<polygon fill="#000000" stroke="#000000" points="890.0584,-400.0385 887.5966,-389.7336 883.0949,-399.3245 890.0584,-400.0385"/>
<text text-anchor="middle" x="913.3835" y="-430.8" font-family="Times,serif" font-size="14.00" fill="#000000">Succeeded</text>
</g>
<!-- compose_flow_json -->
<g id="node16" class="node">
<title>compose_flow_json</title>
<path fill="#add8e6" stroke="#000000" d="M809.6178,-262.8C809.6178,-262.8 697.2936,-262.8 697.2936,-262.8 691.2936,-262.8 685.2936,-256.8 685.2936,-250.8 685.2936,-250.8 685.2936,-238.8 685.2936,-238.8 685.2936,-232.8 691.2936,-226.8 697.2936,-226.8 697.2936,-226.8 809.6178,-226.8 809.6178,-226.8 815.6178,-226.8 821.6178,-232.8 821.6178,-238.8 821.6178,-238.8 821.6178,-250.8 821.6178,-250.8 821.6178,-256.8 815.6178,-262.8 809.6178,-262.8"/>
<text text-anchor="middle" x="753.4557" y="-240.6" font-family="Times,serif" font-size="14.00" fill="#000000">Compose &#45; Flow json</text>
</g>
<!-- scope_convert_lists_node&#45;&gt;compose_flow_json -->
<g id="edge14" class="edge">
<title>scope_convert_lists_node&#45;&gt;compose_flow_json</title>
<path fill="none" stroke="#000000" d="M869.9702,-353.4327C846.4394,-331.4936 806.7364,-294.4764 780.3134,-269.8408"/>
<polygon fill="#000000" stroke="#000000" points="782.606,-267.1931 772.905,-262.9336 777.8324,-272.313 782.606,-267.1931"/>
<text text-anchor="middle" x="857.3835" y="-304" font-family="Times,serif" font-size="14.00" fill="#000000">Succeeded</text>
</g>
<!-- cluster_Scope_Convert_lists_to_bullet_points -->
<g id="node32" class="node">
<title>cluster_Scope_Convert_lists_to_bullet_points</title>
<path fill="#add8e6" stroke="#000000" d="M1101.6494,-262.8C1101.6494,-262.8 851.262,-262.8 851.262,-262.8 845.262,-262.8 839.262,-256.8 839.262,-250.8 839.262,-250.8 839.262,-238.8 839.262,-238.8 839.262,-232.8 845.262,-226.8 851.262,-226.8 851.262,-226.8 1101.6494,-226.8 1101.6494,-226.8 1107.6494,-226.8 1113.6494,-232.8 1113.6494,-238.8 1113.6494,-238.8 1113.6494,-250.8 1113.6494,-250.8 1113.6494,-256.8 1107.6494,-262.8 1101.6494,-262.8"/>
<text text-anchor="middle" x="976.4557" y="-240.6" font-family="Times,serif" font-size="14.00" fill="#000000">cluster_Scope_Convert_lists_to_bullet_points</text>
</g>
<!-- scope_convert_lists_node&#45;&gt;cluster_Scope_Convert_lists_to_bullet_points -->
<g id="edge28" class="edge">
<title>scope_convert_lists_node&#45;&gt;cluster_Scope_Convert_lists_to_bullet_points</title>
<path fill="none" stroke="#000000" stroke-dasharray="1,5" d="M901.9207,-353.4327C918.4594,-329.328 947.4868,-287.0213 964.0139,-262.9336"/>
</g>
<!-- get_metadata -->
<g id="node17" class="node">
<title>get_metadata</title>
<path fill="#add8e6" stroke="#000000" d="M1808.2809,-1819.4C1808.2809,-1819.4 1682.6306,-1819.4 1682.6306,-1819.4 1676.6306,-1819.4 1670.6306,-1813.4 1670.6306,-1807.4 1670.6306,-1807.4 1670.6306,-1795.4 1670.6306,-1795.4 1670.6306,-1789.4 1676.6306,-1783.4 1682.6306,-1783.4 1682.6306,-1783.4 1808.2809,-1783.4 1808.2809,-1783.4 1814.2809,-1783.4 1820.2809,-1789.4 1820.2809,-1795.4 1820.2809,-1795.4 1820.2809,-1807.4 1820.2809,-1807.4 1820.2809,-1813.4 1814.2809,-1819.4 1808.2809,-1819.4"/>
<text text-anchor="middle" x="1745.4557" y="-1797.2" font-family="Times,serif" font-size="14.00" fill="#000000">Get file metadata (path)</text>
</g>
<!-- get_properties -->
<g id="node18" class="node">
<title>get_properties</title>
<path fill="#add8e6" stroke="#000000" d="M1694.7862,-1530.8C1694.7862,-1530.8 1510.1252,-1530.8 1510.1252,-1530.8 1504.1252,-1530.8 1498.1252,-1524.8 1498.1252,-1518.8 1498.1252,-1518.8 1498.1252,-1506.8 1498.1252,-1506.8 1498.1252,-1500.8 1504.1252,-1494.8 1510.1252,-1494.8 1510.1252,-1494.8 1694.7862,-1494.8 1694.7862,-1494.8 1700.7862,-1494.8 1706.7862,-1500.8 1706.7862,-1506.8 1706.7862,-1506.8 1706.7862,-1518.8 1706.7862,-1518.8 1706.7862,-1524.8 1700.7862,-1530.8 1694.7862,-1530.8"/>
<text text-anchor="middle" x="1602.4557" y="-1508.6" font-family="Times,serif" font-size="14.00" fill="#000000">Get file properties (Existing SVG)</text>
</g>
<!-- get_metadata&#45;&gt;get_properties -->
<g id="edge15" class="edge">
<title>get_metadata&#45;&gt;get_properties</title>
<path fill="none" stroke="#000000" d="M1694.0832,-1783.3319C1671.2584,-1771.7209 1649.4557,-1753.9443 1649.4557,-1728.4 1649.4557,-1728.4 1649.4557,-1728.4 1649.4557,-1576.2 1649.4557,-1561.8668 1641.6077,-1548.6612 1632.3256,-1538.0548"/>
<polygon fill="#000000" stroke="#000000" points="1634.844,-1535.6242 1625.405,-1530.8122 1629.783,-1540.4602 1634.844,-1535.6242"/>
<text text-anchor="middle" x="1679.3835" y="-1635.4" font-family="Times,serif" font-size="14.00" fill="#000000">Succeeded</text>
</g>
<!-- compose_ai_prompt_dot -->
<g id="node19" class="node">
<title>compose_ai_prompt_dot</title>
<path fill="#add8e6" stroke="#000000" d="M2040.2484,-1530.8C2040.2484,-1530.8 1736.663,-1530.8 1736.663,-1530.8 1730.663,-1530.8 1724.663,-1524.8 1724.663,-1518.8 1724.663,-1518.8 1724.663,-1506.8 1724.663,-1506.8 1724.663,-1500.8 1730.663,-1494.8 1736.663,-1494.8 1736.663,-1494.8 2040.2484,-1494.8 2040.2484,-1494.8 2046.2484,-1494.8 2052.2484,-1500.8 2052.2484,-1506.8 2052.2484,-1506.8 2052.2484,-1518.8 2052.2484,-1518.8 2052.2484,-1524.8 2046.2484,-1530.8 2040.2484,-1530.8"/>
<text text-anchor="middle" x="1888.4557" y="-1508.6" font-family="Times,serif" font-size="14.00" fill="#000000">Compose &#45; AI Prompt &#45; Generate Flowchart DOT Code</text>
</g>
<!-- get_metadata&#45;&gt;compose_ai_prompt_dot -->
<g id="edge16" class="edge">
<title>get_metadata&#45;&gt;compose_ai_prompt_dot</title>
<path fill="none" stroke="#000000" stroke-dasharray="1,5" d="M1796.0153,-1783.3365C1818.7029,-1771.6902 1840.4557,-1753.88 1840.4557,-1728.4 1840.4557,-1728.4 1840.4557,-1728.4 1840.4557,-1576.2 1840.4557,-1561.869 1848.3479,-1548.7359 1857.7318,-1538.1855"/>
<polygon fill="#000000" stroke="#000000" points="1860.2762,-1540.5894 1864.737,-1530.9794 1855.2569,-1535.7101 1860.2762,-1540.5894"/>
<text text-anchor="middle" x="1857.9522" y="-1635.4" font-family="Times,serif" font-size="14.00" fill="#000000">Failed</text>
</g>
<!-- child_ai_dot_gen -->
<g id="node20" class="node">
<title>child_ai_dot_gen</title>
<path fill="#add8e6" stroke="#000000" d="M2142.1727,-1277.2C2142.1727,-1277.2 1644.8483,-1277.2 1644.8483,-1277.2 1638.8483,-1277.2 1627.0535,-1275.6444 1621.2586,-1274.0889 1621.2586,-1274.0889 1510.3284,-1244.3111 1510.3284,-1244.3111 1504.5336,-1242.7556 1504.7387,-1241.2 1510.7387,-1241.2 1510.7387,-1241.2 2008.0631,-1241.2 2008.0631,-1241.2 2014.0631,-1241.2 2025.8579,-1242.7556 2031.6528,-1244.3111 2031.6528,-1244.3111 2142.583,-1274.0889 2142.583,-1274.0889 2148.3778,-1275.6444 2148.1727,-1277.2 2142.1727,-1277.2"/>
<text text-anchor="middle" x="1826.4557" y="-1255" font-family="Times,serif" font-size="14.00" fill="#000000">Run Child Flow &#45; AI Flowchart DOT Code Generation</text>
</g>
<!-- compose_ai_prompt_dot&#45;&gt;child_ai_dot_gen -->
<g id="edge17" class="edge">
<title>compose_ai_prompt_dot&#45;&gt;child_ai_dot_gen</title>
<path fill="none" stroke="#000000" d="M1874.2259,-1494.7835C1866.0765,-1482.667 1857.4557,-1465.9406 1857.4557,-1449.4 1857.4557,-1449.4 1857.4557,-1449.4 1857.4557,-1322.6 1857.4557,-1309.6777 1852.194,-1296.6419 1846.006,-1285.7795"/>
<polygon fill="#000000" stroke="#000000" points="1848.936,-1283.8633 1840.6855,-1277.2165 1842.9903,-1287.5576 1848.936,-1283.8633"/>
<text text-anchor="middle" x="1887.3835" y="-1381.8" font-family="Times,serif" font-size="14.00" fill="#000000">Succeeded</text>
</g>
<!-- compose_dot_output -->
<g id="node21" class="node">
<title>compose_dot_output</title>
<path fill="#add8e6" stroke="#000000" d="M1934.7947,-1023.6C1934.7947,-1023.6 1718.1167,-1023.6 1718.1167,-1023.6 1712.1167,-1023.6 1706.1167,-1017.6 1706.1167,-1011.6 1706.1167,-1011.6 1706.1167,-999.6 1706.1167,-999.6 1706.1167,-993.6 1712.1167,-987.6 1718.1167,-987.6 1718.1167,-987.6 1934.7947,-987.6 1934.7947,-987.6 1940.7947,-987.6 1946.7947,-993.6 1946.7947,-999.6 1946.7947,-999.6 1946.7947,-1011.6 1946.7947,-1011.6 1946.7947,-1017.6 1940.7947,-1023.6 1934.7947,-1023.6"/>
<text text-anchor="middle" x="1826.4557" y="-1001.4" font-family="Times,serif" font-size="14.00" fill="#000000">Compose &#45; Graphviz DOT Code Output</text>
</g>
<!-- child_ai_dot_gen&#45;&gt;compose_dot_output -->
<g id="edge18" class="edge">
<title>child_ai_dot_gen&#45;&gt;compose_dot_output</title>
<path fill="none" stroke="#000000" d="M1826.4557,-1241.1635C1826.4557,-1228.4761 1826.4557,-1211.0997 1826.4557,-1195.8 1826.4557,-1195.8 1826.4557,-1195.8 1826.4557,-1069 1826.4557,-1057.5253 1826.4557,-1044.8823 1826.4557,-1033.9255"/>
<polygon fill="#000000" stroke="#000000" points="1829.9558,-1033.6364 1826.4557,-1023.6365 1822.9558,-1033.6365 1829.9558,-1033.6364"/>
<text text-anchor="middle" x="1856.3835" y="-1128.2" font-family="Times,serif" font-size="14.00" fill="#000000">Succeeded</text>
</g>
<!-- child_generate_svg -->
<g id="node22" class="node">
<title>child_generate_svg</title>
<path fill="#add8e6" stroke="#000000" d="M2077.6963,-770C2077.6963,-770 1682.9395,-770 1682.9395,-770 1676.9395,-770 1665.2488,-768.0983 1659.5582,-766.1965 1659.5582,-766.1965 1574.5964,-737.8035 1574.5964,-737.8035 1568.9058,-735.9017 1569.2151,-734 1575.2151,-734 1575.2151,-734 1969.972,-734 1969.972,-734 1975.972,-734 1987.6626,-735.9017 1993.3533,-737.8035 1993.3533,-737.8035 2078.315,-766.1965 2078.315,-766.1965 2084.0056,-768.0983 2083.6963,-770 2077.6963,-770"/>
<text text-anchor="middle" x="1826.4557" y="-747.8" font-family="Times,serif" font-size="14.00" fill="#000000">Run Child Flow &#45; Generate Flowchart SVG</text>
</g>
<!-- compose_dot_output&#45;&gt;child_generate_svg -->
<g id="edge19" class="edge">
<title>compose_dot_output&#45;&gt;child_generate_svg</title>
<path fill="none" stroke="#000000" d="M1826.4557,-987.5635C1826.4557,-974.8761 1826.4557,-957.4997 1826.4557,-942.2 1826.4557,-942.2 1826.4557,-942.2 1826.4557,-815.4 1826.4557,-803.9253 1826.4557,-791.2823 1826.4557,-780.3255"/>
<polygon fill="#000000" stroke="#000000" points="1829.9558,-780.0364 1826.4557,-770.0365 1822.9558,-780.0365 1829.9558,-780.0364"/>
<text text-anchor="middle" x="1856.3835" y="-874.6" font-family="Times,serif" font-size="14.00" fill="#000000">Succeeded</text>
</g>
<!-- select_input_vars -->
<g id="node23" class="node">
<title>select_input_vars</title>
<path fill="#add8e6" stroke="#000000" d="M1452.0796,-1819.4C1452.0796,-1819.4 1254.8318,-1819.4 1254.8318,-1819.4 1248.8318,-1819.4 1242.8318,-1813.4 1242.8318,-1807.4 1242.8318,-1807.4 1242.8318,-1795.4 1242.8318,-1795.4 1242.8318,-1789.4 1248.8318,-1783.4 1254.8318,-1783.4 1254.8318,-1783.4 1452.0796,-1783.4 1452.0796,-1783.4 1458.0796,-1783.4 1464.0796,-1789.4 1464.0796,-1795.4 1464.0796,-1795.4 1464.0796,-1807.4 1464.0796,-1807.4 1464.0796,-1813.4 1458.0796,-1819.4 1452.0796,-1819.4"/>
<text text-anchor="middle" x="1353.4557" y="-1797.2" font-family="Times,serif" font-size="14.00" fill="#000000">Select &#45; Create Input variables Array</text>
</g>
<!-- select_output_vars -->
<g id="node24" class="node">
<title>select_output_vars</title>
<path fill="#add8e6" stroke="#000000" d="M1458.5225,-1530.8C1458.5225,-1530.8 1248.3889,-1530.8 1248.3889,-1530.8 1242.3889,-1530.8 1236.3889,-1524.8 1236.3889,-1518.8 1236.3889,-1518.8 1236.3889,-1506.8 1236.3889,-1506.8 1236.3889,-1500.8 1242.3889,-1494.8 1248.3889,-1494.8 1248.3889,-1494.8 1458.5225,-1494.8 1458.5225,-1494.8 1464.5225,-1494.8 1470.5225,-1500.8 1470.5225,-1506.8 1470.5225,-1506.8 1470.5225,-1518.8 1470.5225,-1518.8 1470.5225,-1524.8 1464.5225,-1530.8 1458.5225,-1530.8"/>
<text text-anchor="middle" x="1353.4557" y="-1508.6" font-family="Times,serif" font-size="14.00" fill="#000000">Select &#45; Create Output Variables Array</text>
</g>
<!-- select_input_vars&#45;&gt;select_output_vars -->
<g id="edge20" class="edge">
<title>select_input_vars&#45;&gt;select_output_vars</title>
<path fill="none" stroke="#000000" d="M1353.4557,-1783.0997C1353.4557,-1768.3349 1353.4557,-1747.0302 1353.4557,-1728.4 1353.4557,-1728.4 1353.4557,-1728.4 1353.4557,-1576.2 1353.4557,-1564.7253 1353.4557,-1552.0823 1353.4557,-1541.1255"/>
<polygon fill="#000000" stroke="#000000" points="1356.9558,-1540.8364 1353.4557,-1530.8365 1349.9558,-1540.8365 1356.9558,-1540.8364"/>
<text text-anchor="middle" x="1383.3835" y="-1635.4" font-family="Times,serif" font-size="14.00" fill="#000000">Succeeded</text>
</g>
<!-- select_ext_infra -->
<g id="node25" class="node">
<title>select_ext_infra</title>
<path fill="#add8e6" stroke="#000000" d="M1462.5586,-1277.2C1462.5586,-1277.2 1244.3528,-1277.2 1244.3528,-1277.2 1238.3528,-1277.2 1232.3528,-1271.2 1232.3528,-1265.2 1232.3528,-1265.2 1232.3528,-1253.2 1232.3528,-1253.2 1232.3528,-1247.2 1238.3528,-1241.2 1244.3528,-1241.2 1244.3528,-1241.2 1462.5586,-1241.2 1462.5586,-1241.2 1468.5586,-1241.2 1474.5586,-1247.2 1474.5586,-1253.2 1474.5586,-1253.2 1474.5586,-1265.2 1474.5586,-1265.2 1474.5586,-1271.2 1468.5586,-1277.2 1462.5586,-1277.2"/>
<text text-anchor="middle" x="1353.4557" y="-1255" font-family="Times,serif" font-size="14.00" fill="#000000">Select &#45; Create Ext Infrastructures Array</text>
</g>
<!-- select_output_vars&#45;&gt;select_ext_infra -->
<g id="edge21" class="edge">
<title>select_output_vars&#45;&gt;select_ext_infra</title>
<path fill="none" stroke="#000000" d="M1353.4557,-1494.7635C1353.4557,-1482.0761 1353.4557,-1464.6997 1353.4557,-1449.4 1353.4557,-1449.4 1353.4557,-1449.4 1353.4557,-1322.6 1353.4557,-1311.1253 1353.4557,-1298.4823 1353.4557,-1287.5255"/>
<polygon fill="#000000" stroke="#000000" points="1356.9558,-1287.2364 1353.4557,-1277.2365 1349.9558,-1287.2365 1356.9558,-1287.2364"/>
<text text-anchor="middle" x="1383.3835" y="-1381.8" font-family="Times,serif" font-size="14.00" fill="#000000">Succeeded</text>
</g>
<!-- select_ext_desktop -->
<g id="node26" class="node">
<title>select_ext_desktop</title>
<path fill="#add8e6" stroke="#000000" d="M1445.0978,-1023.6C1445.0978,-1023.6 1261.8136,-1023.6 1261.8136,-1023.6 1255.8136,-1023.6 1249.8136,-1017.6 1249.8136,-1011.6 1249.8136,-1011.6 1249.8136,-999.6 1249.8136,-999.6 1249.8136,-993.6 1255.8136,-987.6 1261.8136,-987.6 1261.8136,-987.6 1445.0978,-987.6 1445.0978,-987.6 1451.0978,-987.6 1457.0978,-993.6 1457.0978,-999.6 1457.0978,-999.6 1457.0978,-1011.6 1457.0978,-1011.6 1457.0978,-1017.6 1451.0978,-1023.6 1445.0978,-1023.6"/>
<text text-anchor="middle" x="1353.4557" y="-1001.4" font-family="Times,serif" font-size="14.00" fill="#000000">Select &#45; Create Ext Desktop Array</text>
</g>
<!-- select_ext_infra&#45;&gt;select_ext_desktop -->
<g id="edge22" class="edge">
<title>select_ext_infra&#45;&gt;select_ext_desktop</title>
<path fill="none" stroke="#000000" d="M1353.4557,-1241.1635C1353.4557,-1228.4761 1353.4557,-1211.0997 1353.4557,-1195.8 1353.4557,-1195.8 1353.4557,-1195.8 1353.4557,-1069 1353.4557,-1057.5253 1353.4557,-1044.8823 1353.4557,-1033.9255"/>
<polygon fill="#000000" stroke="#000000" points="1356.9558,-1033.6364 1353.4557,-1023.6365 1349.9558,-1033.6365 1356.9558,-1033.6364"/>
<text text-anchor="middle" x="1383.3835" y="-1128.2" font-family="Times,serif" font-size="14.00" fill="#000000">Succeeded</text>
</g>
<!-- select_error_handling -->
<g id="node27" class="node">
<title>select_error_handling</title>
<path fill="#add8e6" stroke="#000000" d="M1451.5281,-770C1451.5281,-770 1255.3833,-770 1255.3833,-770 1249.3833,-770 1243.3833,-764 1243.3833,-758 1243.3833,-758 1243.3833,-746 1243.3833,-746 1243.3833,-740 1249.3833,-734 1255.3833,-734 1255.3833,-734 1451.5281,-734 1451.5281,-734 1457.5281,-734 1463.5281,-740 1463.5281,-746 1463.5281,-746 1463.5281,-758 1463.5281,-758 1463.5281,-764 1457.5281,-770 1451.5281,-770"/>
<text text-anchor="middle" x="1353.4557" y="-747.8" font-family="Times,serif" font-size="14.00" fill="#000000">Select &#45; Create Error handling Array</text>
</g>
<!-- select_ext_desktop&#45;&gt;select_error_handling -->
<g id="edge23" class="edge">
<title>select_ext_desktop&#45;&gt;select_error_handling</title>
<path fill="none" stroke="#000000" d="M1353.4557,-987.5635C1353.4557,-974.8761 1353.4557,-957.4997 1353.4557,-942.2 1353.4557,-942.2 1353.4557,-942.2 1353.4557,-815.4 1353.4557,-803.9253 1353.4557,-791.2823 1353.4557,-780.3255"/>
<polygon fill="#000000" stroke="#000000" points="1356.9558,-780.0364 1353.4557,-770.0365 1349.9558,-780.0365 1356.9558,-780.0364"/>
<text text-anchor="middle" x="1383.3835" y="-874.6" font-family="Times,serif" font-size="14.00" fill="#000000">Succeeded</text>
</g>
<!-- select_connection_ref -->
<g id="node28" class="node">
<title>select_connection_ref</title>
<path fill="#add8e6" stroke="#000000" d="M1454.7569,-516.4C1454.7569,-516.4 1252.1545,-516.4 1252.1545,-516.4 1246.1545,-516.4 1240.1545,-510.4 1240.1545,-504.4 1240.1545,-504.4 1240.1545,-492.4 1240.1545,-492.4 1240.1545,-486.4 1246.1545,-480.4 1252.1545,-480.4 1252.1545,-480.4 1454.7569,-480.4 1454.7569,-480.4 1460.7569,-480.4 1466.7569,-486.4 1466.7569,-492.4 1466.7569,-492.4 1466.7569,-504.4 1466.7569,-504.4 1466.7569,-510.4 1460.7569,-516.4 1454.7569,-516.4"/>
<text text-anchor="middle" x="1353.4557" y="-494.2" font-family="Times,serif" font-size="14.00" fill="#000000">Select &#45; Create Connection Ref Array</text>
</g>
<!-- select_error_handling&#45;&gt;select_connection_ref -->
<g id="edge24" class="edge">
<title>select_error_handling&#45;&gt;select_connection_ref</title>
<path fill="none" stroke="#000000" d="M1353.4557,-733.9635C1353.4557,-721.2761 1353.4557,-703.8997 1353.4557,-688.6 1353.4557,-688.6 1353.4557,-688.6 1353.4557,-561.8 1353.4557,-550.3253 1353.4557,-537.6823 1353.4557,-526.7255"/>
<polygon fill="#000000" stroke="#000000" points="1356.9558,-526.4364 1353.4557,-516.4365 1349.9558,-526.4365 1356.9558,-526.4364"/>
<text text-anchor="middle" x="1383.3835" y="-621" font-family="Times,serif" font-size="14.00" fill="#000000">Succeeded</text>
</g>
<!-- select_be -->
<g id="node29" class="node">
<title>select_be</title>
<path fill="#add8e6" stroke="#000000" d="M1419.3871,-262.8C1419.3871,-262.8 1287.5243,-262.8 1287.5243,-262.8 1281.5243,-262.8 1275.5243,-256.8 1275.5243,-250.8 1275.5243,-250.8 1275.5243,-238.8 1275.5243,-238.8 1275.5243,-232.8 1281.5243,-226.8 1287.5243,-226.8 1287.5243,-226.8 1419.3871,-226.8 1419.3871,-226.8 1425.3871,-226.8 1431.3871,-232.8 1431.3871,-238.8 1431.3871,-238.8 1431.3871,-250.8 1431.3871,-250.8 1431.3871,-256.8 1425.3871,-262.8 1419.3871,-262.8"/>
<text text-anchor="middle" x="1353.4557" y="-240.6" font-family="Times,serif" font-size="14.00" fill="#000000">Select &#45; Create BE Array</text>
</g>
<!-- select_connection_ref&#45;&gt;select_be -->
<g id="edge25" class="edge">
<title>select_connection_ref&#45;&gt;select_be</title>
<path fill="none" stroke="#000000" d="M1353.4557,-480.3635C1353.4557,-467.6761 1353.4557,-450.2997 1353.4557,-435 1353.4557,-435 1353.4557,-435 1353.4557,-308.2 1353.4557,-296.7253 1353.4557,-284.0823 1353.4557,-273.1255"/>
<polygon fill="#000000" stroke="#000000" points="1356.9558,-272.8364 1353.4557,-262.8365 1349.9558,-272.8365 1356.9558,-272.8364"/>
<text text-anchor="middle" x="1383.3835" y="-367.4" font-family="Times,serif" font-size="14.00" fill="#000000">Succeeded</text>
</g>
<!-- select_se -->
<g id="node30" class="node">
<title>select_se</title>
<path fill="#add8e6" stroke="#000000" d="M1418.8336,-60C1418.8336,-60 1288.0778,-60 1288.0778,-60 1282.0778,-60 1276.0778,-54 1276.0778,-48 1276.0778,-48 1276.0778,-36 1276.0778,-36 1276.0778,-30 1282.0778,-24 1288.0778,-24 1288.0778,-24 1418.8336,-24 1418.8336,-24 1424.8336,-24 1430.8336,-30 1430.8336,-36 1430.8336,-36 1430.8336,-48 1430.8336,-48 1430.8336,-54 1424.8336,-60 1418.8336,-60"/>
<text text-anchor="middle" x="1353.4557" y="-37.8" font-family="Times,serif" font-size="14.00" fill="#000000">Select &#45; Create SE Array</text>
</g>
<!-- select_be&#45;&gt;select_se -->
<g id="edge26" class="edge">
<title>select_be&#45;&gt;select_se</title>
<path fill="none" stroke="#000000" d="M1353.4557,-226.3C1353.4557,-215.5083 1353.4557,-201.6333 1353.4557,-189.3 1353.4557,-189.3 1353.4557,-189.3 1353.4557,-97.5 1353.4557,-88.7318 1353.4557,-79.1843 1353.4557,-70.5196"/>
<polygon fill="#000000" stroke="#000000" points="1356.9558,-70.5 1353.4557,-60.5 1349.9558,-70.5 1356.9558,-70.5"/>
<text text-anchor="middle" x="1383.3835" y="-139.2" font-family="Times,serif" font-size="14.00" fill="#000000">Succeeded</text>
</g>
</g>
</svg>
