<?xml version="1.0" encoding="UTF-8" standalone="no"?>
<!DOCTYPE svg PUBLIC "-//W3C//DTD SVG 1.1//EN"
 "http://www.w3.org/Graphics/SVG/1.1/DTD/svg11.dtd">
<!-- Generated by graphviz version 2.40.1 (20161225.0304)
 -->
<!-- Title: Retrieve Cloud Flow Details Pages: 1 -->
<svg width="338pt" height="857pt"
 viewBox="0.00 0.00 337.73 856.80" xmlns="http://www.w3.org/2000/svg" xmlns:xlink="http://www.w3.org/1999/xlink">
<g id="graph0" class="graph" transform="scale(0.6 0.6) rotate(0) translate(4 852.8)">
<title>Retrieve Cloud Flow Details</title>
<polygon fill="#ffffff" stroke="transparent" points="-4,4 -4,-852.8 333.7283,-852.8 333.7283,4 -4,4"/>
<g id="clust1" class="cluster">
<title>cluster_scope_extract_format</title>
<polygon fill="#d3d3d3" stroke="#000000" points="8,-8 8,-732.8 223,-732.8 223,-8 8,-8"/>
<text text-anchor="middle" x="115.5" y="-716.2" font-family="Times,serif" font-size="14.00" fill="#000000">Scope: Extract &amp; Format Flow Info</text>
</g>
<!-- trigger_manual -->
<g id="node1" class="node">
<title>trigger_manual</title>
<ellipse fill="#add8e6" stroke="#000000" cx="222" cy="-830.8" rx="71.8105" ry="18"/>
<text text-anchor="middle" x="222" y="-826.6" font-family="Times,serif" font-size="14.00" fill="#000000">Manual Trigger</text>
</g>
<!-- scope_extract_format -->
<g id="node2" class="node">
<title>scope_extract_format</title>
<path fill="#add8e6" stroke="#000000" d="M317.9571,-776.8C317.9571,-776.8 126.0429,-776.8 126.0429,-776.8 120.0429,-776.8 114.0429,-770.8 114.0429,-764.8 114.0429,-764.8 114.0429,-752.8 114.0429,-752.8 114.0429,-746.8 120.0429,-740.8 126.0429,-740.8 126.0429,-740.8 317.9571,-740.8 317.9571,-740.8 323.9571,-740.8 329.9571,-746.8 329.9571,-752.8 329.9571,-752.8 329.9571,-764.8 329.9571,-764.8 329.9571,-770.8 323.9571,-776.8 317.9571,-776.8"/>
<text text-anchor="middle" x="222" y="-754.6" font-family="Times,serif" font-size="14.00" fill="#000000">Scope: Extract &amp; Format Flow Info</text>
</g>
<!-- trigger_manual&#45;&gt;scope_extract_format -->
<g id="edge10" class="edge">
<title>trigger_manual&#45;&gt;scope_extract_format</title>
<path fill="none" stroke="#000000" d="M222,-812.6314C222,-804.931 222,-795.7743 222,-787.2166"/>
<polygon fill="#000000" stroke="#000000" points="225.5001,-787.2132 222,-777.2133 218.5001,-787.2133 225.5001,-787.2132"/>
</g>
<!-- compose_zip_id -->
<g id="node3" class="node">
<title>compose_zip_id</title>
<path fill="#add8e6" stroke="#000000" d="M194.9874,-700C194.9874,-700 105.0126,-700 105.0126,-700 99.0126,-700 93.0126,-694 93.0126,-688 93.0126,-688 93.0126,-676 93.0126,-676 93.0126,-670 99.0126,-664 105.0126,-664 105.0126,-664 194.9874,-664 194.9874,-664 200.9874,-664 206.9874,-670 206.9874,-676 206.9874,-676 206.9874,-688 206.9874,-688 206.9874,-694 200.9874,-700 194.9874,-700"/>
<text text-anchor="middle" x="150" y="-677.8" font-family="Times,serif" font-size="14.00" fill="#000000">Compose: Zip ID</text>
</g>
<!-- scope_extract_format&#45;&gt;compose_zip_id -->
<g id="edge12" class="edge">
<title>scope_extract_format&#45;&gt;compose_zip_id</title>
<path fill="none" stroke="#000000" stroke-dasharray="1,5" d="M204.937,-740.5995C195.7013,-730.7481 184.141,-718.4171 174.0106,-707.6113"/>
<polygon fill="#000000" stroke="#000000" points="176.3333,-704.9715 166.9405,-700.0699 171.2266,-709.7591 176.3333,-704.9715"/>
</g>
<!-- response_powerapp -->
<g id="node13" class="node">
<title>response_powerapp</title>
<ellipse fill="#add8e6" stroke="#000000" cx="279" cy="-682" rx="48.0935" ry="18"/>
<text text-anchor="middle" x="279" y="-677.8" font-family="Times,serif" font-size="14.00" fill="#000000">Response</text>
</g>
<!-- scope_extract_format&#45;&gt;response_powerapp -->
<g id="edge11" class="edge">
<title>scope_extract_format&#45;&gt;response_powerapp</title>
<path fill="none" stroke="#000000" d="M235.5082,-740.5995C242.7817,-730.7993 251.8765,-718.5454 259.8663,-707.7802"/>
<polygon fill="#000000" stroke="#000000" points="262.8318,-709.6572 265.9811,-699.5412 257.2108,-705.4853 262.8318,-709.6572"/>
</g>
<!-- compose_flow_id_list -->
<g id="node4" class="node">
<title>compose_flow_id_list</title>
<path fill="#add8e6" stroke="#000000" d="M201.1029,-628C201.1029,-628 76.8971,-628 76.8971,-628 70.8971,-628 64.8971,-622 64.8971,-616 64.8971,-616 64.8971,-604 64.8971,-604 64.8971,-598 70.8971,-592 76.8971,-592 76.8971,-592 201.1029,-592 201.1029,-592 207.1029,-592 213.1029,-598 213.1029,-604 213.1029,-604 213.1029,-616 213.1029,-616 213.1029,-622 207.1029,-628 201.1029,-628"/>
<text text-anchor="middle" x="139" y="-605.8" font-family="Times,serif" font-size="14.00" fill="#000000">Compose: Flow ID List</text>
</g>
<!-- compose_zip_id&#45;&gt;compose_flow_id_list -->
<g id="edge1" class="edge">
<title>compose_zip_id&#45;&gt;compose_flow_id_list</title>
<path fill="none" stroke="#000000" d="M147.2242,-663.8314C146.0478,-656.131 144.6489,-646.9743 143.3414,-638.4166"/>
<polygon fill="#000000" stroke="#000000" points="146.7833,-637.7699 141.8131,-628.4133 139.8636,-638.8272 146.7833,-637.7699"/>
</g>
<!-- compose_flow_json_path -->
<g id="node5" class="node">
<title>compose_flow_json_path</title>
<path fill="#add8e6" stroke="#000000" d="M189.1052,-556C189.1052,-556 74.8948,-556 74.8948,-556 68.8948,-556 62.8948,-550 62.8948,-544 62.8948,-544 62.8948,-532 62.8948,-532 62.8948,-526 68.8948,-520 74.8948,-520 74.8948,-520 189.1052,-520 189.1052,-520 195.1052,-520 201.1052,-526 201.1052,-532 201.1052,-532 201.1052,-544 201.1052,-544 201.1052,-550 195.1052,-556 189.1052,-556"/>
<text text-anchor="middle" x="132" y="-533.8" font-family="Times,serif" font-size="14.00" fill="#000000">Compose: JSON Path</text>
</g>
<!-- compose_flow_id_list&#45;&gt;compose_flow_json_path -->
<g id="edge2" class="edge">
<title>compose_flow_id_list&#45;&gt;compose_flow_json_path</title>
<path fill="none" stroke="#000000" d="M137.2336,-591.8314C136.485,-584.131 135.5947,-574.9743 134.7627,-566.4166"/>
<polygon fill="#000000" stroke="#000000" points="138.2415,-566.0276 133.7902,-556.4133 131.2744,-566.7051 138.2415,-566.0276"/>
</g>
<!-- compose_flow_name -->
<g id="node6" class="node">
<title>compose_flow_name</title>
<path fill="#add8e6" stroke="#000000" d="M188.9832,-484C188.9832,-484 71.0168,-484 71.0168,-484 65.0168,-484 59.0168,-478 59.0168,-472 59.0168,-472 59.0168,-460 59.0168,-460 59.0168,-454 65.0168,-448 71.0168,-448 71.0168,-448 188.9832,-448 188.9832,-448 194.9832,-448 200.9832,-454 200.9832,-460 200.9832,-460 200.9832,-472 200.9832,-472 200.9832,-478 194.9832,-484 188.9832,-484"/>
<text text-anchor="middle" x="130" y="-461.8" font-family="Times,serif" font-size="14.00" fill="#000000">Compose: Flow Name</text>
</g>
<!-- compose_flow_json_path&#45;&gt;compose_flow_name -->
<g id="edge3" class="edge">
<title>compose_flow_json_path&#45;&gt;compose_flow_name</title>
<path fill="none" stroke="#000000" d="M131.4953,-519.8314C131.2814,-512.131 131.0271,-502.9743 130.7894,-494.4166"/>
<polygon fill="#000000" stroke="#000000" points="134.2879,-494.3122 130.5115,-484.4133 127.2906,-494.5066 134.2879,-494.3122"/>
</g>
<!-- sp_get_zip_content -->
<g id="node7" class="node">
<title>sp_get_zip_content</title>
<path fill="#add8e6" stroke="#000000" d="M202.8143,-412C202.8143,-412 51.1857,-412 51.1857,-412 45.1857,-412 39.1857,-406 39.1857,-400 39.1857,-400 39.1857,-388 39.1857,-388 39.1857,-382 45.1857,-376 51.1857,-376 51.1857,-376 202.8143,-376 202.8143,-376 208.8143,-376 214.8143,-382 214.8143,-388 214.8143,-388 214.8143,-400 214.8143,-400 214.8143,-406 208.8143,-412 202.8143,-412"/>
<text text-anchor="middle" x="127" y="-389.8" font-family="Times,serif" font-size="14.00" fill="#000000">SharePoint: Get Zip Content</text>
</g>
<!-- compose_flow_name&#45;&gt;sp_get_zip_content -->
<g id="edge4" class="edge">
<title>compose_flow_name&#45;&gt;sp_get_zip_content</title>
<path fill="none" stroke="#000000" d="M129.243,-447.8314C128.9221,-440.131 128.5406,-430.9743 128.184,-422.4166"/>
<polygon fill="#000000" stroke="#000000" points="131.6806,-422.2589 127.7672,-412.4133 124.6867,-422.5503 131.6806,-422.2589"/>
</g>
<!-- zip_get_file -->
<g id="node8" class="node">
<title>zip_get_file</title>
<path fill="#add8e6" stroke="#000000" d="M198.6232,-340C198.6232,-340 55.3768,-340 55.3768,-340 49.3768,-340 43.3768,-334 43.3768,-328 43.3768,-328 43.3768,-316 43.3768,-316 43.3768,-310 49.3768,-304 55.3768,-304 55.3768,-304 198.6232,-304 198.6232,-304 204.6232,-304 210.6232,-310 210.6232,-316 210.6232,-316 210.6232,-328 210.6232,-328 210.6232,-334 204.6232,-340 198.6232,-340"/>
<text text-anchor="middle" x="127" y="-317.8" font-family="Times,serif" font-size="14.00" fill="#000000">Zip: Get File from Archive</text>
</g>
<!-- sp_get_zip_content&#45;&gt;zip_get_file -->
<g id="edge5" class="edge">
<title>sp_get_zip_content&#45;&gt;zip_get_file</title>
<path fill="none" stroke="#000000" d="M127,-375.8314C127,-368.131 127,-358.9743 127,-350.4166"/>
<polygon fill="#000000" stroke="#000000" points="130.5001,-350.4132 127,-340.4133 123.5001,-350.4133 130.5001,-350.4132"/>
</g>
<!-- compose_read_json -->
<g id="node9" class="node">
<title>compose_read_json</title>
<path fill="#add8e6" stroke="#000000" d="M185.9832,-268C185.9832,-268 68.0168,-268 68.0168,-268 62.0168,-268 56.0168,-262 56.0168,-256 56.0168,-256 56.0168,-244 56.0168,-244 56.0168,-238 62.0168,-232 68.0168,-232 68.0168,-232 185.9832,-232 185.9832,-232 191.9832,-232 197.9832,-238 197.9832,-244 197.9832,-244 197.9832,-256 197.9832,-256 197.9832,-262 191.9832,-268 185.9832,-268"/>
<text text-anchor="middle" x="127" y="-245.8" font-family="Times,serif" font-size="14.00" fill="#000000">Compose: Read JSON</text>
</g>
<!-- zip_get_file&#45;&gt;compose_read_json -->
<g id="edge6" class="edge">
<title>zip_get_file&#45;&gt;compose_read_json</title>
<path fill="none" stroke="#000000" d="M127,-303.8314C127,-296.131 127,-286.9743 127,-278.4166"/>
<polygon fill="#000000" stroke="#000000" points="130.5001,-278.4132 127,-268.4133 123.5001,-278.4133 130.5001,-278.4132"/>
</g>
<!-- compose_format_info -->
<g id="node10" class="node">
<title>compose_format_info</title>
<path fill="#add8e6" stroke="#000000" d="M186.5379,-196C186.5379,-196 67.4621,-196 67.4621,-196 61.4621,-196 55.4621,-190 55.4621,-184 55.4621,-184 55.4621,-172 55.4621,-172 55.4621,-166 61.4621,-160 67.4621,-160 67.4621,-160 186.5379,-160 186.5379,-160 192.5379,-160 198.5379,-166 198.5379,-172 198.5379,-172 198.5379,-184 198.5379,-184 198.5379,-190 192.5379,-196 186.5379,-196"/>
<text text-anchor="middle" x="127" y="-173.8" font-family="Times,serif" font-size="14.00" fill="#000000">Compose: Format Info</text>
</g>
<!-- compose_read_json&#45;&gt;compose_format_info -->
<g id="edge7" class="edge">
<title>compose_read_json&#45;&gt;compose_format_info</title>
<path fill="none" stroke="#000000" d="M127,-231.8314C127,-224.131 127,-214.9743 127,-206.4166"/>
<polygon fill="#000000" stroke="#000000" points="130.5001,-206.4132 127,-196.4133 123.5001,-206.4133 130.5001,-206.4132"/>
</g>
<!-- zip_replace_ids -->
<g id="node11" class="node">
<title>zip_replace_ids</title>
<path fill="#add8e6" stroke="#000000" d="M170.6318,-124C170.6318,-124 83.3682,-124 83.3682,-124 77.3682,-124 71.3682,-118 71.3682,-112 71.3682,-112 71.3682,-100 71.3682,-100 71.3682,-94 77.3682,-88 83.3682,-88 83.3682,-88 170.6318,-88 170.6318,-88 176.6318,-88 182.6318,-94 182.6318,-100 182.6318,-100 182.6318,-112 182.6318,-112 182.6318,-118 176.6318,-124 170.6318,-124"/>
<text text-anchor="middle" x="127" y="-101.8" font-family="Times,serif" font-size="14.00" fill="#000000">Zip: Replace IDs</text>
</g>
<!-- compose_format_info&#45;&gt;zip_replace_ids -->
<g id="edge8" class="edge">
<title>compose_format_info&#45;&gt;zip_replace_ids</title>
<path fill="none" stroke="#000000" d="M127,-159.8314C127,-152.131 127,-142.9743 127,-134.4166"/>
<polygon fill="#000000" stroke="#000000" points="130.5001,-134.4132 127,-124.4133 123.5001,-134.4133 130.5001,-134.4132"/>
</g>
<!-- compose_final_output -->
<g id="node12" class="node">
<title>compose_final_output</title>
<path fill="#add8e6" stroke="#000000" d="M185.9958,-52C185.9958,-52 68.0042,-52 68.0042,-52 62.0042,-52 56.0042,-46 56.0042,-40 56.0042,-40 56.0042,-28 56.0042,-28 56.0042,-22 62.0042,-16 68.0042,-16 68.0042,-16 185.9958,-16 185.9958,-16 191.9958,-16 197.9958,-22 197.9958,-28 197.9958,-28 197.9958,-40 197.9958,-40 197.9958,-46 191.9958,-52 185.9958,-52"/>
<text text-anchor="middle" x="127" y="-29.8" font-family="Times,serif" font-size="14.00" fill="#000000">Compose: Final JSON</text>
</g>
<!-- zip_replace_ids&#45;&gt;compose_final_output -->
<g id="edge9" class="edge">
<title>zip_replace_ids&#45;&gt;compose_final_output</title>
<path fill="none" stroke="#000000" d="M127,-87.8314C127,-80.131 127,-70.9743 127,-62.4166"/>
<polygon fill="#000000" stroke="#000000" points="130.5001,-62.4132 127,-52.4133 123.5001,-62.4133 130.5001,-62.4132"/>
</g>
</g>
</svg>
