<?xml version="1.0" encoding="UTF-8" standalone="no"?>
<!DOCTYPE svg PUBLIC "-//W3C//DTD SVG 1.1//EN"
 "http://www.w3.org/Graphics/SVG/1.1/DTD/svg11.dtd">
<!-- Generated by graphviz version 2.40.1 (20161225.0304)
 -->
<!-- Title: %0 Pages: 1 -->
<svg width="255pt" height="692pt"
 viewBox="0.00 0.00 254.84 692.00" xmlns="http://www.w3.org/2000/svg" xmlns:xlink="http://www.w3.org/1999/xlink">
<g id="graph0" class="graph" transform="scale(0.6 0.6) rotate(0) translate(4 688)">
<title>%0</title>
<polygon fill="#ffffff" stroke="transparent" points="-4,4 -4,-688 250.8423,-688 250.8423,4 -4,4"/>
<!-- Trigger: Manual -->
<g id="node1" class="node">
<title>Trigger: Manual</title>
<ellipse fill="#add8e6" stroke="#000000" cx="123.4211" cy="-666" rx="74.6778" ry="18"/>
<text text-anchor="middle" x="123.4211" y="-661.8" font-family="Times,serif" font-size="14.00" fill="#000000">Trigger: Manual</text>
</g>
<!-- Get AI API Key (Key Vault) -->
<g id="node2" class="node">
<title>Get AI API Key (Key Vault)</title>
<path fill="#add8e6" stroke="#000000" d="M200.516,-612C200.516,-612 46.3263,-612 46.3263,-612 40.3263,-612 34.3263,-606 34.3263,-600 34.3263,-600 34.3263,-588 34.3263,-588 34.3263,-582 40.3263,-576 46.3263,-576 46.3263,-576 200.516,-576 200.516,-576 206.516,-576 212.516,-582 212.516,-588 212.516,-588 212.516,-600 212.516,-600 212.516,-606 206.516,-612 200.516,-612"/>
<text text-anchor="middle" x="123.4211" y="-589.8" font-family="Times,serif" font-size="14.00" fill="#000000">Get AI API Key (Key Vault)</text>
</g>
<!-- Trigger: Manual&#45;&gt;Get AI API Key (Key Vault) -->
<g id="edge1" class="edge">
<title>Trigger: Manual&#45;&gt;Get AI API Key (Key Vault)</title>
<path fill="none" stroke="#000000" d="M123.4211,-647.8314C123.4211,-640.131 123.4211,-630.9743 123.4211,-622.4166"/>
<polygon fill="#000000" stroke="#000000" points="126.9212,-622.4132 123.4211,-612.4133 119.9212,-622.4133 126.9212,-622.4132"/>
</g>
<!-- Compose: User Prompt -->
<g id="node3" class="node">
<title>Compose: User Prompt</title>
<path fill="#add8e6" stroke="#000000" d="M185.3496,-540C185.3496,-540 61.4927,-540 61.4927,-540 55.4927,-540 49.4927,-534 49.4927,-528 49.4927,-528 49.4927,-516 49.4927,-516 49.4927,-510 55.4927,-504 61.4927,-504 61.4927,-504 185.3496,-504 185.3496,-504 191.3496,-504 197.3496,-510 197.3496,-516 197.3496,-516 197.3496,-528 197.3496,-528 197.3496,-534 191.3496,-540 185.3496,-540"/>
<text text-anchor="middle" x="123.4211" y="-517.8" font-family="Times,serif" font-size="14.00" fill="#000000">Compose: User Prompt</text>
</g>
<!-- Get AI API Key (Key Vault)&#45;&gt;Compose: User Prompt -->
<g id="edge2" class="edge">
<title>Get AI API Key (Key Vault)&#45;&gt;Compose: User Prompt</title>
<path fill="none" stroke="#000000" d="M123.4211,-575.8314C123.4211,-568.131 123.4211,-558.9743 123.4211,-550.4166"/>
<polygon fill="#000000" stroke="#000000" points="126.9212,-550.4132 123.4211,-540.4133 119.9212,-550.4133 126.9212,-550.4132"/>
</g>
<!-- Compose: AI Request Body -->
<g id="node4" class="node">
<title>Compose: AI Request Body</title>
<path fill="#add8e6" stroke="#000000" d="M198.4036,-468C198.4036,-468 48.4387,-468 48.4387,-468 42.4387,-468 36.4387,-462 36.4387,-456 36.4387,-456 36.4387,-444 36.4387,-444 36.4387,-438 42.4387,-432 48.4387,-432 48.4387,-432 198.4036,-432 198.4036,-432 204.4036,-432 210.4036,-438 210.4036,-444 210.4036,-444 210.4036,-456 210.4036,-456 210.4036,-462 204.4036,-468 198.4036,-468"/>
<text text-anchor="middle" x="123.4211" y="-445.8" font-family="Times,serif" font-size="14.00" fill="#000000">Compose: AI Request Body</text>
</g>
<!-- Compose: User Prompt&#45;&gt;Compose: AI Request Body -->
<g id="edge3" class="edge">
<title>Compose: User Prompt&#45;&gt;Compose: AI Request Body</title>
<path fill="none" stroke="#000000" d="M123.4211,-503.8314C123.4211,-496.131 123.4211,-486.9743 123.4211,-478.4166"/>
<polygon fill="#000000" stroke="#000000" points="126.9212,-478.4132 123.4211,-468.4133 119.9212,-478.4133 126.9212,-478.4132"/>
</g>
<!-- HTTP: Call AI Model -->
<g id="node5" class="node">
<title>HTTP: Call AI Model</title>
<path fill="#add8e6" stroke="#000000" d="M181.4555,-396C181.4555,-396 65.3867,-396 65.3867,-396 59.3867,-396 53.3867,-390 53.3867,-384 53.3867,-384 53.3867,-372 53.3867,-372 53.3867,-366 59.3867,-360 65.3867,-360 65.3867,-360 181.4555,-360 181.4555,-360 187.4555,-360 193.4555,-366 193.4555,-372 193.4555,-372 193.4555,-384 193.4555,-384 193.4555,-390 187.4555,-396 181.4555,-396"/>
<text text-anchor="middle" x="123.4211" y="-373.8" font-family="Times,serif" font-size="14.00" fill="#000000">HTTP: Call AI Model</text>
</g>
<!-- Compose: AI Request Body&#45;&gt;HTTP: Call AI Model -->
<g id="edge4" class="edge">
<title>Compose: AI Request Body&#45;&gt;HTTP: Call AI Model</title>
<path fill="none" stroke="#000000" d="M123.4211,-431.8314C123.4211,-424.131 123.4211,-414.9743 123.4211,-406.4166"/>
<polygon fill="#000000" stroke="#000000" points="126.9212,-406.4132 123.4211,-396.4133 119.9212,-406.4133 126.9212,-406.4132"/>
</g>
<!-- Parse JSON: AI Response -->
<g id="node6" class="node">
<title>Parse JSON: AI Response</title>
<path fill="#add8e6" stroke="#000000" d="M192.4919,-324C192.4919,-324 54.3504,-324 54.3504,-324 48.3504,-324 42.3504,-318 42.3504,-312 42.3504,-312 42.3504,-300 42.3504,-300 42.3504,-294 48.3504,-288 54.3504,-288 54.3504,-288 192.4919,-288 192.4919,-288 198.4919,-288 204.4919,-294 204.4919,-300 204.4919,-300 204.4919,-312 204.4919,-312 204.4919,-318 198.4919,-324 192.4919,-324"/>
<text text-anchor="middle" x="123.4211" y="-301.8" font-family="Times,serif" font-size="14.00" fill="#000000">Parse JSON: AI Response</text>
</g>
<!-- HTTP: Call AI Model&#45;&gt;Parse JSON: AI Response -->
<g id="edge5" class="edge">
<title>HTTP: Call AI Model&#45;&gt;Parse JSON: AI Response</title>
<path fill="none" stroke="#000000" d="M123.4211,-359.8314C123.4211,-352.131 123.4211,-342.9743 123.4211,-334.4166"/>
<polygon fill="#000000" stroke="#000000" points="126.9212,-334.4132 123.4211,-324.4133 119.9212,-334.4133 126.9212,-334.4132"/>
</g>
<!-- Compose: Extract AI Answer -->
<g id="node7" class="node">
<title>Compose: Extract AI Answer</title>
<path fill="#add8e6" stroke="#000000" d="M202.4219,-252C202.4219,-252 44.4203,-252 44.4203,-252 38.4203,-252 32.4203,-246 32.4203,-240 32.4203,-240 32.4203,-228 32.4203,-228 32.4203,-222 38.4203,-216 44.4203,-216 44.4203,-216 202.4219,-216 202.4219,-216 208.4219,-216 214.4219,-222 214.4219,-228 214.4219,-228 214.4219,-240 214.4219,-240 214.4219,-246 208.4219,-252 202.4219,-252"/>
<text text-anchor="middle" x="123.4211" y="-229.8" font-family="Times,serif" font-size="14.00" fill="#000000">Compose: Extract AI Answer</text>
</g>
<!-- Parse JSON: AI Response&#45;&gt;Compose: Extract AI Answer -->
<g id="edge6" class="edge">
<title>Parse JSON: AI Response&#45;&gt;Compose: Extract AI Answer</title>
<path fill="none" stroke="#000000" d="M123.4211,-287.8314C123.4211,-280.131 123.4211,-270.9743 123.4211,-262.4166"/>
<polygon fill="#000000" stroke="#000000" points="126.9212,-262.4132 123.4211,-252.4133 119.9212,-262.4133 126.9212,-262.4132"/>
</g>
<!-- Replace Text: Clean AI Output -->
<g id="node8" class="node">
<title>Replace Text: Clean AI Output</title>
<path fill="#add8e6" stroke="#000000" d="M206.8665,-180C206.8665,-180 39.9757,-180 39.9757,-180 33.9757,-180 27.9757,-174 27.9757,-168 27.9757,-168 27.9757,-156 27.9757,-156 27.9757,-150 33.9757,-144 39.9757,-144 39.9757,-144 206.8665,-144 206.8665,-144 212.8665,-144 218.8665,-150 218.8665,-156 218.8665,-156 218.8665,-168 218.8665,-168 218.8665,-174 212.8665,-180 206.8665,-180"/>
<text text-anchor="middle" x="123.4211" y="-157.8" font-family="Times,serif" font-size="14.00" fill="#000000">Replace Text: Clean AI Output</text>
</g>
<!-- Compose: Extract AI Answer&#45;&gt;Replace Text: Clean AI Output -->
<g id="edge7" class="edge">
<title>Compose: Extract AI Answer&#45;&gt;Replace Text: Clean AI Output</title>
<path fill="none" stroke="#000000" d="M123.4211,-215.8314C123.4211,-208.131 123.4211,-198.9743 123.4211,-190.4166"/>
<polygon fill="#000000" stroke="#000000" points="126.9212,-190.4132 123.4211,-180.4133 119.9212,-190.4133 126.9212,-190.4132"/>
</g>
<!-- Compose: Format Answer -->
<g id="node9" class="node">
<title>Compose: Format Answer</title>
<path fill="#add8e6" stroke="#000000" d="M193.1703,-108C193.1703,-108 53.6719,-108 53.6719,-108 47.6719,-108 41.6719,-102 41.6719,-96 41.6719,-96 41.6719,-84 41.6719,-84 41.6719,-78 47.6719,-72 53.6719,-72 53.6719,-72 193.1703,-72 193.1703,-72 199.1703,-72 205.1703,-78 205.1703,-84 205.1703,-84 205.1703,-96 205.1703,-96 205.1703,-102 199.1703,-108 193.1703,-108"/>
<text text-anchor="middle" x="123.4211" y="-85.8" font-family="Times,serif" font-size="14.00" fill="#000000">Compose: Format Answer</text>
</g>
<!-- Replace Text: Clean AI Output&#45;&gt;Compose: Format Answer -->
<g id="edge8" class="edge">
<title>Replace Text: Clean AI Output&#45;&gt;Compose: Format Answer</title>
<path fill="none" stroke="#000000" d="M123.4211,-143.8314C123.4211,-136.131 123.4211,-126.9743 123.4211,-118.4166"/>
<polygon fill="#000000" stroke="#000000" points="126.9212,-118.4132 123.4211,-108.4133 119.9212,-118.4133 126.9212,-118.4132"/>
</g>
<!-- Respond to Power App/Flow -->
<g id="node10" class="node">
<title>Respond to Power App/Flow</title>
<ellipse fill="#add8e6" stroke="#000000" cx="123.4211" cy="-18" rx="123.3423" ry="18"/>
<text text-anchor="middle" x="123.4211" y="-13.8" font-family="Times,serif" font-size="14.00" fill="#000000">Respond to Power App/Flow</text>
</g>
<!-- Compose: Format Answer&#45;&gt;Respond to Power App/Flow -->
<g id="edge9" class="edge">
<title>Compose: Format Answer&#45;&gt;Respond to Power App/Flow</title>
<path fill="none" stroke="#000000" d="M123.4211,-71.8314C123.4211,-64.131 123.4211,-54.9743 123.4211,-46.4166"/>
<polygon fill="#000000" stroke="#000000" points="126.9212,-46.4132 123.4211,-36.4133 119.9212,-46.4133 126.9212,-46.4132"/>
</g>
</g>
</svg>
