<?xml version="1.0" encoding="UTF-8" standalone="no"?>
<!DOCTYPE svg PUBLIC "-//W3C//DTD SVG 1.1//EN"
 "http://www.w3.org/Graphics/SVG/1.1/DTD/svg11.dtd">
<!-- Generated by graphviz version 2.40.1 (20161225.0304)
 -->
<!-- Title: %0 Pages: 1 -->
<svg width="503pt" height="425pt"
 viewBox="0.00 0.00 503.38 424.80" xmlns="http://www.w3.org/2000/svg" xmlns:xlink="http://www.w3.org/1999/xlink">
<g id="graph0" class="graph" transform="scale(0.6 0.6) rotate(0) translate(4 420.8)">
<title>%0</title>
<polygon fill="#ffffff" stroke="transparent" points="-4,4 -4,-420.8 499.3839,-420.8 499.3839,4 -4,4"/>
<g id="clust1" class="cluster">
<title>cluster_Scope_Generate_Entire_Flow_Overview_and_Recommendations</title>
<polygon fill="#d3d3d3" stroke="#000000" points="8,-8 8,-228.8 276,-228.8 276,-8 8,-8"/>
<text text-anchor="middle" x="142" y="-212.2" font-family="Times,serif" font-size="14.00" fill="#000000">Generate Overview &amp; Recs Scope</text>
</g>
<!-- trigger_manual -->
<g id="node1" class="node">
<title>trigger_manual</title>
<ellipse fill="#add8e6" stroke="#000000" cx="285" cy="-398.8" rx="107.084" ry="18"/>
<text text-anchor="middle" x="285" y="-394.6" font-family="Times,serif" font-size="14.00" fill="#000000">Manual Trigger (Button)</text>
</g>
<!-- action_Compose_Entire_Flow_Text_Input -->
<g id="node2" class="node">
<title>action_Compose_Entire_Flow_Text_Input</title>
<path fill="#add8e6" stroke="#000000" d="M322.4217,-344.8C322.4217,-344.8 247.5783,-344.8 247.5783,-344.8 241.5783,-344.8 235.5783,-338.8 235.5783,-332.8 235.5783,-332.8 235.5783,-320.8 235.5783,-320.8 235.5783,-314.8 241.5783,-308.8 247.5783,-308.8 247.5783,-308.8 322.4217,-308.8 322.4217,-308.8 328.4217,-308.8 334.4217,-314.8 334.4217,-320.8 334.4217,-320.8 334.4217,-332.8 334.4217,-332.8 334.4217,-338.8 328.4217,-344.8 322.4217,-344.8"/>
<text text-anchor="middle" x="285" y="-322.6" font-family="Times,serif" font-size="14.00" fill="#000000">Get Input Text</text>
</g>
<!-- trigger_manual&#45;&gt;action_Compose_Entire_Flow_Text_Input -->
<g id="edge1" class="edge">
<title>trigger_manual&#45;&gt;action_Compose_Entire_Flow_Text_Input</title>
<path fill="none" stroke="#000000" d="M285,-380.6314C285,-372.931 285,-363.7743 285,-355.2166"/>
<polygon fill="#000000" stroke="#000000" points="288.5001,-355.2132 285,-345.2133 281.5001,-355.2133 288.5001,-355.2132"/>
</g>
<!-- action_Scope_Generate_Entire_Flow_Overview_and_Recommendations -->
<g id="node3" class="node">
<title>action_Scope_Generate_Entire_Flow_Overview_and_Recommendations</title>
<path fill="#add8e6" stroke="#000000" d="M483.2679,-272.8C483.2679,-272.8 172.7787,-272.8 172.7787,-272.8 166.7787,-272.8 155.2436,-270.4842 149.7085,-268.1685 149.7085,-268.1685 85.8022,-241.4315 85.8022,-241.4315 80.2671,-239.1158 80.7321,-236.8 86.7321,-236.8 86.7321,-236.8 397.2213,-236.8 397.2213,-236.8 403.2213,-236.8 414.7564,-239.1158 420.2915,-241.4315 420.2915,-241.4315 484.1978,-268.1685 484.1978,-268.1685 489.7329,-270.4842 489.2679,-272.8 483.2679,-272.8"/>
<text text-anchor="middle" x="285" y="-250.6" font-family="Times,serif" font-size="14.00" fill="#000000">Generate Overview &amp; Recs Scope</text>
</g>
<!-- action_Compose_Entire_Flow_Text_Input&#45;&gt;action_Scope_Generate_Entire_Flow_Overview_and_Recommendations -->
<g id="edge2" class="edge">
<title>action_Compose_Entire_Flow_Text_Input&#45;&gt;action_Scope_Generate_Entire_Flow_Overview_and_Recommendations</title>
<path fill="none" stroke="#000000" d="M285,-308.6314C285,-300.931 285,-291.7743 285,-283.2166"/>
<polygon fill="#000000" stroke="#000000" points="288.5001,-283.2132 285,-273.2133 281.5001,-283.2133 288.5001,-283.2132"/>
</g>
<!-- action_Compose_AI_Prompt_Entire_Flow_Overview_and_Recommendations -->
<g id="node4" class="node">
<title>action_Compose_AI_Prompt_Entire_Flow_Overview_and_Recommendations</title>
<path fill="#add8e6" stroke="#000000" d="M221.9314,-196C221.9314,-196 126.0686,-196 126.0686,-196 120.0686,-196 114.0686,-190 114.0686,-184 114.0686,-184 114.0686,-172 114.0686,-172 114.0686,-166 120.0686,-160 126.0686,-160 126.0686,-160 221.9314,-160 221.9314,-160 227.9314,-160 233.9314,-166 233.9314,-172 233.9314,-172 233.9314,-184 233.9314,-184 233.9314,-190 227.9314,-196 221.9314,-196"/>
<text text-anchor="middle" x="174" y="-173.8" font-family="Times,serif" font-size="14.00" fill="#000000">Format AI Prompt</text>
</g>
<!-- action_Scope_Generate_Entire_Flow_Overview_and_Recommendations&#45;&gt;action_Compose_AI_Prompt_Entire_Flow_Overview_and_Recommendations -->
<g id="edge5" class="edge">
<title>action_Scope_Generate_Entire_Flow_Overview_and_Recommendations&#45;&gt;action_Compose_AI_Prompt_Entire_Flow_Overview_and_Recommendations</title>
<path fill="none" stroke="#000000" stroke-dasharray="1,5" d="M258.9754,-236.7938C243.915,-226.3736 224.7751,-213.1309 208.4747,-201.8528"/>
<polygon fill="#000000" stroke="#000000" points="210.4611,-198.9711 200.2461,-196.1595 206.4782,-204.7276 210.4611,-198.9711"/>
</g>
<!-- action_Respond_to_a_Power_App_or_flow -->
<g id="node7" class="node">
<title>action_Respond_to_a_Power_App_or_flow</title>
<ellipse fill="#add8e6" stroke="#000000" cx="365" cy="-178" rx="80.5393" ry="18"/>
<text text-anchor="middle" x="365" y="-173.8" font-family="Times,serif" font-size="14.00" fill="#000000">Respond to Caller</text>
</g>
<!-- action_Scope_Generate_Entire_Flow_Overview_and_Recommendations&#45;&gt;action_Respond_to_a_Power_App_or_flow -->
<g id="edge6" class="edge">
<title>action_Scope_Generate_Entire_Flow_Overview_and_Recommendations&#45;&gt;action_Respond_to_a_Power_App_or_flow</title>
<path fill="none" stroke="#000000" d="M303.9589,-236.5995C314.5716,-226.4112 327.947,-213.5709 339.4704,-202.5084"/>
<polygon fill="#000000" stroke="#000000" points="341.9378,-204.9915 346.7279,-195.5412 337.0901,-199.9417 341.9378,-204.9915"/>
</g>
<!-- action_Run_a_Child_Flow_AI_Request_for_Entire_Flow_Overview_and_Recs -->
<g id="node5" class="node">
<title>action_Run_a_Child_Flow_AI_Request_for_Entire_Flow_Overview_and_Recs</title>
<path fill="#add8e6" stroke="#000000" d="M255.8294,-124C255.8294,-124 79.663,-124 79.663,-124 73.663,-124 62.7456,-120.5621 57.8282,-117.1242 57.8282,-117.1242 26.0054,-94.8758 26.0054,-94.8758 21.088,-91.4379 22.1706,-88 28.1706,-88 28.1706,-88 204.337,-88 204.337,-88 210.337,-88 221.2544,-91.4379 226.1718,-94.8758 226.1718,-94.8758 257.9946,-117.1242 257.9946,-117.1242 262.912,-120.5621 261.8294,-124 255.8294,-124"/>
<text text-anchor="middle" x="142" y="-101.8" font-family="Times,serif" font-size="14.00" fill="#000000">Run AI Child Flow</text>
</g>
<!-- action_Compose_AI_Prompt_Entire_Flow_Overview_and_Recommendations&#45;&gt;action_Run_a_Child_Flow_AI_Request_for_Entire_Flow_Overview_and_Recs -->
<g id="edge3" class="edge">
<title>action_Compose_AI_Prompt_Entire_Flow_Overview_and_Recommendations&#45;&gt;action_Run_a_Child_Flow_AI_Request_for_Entire_Flow_Overview_and_Recs</title>
<path fill="none" stroke="#000000" d="M165.925,-159.8314C162.3898,-151.8771 158.164,-142.369 154.2544,-133.5723"/>
<polygon fill="#000000" stroke="#000000" points="157.4435,-132.1299 150.1837,-124.4133 151.0468,-134.9729 157.4435,-132.1299"/>
</g>
<!-- action_Compose_AI_Output_Entire_Flow_Overview_and_Recommendations -->
<g id="node6" class="node">
<title>action_Compose_AI_Output_Entire_Flow_Overview_and_Recommendations</title>
<path fill="#add8e6" stroke="#000000" d="M178.3669,-52C178.3669,-52 105.6331,-52 105.6331,-52 99.6331,-52 93.6331,-46 93.6331,-40 93.6331,-40 93.6331,-28 93.6331,-28 93.6331,-22 99.6331,-16 105.6331,-16 105.6331,-16 178.3669,-16 178.3669,-16 184.3669,-16 190.3669,-22 190.3669,-28 190.3669,-28 190.3669,-40 190.3669,-40 190.3669,-46 184.3669,-52 178.3669,-52"/>
<text text-anchor="middle" x="142" y="-29.8" font-family="Times,serif" font-size="14.00" fill="#000000">Get AI Output</text>
</g>
<!-- action_Run_a_Child_Flow_AI_Request_for_Entire_Flow_Overview_and_Recs&#45;&gt;action_Compose_AI_Output_Entire_Flow_Overview_and_Recommendations -->
<g id="edge4" class="edge">
<title>action_Run_a_Child_Flow_AI_Request_for_Entire_Flow_Overview_and_Recs&#45;&gt;action_Compose_AI_Output_Entire_Flow_Overview_and_Recommendations</title>
<path fill="none" stroke="#000000" d="M142,-87.8314C142,-80.131 142,-70.9743 142,-62.4166"/>
<polygon fill="#000000" stroke="#000000" points="145.5001,-62.4132 142,-52.4133 138.5001,-62.4133 145.5001,-62.4132"/>
</g>
</g>
</svg>
