<?xml version="1.0" encoding="UTF-8" standalone="no"?>
<!DOCTYPE svg PUBLIC "-//W3C//DTD SVG 1.1//EN"
 "http://www.w3.org/Graphics/SVG/1.1/DTD/svg11.dtd">
<!-- Generated by graphviz version 2.40.1 (20161225.0304)
 -->
<!-- Title: ProcessIndividualCloudFlow Pages: 1 -->
<svg width="2202pt" height="1680pt"
 viewBox="0.00 0.00 2202.46 1680.40" xmlns="http://www.w3.org/2000/svg" xmlns:xlink="http://www.w3.org/1999/xlink">
<g id="graph0" class="graph" transform="scale(0.6 0.6) rotate(0) translate(4 1676.4)">
<title>ProcessIndividualCloudFlow</title>
<polygon fill="#ffffff" stroke="transparent" points="-4,4 -4,-1676.4 2198.4557,-1676.4 2198.4557,4 -4,4"/>
<g id="clust1" class="cluster">
<title>cluster_Scope_Generate_Documentation_for_Individual_Flow</title>
<polygon fill="#d3d3d3" stroke="#000000" points="658.4557,-8 658.4557,-1664.4 1240.4557,-1664.4 1240.4557,-8 658.4557,-8"/>
<text text-anchor="middle" x="949.4557" y="-1647.8" font-family="Times,serif" font-size="14.00" fill="#000000">Generate Documentation for Individual Flow</text>
</g>
<g id="clust2" class="cluster">
<title>cluster_Scope_Check_if_SVG_file_has_been_created</title>
<polygon fill="#d3d3d3" stroke="#000000" points="1248.4557,-966 1248.4557,-1664.4 1920.4557,-1664.4 1920.4557,-966 1248.4557,-966"/>
<text text-anchor="middle" x="1584.4557" y="-1647.8" font-family="Times,serif" font-size="14.00" fill="#000000">Check if SVG file has been created</text>
</g>
<g id="clust3" class="cluster">
<title>cluster_Scope_Convert_lists_to_bullet_points</title>
<polygon fill="#d3d3d3" stroke="#000000" points="1928.4557,-744 1928.4557,-1664.4 2186.4557,-1664.4 2186.4557,-744 1928.4557,-744"/>
<text text-anchor="middle" x="2057.4557" y="-1647.8" font-family="Times,serif" font-size="14.00" fill="#000000">Convert lists to bullet points</text>
</g>
<!-- manual -->
<g id="node1" class="node">
<title>manual</title>
<ellipse fill="#add8e6" stroke="#000000" cx="288.4557" cy="-1613.6" rx="71.8105" ry="18"/>
<text text-anchor="middle" x="288.4557" y="-1609.4" font-family="Times,serif" font-size="14.00" fill="#000000">Manual Trigger</text>
</g>
<!-- Scope_GenerateDoc_Node -->
<g id="node2" class="node">
<title>Scope_GenerateDoc_Node</title>
<path fill="#add8e6" stroke="#000000" d="M480.949,-1558.6C480.949,-1558.6 179.6459,-1558.6 179.6459,-1558.6 173.6459,-1558.6 162.1343,-1556.2289 156.6227,-1553.8579 156.6227,-1553.8579 94.9856,-1527.3421 94.9856,-1527.3421 89.474,-1524.9711 89.9624,-1522.6 95.9624,-1522.6 95.9624,-1522.6 397.2655,-1522.6 397.2655,-1522.6 403.2655,-1522.6 414.7771,-1524.9711 420.2888,-1527.3421 420.2888,-1527.3421 481.9258,-1553.8579 481.9258,-1553.8579 487.4374,-1556.2289 486.949,-1558.6 480.949,-1558.6"/>
<text text-anchor="middle" x="288.4557" y="-1536.4" font-family="Times,serif" font-size="14.00" fill="#000000">Scope &#45; Generate Documentation</text>
</g>
<!-- manual&#45;&gt;Scope_GenerateDoc_Node -->
<g id="edge1" class="edge">
<title>manual&#45;&gt;Scope_GenerateDoc_Node</title>
<path fill="none" stroke="#000000" d="M288.4557,-1595.5551C288.4557,-1587.4828 288.4557,-1577.7764 288.4557,-1568.7817"/>
<polygon fill="#000000" stroke="#000000" points="291.9558,-1568.6903 288.4557,-1558.6904 284.9558,-1568.6904 291.9558,-1568.6903"/>
</g>
<!-- Respond -->
<g id="node3" class="node">
<title>Respond</title>
<ellipse fill="#add8e6" stroke="#000000" cx="131.4557" cy="-1451.8" rx="131.4114" ry="18"/>
<text text-anchor="middle" x="131.4557" y="-1447.6" font-family="Times,serif" font-size="14.00" fill="#000000">Respond to Power App or flow</text>
</g>
<!-- Scope_GenerateDoc_Node&#45;&gt;Respond -->
<g id="edge2" class="edge">
<title>Scope_GenerateDoc_Node&#45;&gt;Respond</title>
<path fill="none" stroke="#000000" d="M256.3056,-1522.4157C231.7491,-1508.5264 197.7648,-1489.3047 171.4521,-1474.4221"/>
<polygon fill="#000000" stroke="#000000" points="172.9202,-1471.2315 162.4929,-1469.3548 169.474,-1477.3244 172.9202,-1471.2315"/>
<text text-anchor="middle" x="334.0967" y="-1492" font-family="Times,serif" font-size="14.00" fill="#000000">Succeeded, Failed, Skipped, TimedOut</text>
</g>
<!-- cluster_Scope_Generate_Documentation_for_Individual_Flow -->
<g id="node33" class="node">
<title>cluster_Scope_Generate_Documentation_for_Individual_Flow</title>
<path fill="#add8e6" stroke="#000000" d="M637.9601,-1469.8C637.9601,-1469.8 292.9513,-1469.8 292.9513,-1469.8 286.9513,-1469.8 280.9513,-1463.8 280.9513,-1457.8 280.9513,-1457.8 280.9513,-1445.8 280.9513,-1445.8 280.9513,-1439.8 286.9513,-1433.8 292.9513,-1433.8 292.9513,-1433.8 637.9601,-1433.8 637.9601,-1433.8 643.9601,-1433.8 649.9601,-1439.8 649.9601,-1445.8 649.9601,-1445.8 649.9601,-1457.8 649.9601,-1457.8 649.9601,-1463.8 643.9601,-1469.8 637.9601,-1469.8"/>
<text text-anchor="middle" x="465.4557" y="-1447.6" font-family="Times,serif" font-size="14.00" fill="#000000">cluster_Scope_Generate_Documentation_for_Individual_Flow</text>
</g>
<!-- Scope_GenerateDoc_Node&#45;&gt;cluster_Scope_Generate_Documentation_for_Individual_Flow -->
<g id="edge29" class="edge">
<title>Scope_GenerateDoc_Node&#45;&gt;cluster_Scope_Generate_Documentation_for_Individual_Flow</title>
<path fill="none" stroke="#000000" stroke-dasharray="1,5" d="M403.4732,-1522.5032C423.0989,-1517.5649 439.6693,-1511.6026 447.4557,-1504.6 457.249,-1495.7925 461.717,-1481.4414 463.7539,-1469.9225"/>
</g>
<!-- Compose_SolutionZipFileID -->
<g id="node4" class="node">
<title>Compose_SolutionZipFileID</title>
<path fill="#add8e6" stroke="#000000" d="M1034.9465,-1631.6C1034.9465,-1631.6 863.9649,-1631.6 863.9649,-1631.6 857.9649,-1631.6 851.9649,-1625.6 851.9649,-1619.6 851.9649,-1619.6 851.9649,-1607.6 851.9649,-1607.6 851.9649,-1601.6 857.9649,-1595.6 863.9649,-1595.6 863.9649,-1595.6 1034.9465,-1595.6 1034.9465,-1595.6 1040.9465,-1595.6 1046.9465,-1601.6 1046.9465,-1607.6 1046.9465,-1607.6 1046.9465,-1619.6 1046.9465,-1619.6 1046.9465,-1625.6 1040.9465,-1631.6 1034.9465,-1631.6"/>
<text text-anchor="middle" x="949.4557" y="-1609.4" font-family="Times,serif" font-size="14.00" fill="#000000">Compose &#45; Solution Zip File ID</text>
</g>
<!-- Compose_FlowIDListInput -->
<g id="node5" class="node">
<title>Compose_FlowIDListInput</title>
<path fill="#add8e6" stroke="#000000" d="M1030.3793,-1469.8C1030.3793,-1469.8 868.5321,-1469.8 868.5321,-1469.8 862.5321,-1469.8 856.5321,-1463.8 856.5321,-1457.8 856.5321,-1457.8 856.5321,-1445.8 856.5321,-1445.8 856.5321,-1439.8 862.5321,-1433.8 868.5321,-1433.8 868.5321,-1433.8 1030.3793,-1433.8 1030.3793,-1433.8 1036.3793,-1433.8 1042.3793,-1439.8 1042.3793,-1445.8 1042.3793,-1445.8 1042.3793,-1457.8 1042.3793,-1457.8 1042.3793,-1463.8 1036.3793,-1469.8 1030.3793,-1469.8"/>
<text text-anchor="middle" x="949.4557" y="-1447.6" font-family="Times,serif" font-size="14.00" fill="#000000">Compose &#45; Flow ID List Input</text>
</g>
<!-- Compose_SolutionZipFileID&#45;&gt;Compose_FlowIDListInput -->
<g id="edge3" class="edge">
<title>Compose_SolutionZipFileID&#45;&gt;Compose_FlowIDListInput</title>
<path fill="none" stroke="#000000" d="M949.4557,-1595.354C949.4557,-1567.4351 949.4557,-1513.8651 949.4557,-1480.6464"/>
<polygon fill="#000000" stroke="#000000" points="952.9558,-1480.2275 949.4557,-1470.2276 945.9558,-1480.2276 952.9558,-1480.2275"/>
</g>
<!-- Compose_FlowNameInput -->
<g id="node6" class="node">
<title>Compose_FlowNameInput</title>
<path fill="#add8e6" stroke="#000000" d="M1027.2604,-1343C1027.2604,-1343 871.6511,-1343 871.6511,-1343 865.6511,-1343 859.6511,-1337 859.6511,-1331 859.6511,-1331 859.6511,-1319 859.6511,-1319 859.6511,-1313 865.6511,-1307 871.6511,-1307 871.6511,-1307 1027.2604,-1307 1027.2604,-1307 1033.2604,-1307 1039.2604,-1313 1039.2604,-1319 1039.2604,-1319 1039.2604,-1331 1039.2604,-1331 1039.2604,-1337 1033.2604,-1343 1027.2604,-1343"/>
<text text-anchor="middle" x="949.4557" y="-1320.8" font-family="Times,serif" font-size="14.00" fill="#000000">Compose &#45; Flow Name Input</text>
</g>
<!-- Compose_FlowIDListInput&#45;&gt;Compose_FlowNameInput -->
<g id="edge4" class="edge">
<title>Compose_FlowIDListInput&#45;&gt;Compose_FlowNameInput</title>
<path fill="none" stroke="#000000" d="M949.4557,-1433.6327C949.4557,-1412.6352 949.4557,-1377.8261 949.4557,-1353.279"/>
<polygon fill="#000000" stroke="#000000" points="952.9558,-1353.1336 949.4557,-1343.1336 945.9558,-1353.1337 952.9558,-1353.1336"/>
</g>
<!-- Compose_DestinationFolderPathInput -->
<g id="node7" class="node">
<title>Compose_DestinationFolderPathInput</title>
<path fill="#add8e6" stroke="#000000" d="M1060.5333,-1232C1060.5333,-1232 838.3781,-1232 838.3781,-1232 832.3781,-1232 826.3781,-1226 826.3781,-1220 826.3781,-1220 826.3781,-1208 826.3781,-1208 826.3781,-1202 832.3781,-1196 838.3781,-1196 838.3781,-1196 1060.5333,-1196 1060.5333,-1196 1066.5333,-1196 1072.5333,-1202 1072.5333,-1208 1072.5333,-1208 1072.5333,-1220 1072.5333,-1220 1072.5333,-1226 1066.5333,-1232 1060.5333,-1232"/>
<text text-anchor="middle" x="949.4557" y="-1209.8" font-family="Times,serif" font-size="14.00" fill="#000000">Compose &#45; Destination Folder Path Input</text>
</g>
<!-- Compose_FlowNameInput&#45;&gt;Compose_DestinationFolderPathInput -->
<g id="edge5" class="edge">
<title>Compose_FlowNameInput&#45;&gt;Compose_DestinationFolderPathInput</title>
<path fill="none" stroke="#000000" d="M949.4557,-1306.6706C949.4557,-1289.2373 949.4557,-1262.7482 949.4557,-1242.5489"/>
<polygon fill="#000000" stroke="#000000" points="952.9558,-1242.3566 949.4557,-1232.3566 945.9558,-1242.3567 952.9558,-1242.3566"/>
</g>
<!-- Compose_FlowjsonFile -->
<g id="node8" class="node">
<title>Compose_FlowjsonFile</title>
<path fill="#add8e6" stroke="#000000" d="M1018.3967,-1121C1018.3967,-1121 880.5147,-1121 880.5147,-1121 874.5147,-1121 868.5147,-1115 868.5147,-1109 868.5147,-1109 868.5147,-1097 868.5147,-1097 868.5147,-1091 874.5147,-1085 880.5147,-1085 880.5147,-1085 1018.3967,-1085 1018.3967,-1085 1024.3967,-1085 1030.3967,-1091 1030.3967,-1097 1030.3967,-1097 1030.3967,-1109 1030.3967,-1109 1030.3967,-1115 1024.3967,-1121 1018.3967,-1121"/>
<text text-anchor="middle" x="949.4557" y="-1098.8" font-family="Times,serif" font-size="14.00" fill="#000000">Compose &#45; Flow json File</text>
</g>
<!-- Compose_DestinationFolderPathInput&#45;&gt;Compose_FlowjsonFile -->
<g id="edge6" class="edge">
<title>Compose_DestinationFolderPathInput&#45;&gt;Compose_FlowjsonFile</title>
<path fill="none" stroke="#000000" d="M949.4557,-1195.6706C949.4557,-1178.2373 949.4557,-1151.7482 949.4557,-1131.5489"/>
<polygon fill="#000000" stroke="#000000" points="952.9558,-1131.3566 949.4557,-1121.3566 945.9558,-1131.3567 952.9558,-1131.3566"/>
</g>
<!-- RunChildFlow_RetrieveCloudFlowInfo -->
<g id="node9" class="node">
<title>RunChildFlow_RetrieveCloudFlowInfo</title>
<path fill="#add8e6" stroke="#000000" d="M1198.8253,-1010C1198.8253,-1010 807.0448,-1010 807.0448,-1010 801.0448,-1010 789.3582,-1008.086 783.6717,-1006.1721 783.6717,-1006.1721 699.4592,-977.8279 699.4592,-977.8279 693.7727,-975.914 694.0861,-974 700.0861,-974 700.0861,-974 1091.8666,-974 1091.8666,-974 1097.8666,-974 1109.5532,-975.914 1115.2397,-977.8279 1115.2397,-977.8279 1199.4522,-1006.1721 1199.4522,-1006.1721 1205.1388,-1008.086 1204.8253,-1010 1198.8253,-1010"/>
<text text-anchor="middle" x="949.4557" y="-987.8" font-family="Times,serif" font-size="14.00" fill="#000000">Run Child Flow &#45; Retrieve Cloud flow info</text>
</g>
<!-- Compose_FlowjsonFile&#45;&gt;RunChildFlow_RetrieveCloudFlowInfo -->
<g id="edge7" class="edge">
<title>Compose_FlowjsonFile&#45;&gt;RunChildFlow_RetrieveCloudFlowInfo</title>
<path fill="none" stroke="#000000" d="M949.4557,-1084.6706C949.4557,-1067.2373 949.4557,-1040.7482 949.4557,-1020.5489"/>
<polygon fill="#000000" stroke="#000000" points="952.9558,-1020.3566 949.4557,-1010.3566 945.9558,-1020.3567 952.9558,-1020.3566"/>
</g>
<!-- Compose_AIPromptGenerateFlowTextDescription -->
<g id="node10" class="node">
<title>Compose_AIPromptGenerateFlowTextDescription</title>
<path fill="#add8e6" stroke="#000000" d="M1103.9218,-899C1103.9218,-899 794.9896,-899 794.9896,-899 788.9896,-899 782.9896,-893 782.9896,-887 782.9896,-887 782.9896,-875 782.9896,-875 782.9896,-869 788.9896,-863 794.9896,-863 794.9896,-863 1103.9218,-863 1103.9218,-863 1109.9218,-863 1115.9218,-869 1115.9218,-875 1115.9218,-875 1115.9218,-887 1115.9218,-887 1115.9218,-893 1109.9218,-899 1103.9218,-899"/>
<text text-anchor="middle" x="949.4557" y="-876.8" font-family="Times,serif" font-size="14.00" fill="#000000">Compose &#45; AI Prompt &#45; Generate Flow Text Description</text>
</g>
<!-- RunChildFlow_RetrieveCloudFlowInfo&#45;&gt;Compose_AIPromptGenerateFlowTextDescription -->
<g id="edge8" class="edge">
<title>RunChildFlow_RetrieveCloudFlowInfo&#45;&gt;Compose_AIPromptGenerateFlowTextDescription</title>
<path fill="none" stroke="#000000" d="M949.4557,-973.6706C949.4557,-956.2373 949.4557,-929.7482 949.4557,-909.5489"/>
<polygon fill="#000000" stroke="#000000" points="952.9558,-909.3566 949.4557,-899.3566 945.9558,-909.3567 952.9558,-909.3566"/>
</g>
<!-- RunChildFlow_AITextGenerationforFlow -->
<g id="node11" class="node">
<title>RunChildFlow_AITextGenerationforFlow</title>
<path fill="#add8e6" stroke="#000000" d="M1220.0299,-788C1220.0299,-788 794.5176,-788 794.5176,-788 788.5176,-788 776.7888,-786.2165 771.06,-784.433 771.06,-784.433 678.3392,-755.567 678.3392,-755.567 672.6104,-753.7835 672.8816,-752 678.8816,-752 678.8816,-752 1104.3938,-752 1104.3938,-752 1110.3938,-752 1122.1226,-753.7835 1127.8514,-755.567 1127.8514,-755.567 1220.5723,-784.433 1220.5723,-784.433 1226.3011,-786.2165 1226.0299,-788 1220.0299,-788"/>
<text text-anchor="middle" x="949.4557" y="-765.8" font-family="Times,serif" font-size="14.00" fill="#000000">Run Child Flow &#45; AI Text Generation for Flow</text>
</g>
<!-- Compose_AIPromptGenerateFlowTextDescription&#45;&gt;RunChildFlow_AITextGenerationforFlow -->
<g id="edge9" class="edge">
<title>Compose_AIPromptGenerateFlowTextDescription&#45;&gt;RunChildFlow_AITextGenerationforFlow</title>
<path fill="none" stroke="#000000" d="M949.4557,-862.6706C949.4557,-845.2373 949.4557,-818.7482 949.4557,-798.5489"/>
<polygon fill="#000000" stroke="#000000" points="952.9558,-798.3566 949.4557,-788.3566 945.9558,-798.3567 952.9558,-798.3566"/>
</g>
<!-- Scope_CheckifSVGfilehasbeencreated_Node -->
<g id="node12" class="node">
<title>Scope_CheckifSVGfilehasbeencreated_Node</title>
<path fill="#add8e6" stroke="#000000" d="M1220.5228,-677C1220.5228,-677 827.6327,-677 827.6327,-677 821.6327,-677 809.9446,-675.0906 804.2565,-673.1812 804.2565,-673.1812 719.7648,-644.8188 719.7648,-644.8188 714.0767,-642.9094 714.3886,-641 720.3886,-641 720.3886,-641 1113.2787,-641 1113.2787,-641 1119.2787,-641 1130.9668,-642.9094 1136.6549,-644.8188 1136.6549,-644.8188 1221.1467,-673.1812 1221.1467,-673.1812 1226.8347,-675.0906 1226.5228,-677 1220.5228,-677"/>
<text text-anchor="middle" x="970.4557" y="-654.8" font-family="Times,serif" font-size="14.00" fill="#000000">Scope &#45; Check if SVG file has been created</text>
</g>
<!-- RunChildFlow_AITextGenerationforFlow&#45;&gt;Scope_CheckifSVGfilehasbeencreated_Node -->
<g id="edge10" class="edge">
<title>RunChildFlow_AITextGenerationforFlow&#45;&gt;Scope_CheckifSVGfilehasbeencreated_Node</title>
<path fill="none" stroke="#000000" d="M952.9234,-751.6706C956.2368,-734.1569 961.2793,-707.5039 965.1073,-687.2701"/>
<polygon fill="#000000" stroke="#000000" points="968.5628,-687.833 966.9828,-677.3566 961.6848,-686.5317 968.5628,-687.833"/>
</g>
<!-- Compose_SVGLink -->
<g id="node13" class="node">
<title>Compose_SVGLink</title>
<path fill="#add8e6" stroke="#000000" d="M1047.9426,-531C1047.9426,-531 932.9689,-531 932.9689,-531 926.9689,-531 920.9689,-525 920.9689,-519 920.9689,-519 920.9689,-507 920.9689,-507 920.9689,-501 926.9689,-495 932.9689,-495 932.9689,-495 1047.9426,-495 1047.9426,-495 1053.9426,-495 1059.9426,-501 1059.9426,-507 1059.9426,-507 1059.9426,-519 1059.9426,-519 1059.9426,-525 1053.9426,-531 1047.9426,-531"/>
<text text-anchor="middle" x="990.4557" y="-508.8" font-family="Times,serif" font-size="14.00" fill="#000000">Compose &#45; SVG Link</text>
</g>
<!-- Scope_CheckifSVGfilehasbeencreated_Node&#45;&gt;Compose_SVGLink -->
<g id="edge11" class="edge">
<title>Scope_CheckifSVGfilehasbeencreated_Node&#45;&gt;Compose_SVGLink</title>
<path fill="none" stroke="#000000" d="M972.9483,-640.8042C976.3616,-615.8868 982.525,-570.8938 986.5533,-541.4877"/>
<polygon fill="#000000" stroke="#000000" points="990.0421,-541.8076 987.9317,-531.4251 983.1068,-540.8575 990.0421,-541.8076"/>
<text text-anchor="middle" x="1033.38" y="-581.8" font-family="Times,serif" font-size="14.00" fill="#000000">Succeeded, Failed</text>
</g>
<!-- cluster_Scope_Check_if_SVG_file_has_been_created -->
<g id="node34" class="node">
<title>cluster_Scope_Check_if_SVG_file_has_been_created</title>
<path fill="#add8e6" stroke="#000000" d="M1556.4503,-604C1556.4503,-604 1260.4611,-604 1260.4611,-604 1254.4611,-604 1248.4611,-598 1248.4611,-592 1248.4611,-592 1248.4611,-580 1248.4611,-580 1248.4611,-574 1254.4611,-568 1260.4611,-568 1260.4611,-568 1556.4503,-568 1556.4503,-568 1562.4503,-568 1568.4503,-574 1568.4503,-580 1568.4503,-580 1568.4503,-592 1568.4503,-592 1568.4503,-598 1562.4503,-604 1556.4503,-604"/>
<text text-anchor="middle" x="1408.4557" y="-581.8" font-family="Times,serif" font-size="14.00" fill="#000000">cluster_Scope_Check_if_SVG_file_has_been_created</text>
</g>
<!-- Scope_CheckifSVGfilehasbeencreated_Node&#45;&gt;cluster_Scope_Check_if_SVG_file_has_been_created -->
<g id="edge30" class="edge">
<title>Scope_CheckifSVGfilehasbeencreated_Node&#45;&gt;cluster_Scope_Check_if_SVG_file_has_been_created</title>
<path fill="none" stroke="#000000" stroke-dasharray="1,5" d="M1078.7254,-640.9551C1146.2375,-629.703 1232.8018,-615.2757 1300.2936,-604.027"/>
</g>
<!-- Compose_CheckifLinkisempty -->
<g id="node14" class="node">
<title>Compose_CheckifLinkisempty</title>
<path fill="#add8e6" stroke="#000000" d="M1093.0942,-420C1093.0942,-420 907.8172,-420 907.8172,-420 901.8172,-420 895.8172,-414 895.8172,-408 895.8172,-408 895.8172,-396 895.8172,-396 895.8172,-390 901.8172,-384 907.8172,-384 907.8172,-384 1093.0942,-384 1093.0942,-384 1099.0942,-384 1105.0942,-390 1105.0942,-396 1105.0942,-396 1105.0942,-408 1105.0942,-408 1105.0942,-414 1099.0942,-420 1093.0942,-420"/>
<text text-anchor="middle" x="1000.4557" y="-397.8" font-family="Times,serif" font-size="14.00" fill="#000000">Compose &#45; Check if Link is empty</text>
</g>
<!-- Compose_SVGLink&#45;&gt;Compose_CheckifLinkisempty -->
<g id="edge12" class="edge">
<title>Compose_SVGLink&#45;&gt;Compose_CheckifLinkisempty</title>
<path fill="none" stroke="#000000" d="M992.107,-494.6706C993.6776,-477.2373 996.064,-450.7482 997.8837,-430.5489"/>
<polygon fill="#000000" stroke="#000000" points="1001.3905,-430.6304 998.802,-420.3566 994.4187,-430.0022 1001.3905,-430.6304"/>
</g>
<!-- ParseJSON_IndividualFlowJSON -->
<g id="node15" class="node">
<title>ParseJSON_IndividualFlowJSON</title>
<path fill="#add8e6" stroke="#000000" d="M1105.1411,-309C1105.1411,-309 907.7703,-309 907.7703,-309 901.7703,-309 895.7703,-303 895.7703,-297 895.7703,-297 895.7703,-285 895.7703,-285 895.7703,-279 901.7703,-273 907.7703,-273 907.7703,-273 1105.1411,-273 1105.1411,-273 1111.1411,-273 1117.1411,-279 1117.1411,-285 1117.1411,-285 1117.1411,-297 1117.1411,-297 1117.1411,-303 1111.1411,-309 1105.1411,-309"/>
<text text-anchor="middle" x="1006.4557" y="-286.8" font-family="Times,serif" font-size="14.00" fill="#000000">Parse JSON &#45; Individual Flow JSON</text>
</g>
<!-- Compose_CheckifLinkisempty&#45;&gt;ParseJSON_IndividualFlowJSON -->
<g id="edge13" class="edge">
<title>Compose_CheckifLinkisempty&#45;&gt;ParseJSON_IndividualFlowJSON</title>
<path fill="none" stroke="#000000" d="M1001.4465,-383.6706C1002.3888,-366.2373 1003.8207,-339.7482 1004.9125,-319.5489"/>
<polygon fill="#000000" stroke="#000000" points="1008.4185,-319.531 1005.4635,-309.3566 1001.4287,-319.1531 1008.4185,-319.531"/>
</g>
<!-- Scope_Convertliststobulletpoints_Node -->
<g id="node16" class="node">
<title>Scope_Convertliststobulletpoints_Node</title>
<path fill="#add8e6" stroke="#000000" d="M1220.5398,-198C1220.5398,-198 889.663,-198 889.663,-198 883.663,-198 872.0813,-195.7989 866.4996,-193.5978 866.4996,-193.5978 797.535,-166.4022 797.535,-166.4022 791.9534,-164.2011 792.3717,-162 798.3717,-162 798.3717,-162 1129.2485,-162 1129.2485,-162 1135.2485,-162 1146.8301,-164.2011 1152.4118,-166.4022 1152.4118,-166.4022 1221.3764,-193.5978 1221.3764,-193.5978 1226.9581,-195.7989 1226.5398,-198 1220.5398,-198"/>
<text text-anchor="middle" x="1009.4557" y="-175.8" font-family="Times,serif" font-size="14.00" fill="#000000">Scope &#45; Convert lists to bullet points</text>
</g>
<!-- ParseJSON_IndividualFlowJSON&#45;&gt;Scope_Convertliststobulletpoints_Node -->
<g id="edge14" class="edge">
<title>ParseJSON_IndividualFlowJSON&#45;&gt;Scope_Convertliststobulletpoints_Node</title>
<path fill="none" stroke="#000000" d="M1006.9511,-272.6706C1007.4223,-255.2373 1008.1382,-228.7482 1008.6841,-208.5489"/>
<polygon fill="#000000" stroke="#000000" points="1012.188,-208.4476 1008.9596,-198.3566 1005.1906,-208.2584 1012.188,-208.4476"/>
</g>
<!-- Compose_Flowjson -->
<g id="node17" class="node">
<title>Compose_Flowjson</title>
<path fill="#add8e6" stroke="#000000" d="M1065.6178,-52C1065.6178,-52 953.2936,-52 953.2936,-52 947.2936,-52 941.2936,-46 941.2936,-40 941.2936,-40 941.2936,-28 941.2936,-28 941.2936,-22 947.2936,-16 953.2936,-16 953.2936,-16 1065.6178,-16 1065.6178,-16 1071.6178,-16 1077.6178,-22 1077.6178,-28 1077.6178,-28 1077.6178,-40 1077.6178,-40 1077.6178,-46 1071.6178,-52 1065.6178,-52"/>
<text text-anchor="middle" x="1009.4557" y="-29.8" font-family="Times,serif" font-size="14.00" fill="#000000">Compose &#45; Flow json</text>
</g>
<!-- Scope_Convertliststobulletpoints_Node&#45;&gt;Compose_Flowjson -->
<g id="edge15" class="edge">
<title>Scope_Convertliststobulletpoints_Node&#45;&gt;Compose_Flowjson</title>
<path fill="none" stroke="#000000" d="M1009.4557,-161.8042C1009.4557,-136.8868 1009.4557,-91.8938 1009.4557,-62.4877"/>
<polygon fill="#000000" stroke="#000000" points="1012.9558,-62.4251 1009.4557,-52.4251 1005.9558,-62.4251 1012.9558,-62.4251"/>
</g>
<!-- cluster_Scope_Convert_lists_to_bullet_points -->
<g id="node35" class="node">
<title>cluster_Scope_Convert_lists_to_bullet_points</title>
<path fill="#add8e6" stroke="#000000" d="M1510.6494,-125C1510.6494,-125 1260.262,-125 1260.262,-125 1254.262,-125 1248.262,-119 1248.262,-113 1248.262,-113 1248.262,-101 1248.262,-101 1248.262,-95 1254.262,-89 1260.262,-89 1260.262,-89 1510.6494,-89 1510.6494,-89 1516.6494,-89 1522.6494,-95 1522.6494,-101 1522.6494,-101 1522.6494,-113 1522.6494,-113 1522.6494,-119 1516.6494,-125 1510.6494,-125"/>
<text text-anchor="middle" x="1385.4557" y="-102.8" font-family="Times,serif" font-size="14.00" fill="#000000">cluster_Scope_Convert_lists_to_bullet_points</text>
</g>
<!-- Scope_Convertliststobulletpoints_Node&#45;&gt;cluster_Scope_Convert_lists_to_bullet_points -->
<g id="edge31" class="edge">
<title>Scope_Convertliststobulletpoints_Node&#45;&gt;cluster_Scope_Convert_lists_to_bullet_points</title>
<path fill="none" stroke="#000000" stroke-dasharray="1,5" d="M1102.3996,-161.9551C1160.3552,-150.703 1234.666,-136.2757 1292.6042,-125.027"/>
</g>
<!-- Compose_CloudFlowDefination -->
<g id="node18" class="node">
<title>Compose_CloudFlowDefination</title>
<path fill="#add8e6" stroke="#000000" d="M1704.8783,-1631.6C1704.8783,-1631.6 1518.0331,-1631.6 1518.0331,-1631.6 1512.0331,-1631.6 1506.0331,-1625.6 1506.0331,-1619.6 1506.0331,-1619.6 1506.0331,-1607.6 1506.0331,-1607.6 1506.0331,-1601.6 1512.0331,-1595.6 1518.0331,-1595.6 1518.0331,-1595.6 1704.8783,-1595.6 1704.8783,-1595.6 1710.8783,-1595.6 1716.8783,-1601.6 1716.8783,-1607.6 1716.8783,-1607.6 1716.8783,-1619.6 1716.8783,-1619.6 1716.8783,-1625.6 1710.8783,-1631.6 1704.8783,-1631.6"/>
<text text-anchor="middle" x="1611.4557" y="-1609.4" font-family="Times,serif" font-size="14.00" fill="#000000">Compose &#45; Cloud Flow Defination</text>
</g>
<!-- Getfilemetadatausingpath_iffilealreadyexists -->
<g id="node19" class="node">
<title>Getfilemetadatausingpath_iffilealreadyexists</title>
<path fill="#add8e6" stroke="#000000" d="M1684.1116,-1469.8C1684.1116,-1469.8 1538.7998,-1469.8 1538.7998,-1469.8 1532.7998,-1469.8 1526.7998,-1463.8 1526.7998,-1457.8 1526.7998,-1457.8 1526.7998,-1445.8 1526.7998,-1445.8 1526.7998,-1439.8 1532.7998,-1433.8 1538.7998,-1433.8 1538.7998,-1433.8 1684.1116,-1433.8 1684.1116,-1433.8 1690.1116,-1433.8 1696.1116,-1439.8 1696.1116,-1445.8 1696.1116,-1445.8 1696.1116,-1457.8 1696.1116,-1457.8 1696.1116,-1463.8 1690.1116,-1469.8 1684.1116,-1469.8"/>
<text text-anchor="middle" x="1611.4557" y="-1447.6" font-family="Times,serif" font-size="14.00" fill="#000000">Get file metadata (if exists)</text>
</g>
<!-- Compose_CloudFlowDefination&#45;&gt;Getfilemetadatausingpath_iffilealreadyexists -->
<g id="edge16" class="edge">
<title>Compose_CloudFlowDefination&#45;&gt;Getfilemetadatausingpath_iffilealreadyexists</title>
<path fill="none" stroke="#000000" d="M1611.4557,-1595.354C1611.4557,-1567.4351 1611.4557,-1513.8651 1611.4557,-1480.6464"/>
<polygon fill="#000000" stroke="#000000" points="1614.9558,-1480.2275 1611.4557,-1470.2276 1607.9558,-1480.2276 1614.9558,-1480.2275"/>
</g>
<!-- Compose_AIPromptGenerateFlowchartDOTCode -->
<g id="node20" class="node">
<title>Compose_AIPromptGenerateFlowchartDOTCode</title>
<path fill="#add8e6" stroke="#000000" d="M1674.2484,-1343C1674.2484,-1343 1370.663,-1343 1370.663,-1343 1364.663,-1343 1358.663,-1337 1358.663,-1331 1358.663,-1331 1358.663,-1319 1358.663,-1319 1358.663,-1313 1364.663,-1307 1370.663,-1307 1370.663,-1307 1674.2484,-1307 1674.2484,-1307 1680.2484,-1307 1686.2484,-1313 1686.2484,-1319 1686.2484,-1319 1686.2484,-1331 1686.2484,-1331 1686.2484,-1337 1680.2484,-1343 1674.2484,-1343"/>
<text text-anchor="middle" x="1522.4557" y="-1320.8" font-family="Times,serif" font-size="14.00" fill="#000000">Compose &#45; AI Prompt &#45; Generate Flowchart DOT Code</text>
</g>
<!-- Getfilemetadatausingpath_iffilealreadyexists&#45;&gt;Compose_AIPromptGenerateFlowchartDOTCode -->
<g id="edge18" class="edge">
<title>Getfilemetadatausingpath_iffilealreadyexists&#45;&gt;Compose_AIPromptGenerateFlowchartDOTCode</title>
<path fill="none" stroke="#000000" stroke-dasharray="1,5" d="M1598.7042,-1433.6327C1583.5697,-1412.0703 1558.2122,-1375.9429 1540.9298,-1351.3204"/>
<polygon fill="#000000" stroke="#000000" points="1543.7934,-1349.3079 1535.1836,-1343.1336 1538.0639,-1353.3295 1543.7934,-1349.3079"/>
<text text-anchor="middle" x="1587.9522" y="-1384.2" font-family="Times,serif" font-size="14.00" fill="#000000">Failed</text>
</g>
<!-- Getfileproperties_ForExistingSVGFile -->
<g id="node24" class="node">
<title>Getfileproperties_ForExistingSVGFile</title>
<path fill="#add8e6" stroke="#000000" d="M1900.7862,-1343C1900.7862,-1343 1716.1252,-1343 1716.1252,-1343 1710.1252,-1343 1704.1252,-1337 1704.1252,-1331 1704.1252,-1331 1704.1252,-1319 1704.1252,-1319 1704.1252,-1313 1710.1252,-1307 1716.1252,-1307 1716.1252,-1307 1900.7862,-1307 1900.7862,-1307 1906.7862,-1307 1912.7862,-1313 1912.7862,-1319 1912.7862,-1319 1912.7862,-1331 1912.7862,-1331 1912.7862,-1337 1906.7862,-1343 1900.7862,-1343"/>
<text text-anchor="middle" x="1808.4557" y="-1320.8" font-family="Times,serif" font-size="14.00" fill="#000000">Get file properties (Existing SVG)</text>
</g>
<!-- Getfilemetadatausingpath_iffilealreadyexists&#45;&gt;Getfileproperties_ForExistingSVGFile -->
<g id="edge17" class="edge">
<title>Getfilemetadatausingpath_iffilealreadyexists&#45;&gt;Getfileproperties_ForExistingSVGFile</title>
<path fill="none" stroke="#000000" d="M1639.681,-1433.6327C1674.3512,-1411.317 1733.2586,-1373.401 1771.5056,-1348.7831"/>
<polygon fill="#000000" stroke="#000000" points="1773.7684,-1351.4891 1780.2828,-1343.1336 1769.9797,-1345.603 1773.7684,-1351.4891"/>
<text text-anchor="middle" x="1749.3835" y="-1384.2" font-family="Times,serif" font-size="14.00" fill="#000000">Succeeded</text>
</g>
<!-- RunChildFlow_AIFlowchartDOTCodeGeneration -->
<g id="node21" class="node">
<title>RunChildFlow_AIFlowchartDOTCodeGeneration</title>
<path fill="#add8e6" stroke="#000000" d="M1900.1727,-1232C1900.1727,-1232 1402.8483,-1232 1402.8483,-1232 1396.8483,-1232 1385.0535,-1230.4444 1379.2586,-1228.8889 1379.2586,-1228.8889 1268.3284,-1199.1111 1268.3284,-1199.1111 1262.5336,-1197.5556 1262.7387,-1196 1268.7387,-1196 1268.7387,-1196 1766.0631,-1196 1766.0631,-1196 1772.0631,-1196 1783.8579,-1197.5556 1789.6528,-1199.1111 1789.6528,-1199.1111 1900.583,-1228.8889 1900.583,-1228.8889 1906.3778,-1230.4444 1906.1727,-1232 1900.1727,-1232"/>
<text text-anchor="middle" x="1584.4557" y="-1209.8" font-family="Times,serif" font-size="14.00" fill="#000000">Run Child Flow &#45; AI Flowchart DOT Code Generation</text>
</g>
<!-- Compose_AIPromptGenerateFlowchartDOTCode&#45;&gt;RunChildFlow_AIFlowchartDOTCodeGeneration -->
<g id="edge19" class="edge">
<title>Compose_AIPromptGenerateFlowchartDOTCode&#45;&gt;RunChildFlow_AIFlowchartDOTCodeGeneration</title>
<path fill="none" stroke="#000000" d="M1532.6937,-1306.6706C1542.6557,-1288.8356 1557.9115,-1261.5227 1569.2837,-1241.1628"/>
<polygon fill="#000000" stroke="#000000" points="1572.3816,-1242.7938 1574.2025,-1232.3566 1566.2703,-1239.3803 1572.3816,-1242.7938"/>
</g>
<!-- Compose_GraphvizDOTCodeOutput -->
<g id="node22" class="node">
<title>Compose_GraphvizDOTCodeOutput</title>
<path fill="#add8e6" stroke="#000000" d="M1692.7947,-1121C1692.7947,-1121 1476.1167,-1121 1476.1167,-1121 1470.1167,-1121 1464.1167,-1115 1464.1167,-1109 1464.1167,-1109 1464.1167,-1097 1464.1167,-1097 1464.1167,-1091 1470.1167,-1085 1476.1167,-1085 1476.1167,-1085 1692.7947,-1085 1692.7947,-1085 1698.7947,-1085 1704.7947,-1091 1704.7947,-1097 1704.7947,-1097 1704.7947,-1109 1704.7947,-1109 1704.7947,-1115 1698.7947,-1121 1692.7947,-1121"/>
<text text-anchor="middle" x="1584.4557" y="-1098.8" font-family="Times,serif" font-size="14.00" fill="#000000">Compose &#45; Graphviz DOT Code Output</text>
</g>
<!-- RunChildFlow_AIFlowchartDOTCodeGeneration&#45;&gt;Compose_GraphvizDOTCodeOutput -->
<g id="edge20" class="edge">
<title>RunChildFlow_AIFlowchartDOTCodeGeneration&#45;&gt;Compose_GraphvizDOTCodeOutput</title>
<path fill="none" stroke="#000000" d="M1584.4557,-1195.6706C1584.4557,-1178.2373 1584.4557,-1151.7482 1584.4557,-1131.5489"/>
<polygon fill="#000000" stroke="#000000" points="1587.9558,-1131.3566 1584.4557,-1121.3566 1580.9558,-1131.3567 1587.9558,-1131.3566"/>
</g>
<!-- RunChildFlow_GenerateFlowchartSVG -->
<g id="node23" class="node">
<title>RunChildFlow_GenerateFlowchartSVG</title>
<path fill="#add8e6" stroke="#000000" d="M1835.6963,-1010C1835.6963,-1010 1440.9395,-1010 1440.9395,-1010 1434.9395,-1010 1423.2488,-1008.0983 1417.5582,-1006.1965 1417.5582,-1006.1965 1332.5964,-977.8035 1332.5964,-977.8035 1326.9058,-975.9017 1327.2151,-974 1333.2151,-974 1333.2151,-974 1727.972,-974 1727.972,-974 1733.972,-974 1745.6626,-975.9017 1751.3533,-977.8035 1751.3533,-977.8035 1836.315,-1006.1965 1836.315,-1006.1965 1842.0056,-1008.0983 1841.6963,-1010 1835.6963,-1010"/>
<text text-anchor="middle" x="1584.4557" y="-987.8" font-family="Times,serif" font-size="14.00" fill="#000000">Run Child Flow &#45; Generate Flowchart SVG</text>
</g>
<!-- Compose_GraphvizDOTCodeOutput&#45;&gt;RunChildFlow_GenerateFlowchartSVG -->
<g id="edge21" class="edge">
<title>Compose_GraphvizDOTCodeOutput&#45;&gt;RunChildFlow_GenerateFlowchartSVG</title>
<path fill="none" stroke="#000000" d="M1584.4557,-1084.6706C1584.4557,-1067.2373 1584.4557,-1040.7482 1584.4557,-1020.5489"/>
<polygon fill="#000000" stroke="#000000" points="1587.9558,-1020.3566 1584.4557,-1010.3566 1580.9558,-1020.3567 1587.9558,-1020.3566"/>
</g>
<!-- Select_CreateInputvariablesArraywithBulletPoints -->
<g id="node25" class="node">
<title>Select_CreateInputvariablesArraywithBulletPoints</title>
<path fill="#add8e6" stroke="#000000" d="M2156.0796,-1631.6C2156.0796,-1631.6 1958.8318,-1631.6 1958.8318,-1631.6 1952.8318,-1631.6 1946.8318,-1625.6 1946.8318,-1619.6 1946.8318,-1619.6 1946.8318,-1607.6 1946.8318,-1607.6 1946.8318,-1601.6 1952.8318,-1595.6 1958.8318,-1595.6 1958.8318,-1595.6 2156.0796,-1595.6 2156.0796,-1595.6 2162.0796,-1595.6 2168.0796,-1601.6 2168.0796,-1607.6 2168.0796,-1607.6 2168.0796,-1619.6 2168.0796,-1619.6 2168.0796,-1625.6 2162.0796,-1631.6 2156.0796,-1631.6"/>
<text text-anchor="middle" x="2057.4557" y="-1609.4" font-family="Times,serif" font-size="14.00" fill="#000000">Select &#45; Create Input variables Array</text>
</g>
<!-- Select_CreateOutputVariablesArraywithBulletPoints -->
<g id="node26" class="node">
<title>Select_CreateOutputVariablesArraywithBulletPoints</title>
<path fill="#add8e6" stroke="#000000" d="M2162.5225,-1469.8C2162.5225,-1469.8 1952.3889,-1469.8 1952.3889,-1469.8 1946.3889,-1469.8 1940.3889,-1463.8 1940.3889,-1457.8 1940.3889,-1457.8 1940.3889,-1445.8 1940.3889,-1445.8 1940.3889,-1439.8 1946.3889,-1433.8 1952.3889,-1433.8 1952.3889,-1433.8 2162.5225,-1433.8 2162.5225,-1433.8 2168.5225,-1433.8 2174.5225,-1439.8 2174.5225,-1445.8 2174.5225,-1445.8 2174.5225,-1457.8 2174.5225,-1457.8 2174.5225,-1463.8 2168.5225,-1469.8 2162.5225,-1469.8"/>
<text text-anchor="middle" x="2057.4557" y="-1447.6" font-family="Times,serif" font-size="14.00" fill="#000000">Select &#45; Create Output Variables Array</text>
</g>
<!-- Select_CreateInputvariablesArraywithBulletPoints&#45;&gt;Select_CreateOutputVariablesArraywithBulletPoints -->
<g id="edge22" class="edge">
<title>Select_CreateInputvariablesArraywithBulletPoints&#45;&gt;Select_CreateOutputVariablesArraywithBulletPoints</title>
<path fill="none" stroke="#000000" d="M2057.4557,-1595.354C2057.4557,-1567.4351 2057.4557,-1513.8651 2057.4557,-1480.6464"/>
<polygon fill="#000000" stroke="#000000" points="2060.9558,-1480.2275 2057.4557,-1470.2276 2053.9558,-1480.2276 2060.9558,-1480.2275"/>
</g>
<!-- Select_CreateExtInfrastructuresArraywithBulletPoints -->
<g id="node27" class="node">
<title>Select_CreateExtInfrastructuresArraywithBulletPoints</title>
<path fill="#add8e6" stroke="#000000" d="M2166.5586,-1343C2166.5586,-1343 1948.3528,-1343 1948.3528,-1343 1942.3528,-1343 1936.3528,-1337 1936.3528,-1331 1936.3528,-1331 1936.3528,-1319 1936.3528,-1319 1936.3528,-1313 1942.3528,-1307 1948.3528,-1307 1948.3528,-1307 2166.5586,-1307 2166.5586,-1307 2172.5586,-1307 2178.5586,-1313 2178.5586,-1319 2178.5586,-1319 2178.5586,-1331 2178.5586,-1331 2178.5586,-1337 2172.5586,-1343 2166.5586,-1343"/>
<text text-anchor="middle" x="2057.4557" y="-1320.8" font-family="Times,serif" font-size="14.00" fill="#000000">Select &#45; Create Ext Infrastructures Array</text>
</g>
<!-- Select_CreateOutputVariablesArraywithBulletPoints&#45;&gt;Select_CreateExtInfrastructuresArraywithBulletPoints -->
<g id="edge23" class="edge">
<title>Select_CreateOutputVariablesArraywithBulletPoints&#45;&gt;Select_CreateExtInfrastructuresArraywithBulletPoints</title>
<path fill="none" stroke="#000000" d="M2057.4557,-1433.6327C2057.4557,-1412.6352 2057.4557,-1377.8261 2057.4557,-1353.279"/>
<polygon fill="#000000" stroke="#000000" points="2060.9558,-1353.1336 2057.4557,-1343.1336 2053.9558,-1353.1337 2060.9558,-1353.1336"/>
</g>
<!-- Select_CreateExternalsystemArraywithBulletPoint -->
<g id="node28" class="node">
<title>Select_CreateExternalsystemArraywithBulletPoint</title>
<path fill="#add8e6" stroke="#000000" d="M2159.3066,-1232C2159.3066,-1232 1955.6049,-1232 1955.6049,-1232 1949.6049,-1232 1943.6049,-1226 1943.6049,-1220 1943.6049,-1220 1943.6049,-1208 1943.6049,-1208 1943.6049,-1202 1949.6049,-1196 1955.6049,-1196 1955.6049,-1196 2159.3066,-1196 2159.3066,-1196 2165.3066,-1196 2171.3066,-1202 2171.3066,-1208 2171.3066,-1208 2171.3066,-1220 2171.3066,-1220 2171.3066,-1226 2165.3066,-1232 2159.3066,-1232"/>
<text text-anchor="middle" x="2057.4557" y="-1209.8" font-family="Times,serif" font-size="14.00" fill="#000000">Select &#45; Create External system Array</text>
</g>
<!-- Select_CreateExtInfrastructuresArraywithBulletPoints&#45;&gt;Select_CreateExternalsystemArraywithBulletPoint -->
<g id="edge24" class="edge">
<title>Select_CreateExtInfrastructuresArraywithBulletPoints&#45;&gt;Select_CreateExternalsystemArraywithBulletPoint</title>
<path fill="none" stroke="#000000" d="M2057.4557,-1306.6706C2057.4557,-1289.2373 2057.4557,-1262.7482 2057.4557,-1242.5489"/>
<polygon fill="#000000" stroke="#000000" points="2060.9558,-1242.3566 2057.4557,-1232.3566 2053.9558,-1242.3567 2060.9558,-1242.3566"/>
</g>
<!-- Select_CreateErrorhandlingArraywithBulletPoints -->
<g id="node29" class="node">
<title>Select_CreateErrorhandlingArraywithBulletPoints</title>
<path fill="#add8e6" stroke="#000000" d="M2155.5281,-1121C2155.5281,-1121 1959.3833,-1121 1959.3833,-1121 1953.3833,-1121 1947.3833,-1115 1947.3833,-1109 1947.3833,-1109 1947.3833,-1097 1947.3833,-1097 1947.3833,-1091 1953.3833,-1085 1959.3833,-1085 1959.3833,-1085 2155.5281,-1085 2155.5281,-1085 2161.5281,-1085 2167.5281,-1091 2167.5281,-1097 2167.5281,-1097 2167.5281,-1109 2167.5281,-1109 2167.5281,-1115 2161.5281,-1121 2155.5281,-1121"/>
<text text-anchor="middle" x="2057.4557" y="-1098.8" font-family="Times,serif" font-size="14.00" fill="#000000">Select &#45; Create Error handling Array</text>
</g>
<!-- Select_CreateExternalsystemArraywithBulletPoint&#45;&gt;Select_CreateErrorhandlingArraywithBulletPoints -->
<g id="edge25" class="edge">
<title>Select_CreateExternalsystemArraywithBulletPoint&#45;&gt;Select_CreateErrorhandlingArraywithBulletPoints</title>
<path fill="none" stroke="#000000" d="M2057.4557,-1195.6706C2057.4557,-1178.2373 2057.4557,-1151.7482 2057.4557,-1131.5489"/>
<polygon fill="#000000" stroke="#000000" points="2060.9558,-1131.3566 2057.4557,-1121.3566 2053.9558,-1131.3567 2060.9558,-1131.3566"/>
</g>
<!-- Select_CreateConnectionRefArraywithBulletPoints -->
<g id="node30" class="node">
<title>Select_CreateConnectionRefArraywithBulletPoints</title>
<path fill="#add8e6" stroke="#000000" d="M2158.7569,-1010C2158.7569,-1010 1956.1545,-1010 1956.1545,-1010 1950.1545,-1010 1944.1545,-1004 1944.1545,-998 1944.1545,-998 1944.1545,-986 1944.1545,-986 1944.1545,-980 1950.1545,-974 1956.1545,-974 1956.1545,-974 2158.7569,-974 2158.7569,-974 2164.7569,-974 2170.7569,-980 2170.7569,-986 2170.7569,-986 2170.7569,-998 2170.7569,-998 2170.7569,-1004 2164.7569,-1010 2158.7569,-1010"/>
<text text-anchor="middle" x="2057.4557" y="-987.8" font-family="Times,serif" font-size="14.00" fill="#000000">Select &#45; Create Connection Ref Array</text>
</g>
<!-- Select_CreateErrorhandlingArraywithBulletPoints&#45;&gt;Select_CreateConnectionRefArraywithBulletPoints -->
<g id="edge26" class="edge">
<title>Select_CreateErrorhandlingArraywithBulletPoints&#45;&gt;Select_CreateConnectionRefArraywithBulletPoints</title>
<path fill="none" stroke="#000000" d="M2057.4557,-1084.6706C2057.4557,-1067.2373 2057.4557,-1040.7482 2057.4557,-1020.5489"/>
<polygon fill="#000000" stroke="#000000" points="2060.9558,-1020.3566 2057.4557,-1010.3566 2053.9558,-1020.3567 2060.9558,-1020.3566"/>
</g>
<!-- Select_CreateBEArraywithBulletPoints -->
<g id="node31" class="node">
<title>Select_CreateBEArraywithBulletPoints</title>
<path fill="#add8e6" stroke="#000000" d="M2123.3871,-899C2123.3871,-899 1991.5243,-899 1991.5243,-899 1985.5243,-899 1979.5243,-893 1979.5243,-887 1979.5243,-887 1979.5243,-875 1979.5243,-875 1979.5243,-869 1985.5243,-863 1991.5243,-863 1991.5243,-863 2123.3871,-863 2123.3871,-863 2129.3871,-863 2135.3871,-869 2135.3871,-875 2135.3871,-875 2135.3871,-887 2135.3871,-887 2135.3871,-893 2129.3871,-899 2123.3871,-899"/>
<text text-anchor="middle" x="2057.4557" y="-876.8" font-family="Times,serif" font-size="14.00" fill="#000000">Select &#45; Create BE Array</text>
</g>
<!-- Select_CreateConnectionRefArraywithBulletPoints&#45;&gt;Select_CreateBEArraywithBulletPoints -->
<g id="edge27" class="edge">
<title>Select_CreateConnectionRefArraywithBulletPoints&#45;&gt;Select_CreateBEArraywithBulletPoints</title>
<path fill="none" stroke="#000000" d="M2057.4557,-973.6706C2057.4557,-956.2373 2057.4557,-929.7482 2057.4557,-909.5489"/>
<polygon fill="#000000" stroke="#000000" points="2060.9558,-909.3566 2057.4557,-899.3566 2053.9558,-909.3567 2060.9558,-909.3566"/>
</g>
<!-- Select_CreateSEArraywithBulletPoints -->
<g id="node32" class="node">
<title>Select_CreateSEArraywithBulletPoints</title>
<path fill="#add8e6" stroke="#000000" d="M2122.8336,-788C2122.8336,-788 1992.0778,-788 1992.0778,-788 1986.0778,-788 1980.0778,-782 1980.0778,-776 1980.0778,-776 1980.0778,-764 1980.0778,-764 1980.0778,-758 1986.0778,-752 1992.0778,-752 1992.0778,-752 2122.8336,-752 2122.8336,-752 2128.8336,-752 2134.8336,-758 2134.8336,-764 2134.8336,-764 2134.8336,-776 2134.8336,-776 2134.8336,-782 2128.8336,-788 2122.8336,-788"/>
<text text-anchor="middle" x="2057.4557" y="-765.8" font-family="Times,serif" font-size="14.00" fill="#000000">Select &#45; Create SE Array</text>
</g>
<!-- Select_CreateBEArraywithBulletPoints&#45;&gt;Select_CreateSEArraywithBulletPoints -->
<g id="edge28" class="edge">
<title>Select_CreateBEArraywithBulletPoints&#45;&gt;Select_CreateSEArraywithBulletPoints</title>
<path fill="none" stroke="#000000" d="M2057.4557,-862.6706C2057.4557,-845.2373 2057.4557,-818.7482 2057.4557,-798.5489"/>
<polygon fill="#000000" stroke="#000000" points="2060.9558,-798.3566 2057.4557,-788.3566 2053.9558,-798.3567 2060.9558,-798.3566"/>
</g>
</g>
</svg>
