<?xml version="1.0" encoding="UTF-8" standalone="no"?>
<!DOCTYPE svg PUBLIC "-//W3C//DTD SVG 1.1//EN"
 "http://www.w3.org/Graphics/SVG/1.1/DTD/svg11.dtd">
<!-- Generated by graphviz version 2.40.1 (20161225.0304)
 -->
<!-- Title: %0 Pages: 1 -->
<svg width="3060pt" height="1569pt"
 viewBox="0.00 0.00 3060.00 1568.80" xmlns="http://www.w3.org/2000/svg" xmlns:xlink="http://www.w3.org/1999/xlink">
<g id="graph0" class="graph" transform="scale(0.6 0.6) rotate(0) translate(4 1564.8)">
<title>%0</title>
<polygon fill="#ffffff" stroke="transparent" points="-4,4 -4,-1564.8 3056,-1564.8 3056,4 -4,4"/>
<g id="clust1" class="cluster">
<title>cluster_Scope_Get_Flow_IDs</title>
<polygon fill="#d3d3d3" stroke="#000000" points="1246,-568 1246,-716.8 1504,-716.8 1504,-568 1246,-568"/>
<text text-anchor="middle" x="1375" y="-700.2" font-family="Times,serif" font-size="14.00" fill="#000000">Scope: Get Flow IDs Details</text>
</g>
<g id="clust2" class="cluster">
<title>cluster_Scope_Process_Desktop_flows</title>
<polygon fill="#d3d3d3" stroke="#000000" points="1766,-496 1766,-975.2 3044,-975.2 3044,-496 1766,-496"/>
<text text-anchor="middle" x="2405" y="-958.6" font-family="Times,serif" font-size="14.00" fill="#000000">Scope: Process Desktop flows Details</text>
</g>
<g id="clust3" class="cluster">
<title>cluster_Scope_Process_Individual_Desktop_Flow</title>
<polygon fill="#d3d3d3" stroke="#000000" points="1774,-568 1774,-942.4 2746,-942.4 2746,-568 1774,-568"/>
<text text-anchor="middle" x="2260" y="-925.8" font-family="Times,serif" font-size="14.00" fill="#000000">Scope: Process Individual Desktop Flow Details</text>
</g>
<g id="clust4" class="cluster">
<title>cluster_Scope_Desktop_Repeating</title>
<polygon fill="#d3d3d3" stroke="#000000" points="2390,-640 2390,-793.6 2726,-793.6 2726,-640 2390,-640"/>
<text text-anchor="middle" x="2558" y="-777" font-family="Times,serif" font-size="14.00" fill="#000000">Scope: Desktop Repeating Section Details</text>
</g>
<g id="clust5" class="cluster">
<title>cluster_Scope_Process_Cloud_flows</title>
<polygon fill="#d3d3d3" stroke="#000000" points="8,-496 8,-1084.8 1238,-1084.8 1238,-496 8,-496"/>
<text text-anchor="middle" x="623" y="-1068.2" font-family="Times,serif" font-size="14.00" fill="#000000">Scope: Process Cloud flows Details</text>
</g>
<g id="clust6" class="cluster">
<title>cluster_Scope_Process_Individual_Cloud_Flow</title>
<polygon fill="#d3d3d3" stroke="#000000" points="16,-568 16,-1052 952,-1052 952,-568 16,-568"/>
<text text-anchor="middle" x="484" y="-1035.4" font-family="Times,serif" font-size="14.00" fill="#000000">Scope: Process Individual Cloud Flow Details</text>
</g>
<g id="clust7" class="cluster">
<title>cluster_Scope_Cloud_Repeating</title>
<polygon fill="#d3d3d3" stroke="#000000" points="608,-640 608,-793.6 932,-793.6 932,-640 608,-640"/>
<text text-anchor="middle" x="770" y="-777" font-family="Times,serif" font-size="14.00" fill="#000000">Scope: Cloud Repeating Section Details</text>
</g>
<!-- manual -->
<g id="node1" class="node">
<title>manual</title>
<ellipse fill="#add8e6" stroke="#000000" cx="1607" cy="-1542.8" rx="110.0122" ry="18"/>
<text text-anchor="middle" x="1607" y="-1538.6" font-family="Times,serif" font-size="14.00" fill="#000000">Trigger: Manually trigger</text>
</g>
<!-- Compose_Destination_Folder_Path_Input -->
<g id="node9" class="node">
<title>Compose_Destination_Folder_Path_Input</title>
<path fill="#add8e6" stroke="#000000" d="M1699.7562,-1488.8C1699.7562,-1488.8 1514.2438,-1488.8 1514.2438,-1488.8 1508.2438,-1488.8 1502.2438,-1482.8 1502.2438,-1476.8 1502.2438,-1476.8 1502.2438,-1464.8 1502.2438,-1464.8 1502.2438,-1458.8 1508.2438,-1452.8 1514.2438,-1452.8 1514.2438,-1452.8 1699.7562,-1452.8 1699.7562,-1452.8 1705.7562,-1452.8 1711.7562,-1458.8 1711.7562,-1464.8 1711.7562,-1464.8 1711.7562,-1476.8 1711.7562,-1476.8 1711.7562,-1482.8 1705.7562,-1488.8 1699.7562,-1488.8"/>
<text text-anchor="middle" x="1607" y="-1466.6" font-family="Times,serif" font-size="14.00" fill="#000000">Compose: Destination Folder Path</text>
</g>
<!-- manual&#45;&gt;Compose_Destination_Folder_Path_Input -->
<g id="edge25" class="edge">
<title>manual&#45;&gt;Compose_Destination_Folder_Path_Input</title>
<path fill="none" stroke="#000000" d="M1607,-1524.6314C1607,-1516.931 1607,-1507.7743 1607,-1499.2166"/>
<polygon fill="#000000" stroke="#000000" points="1610.5001,-1499.2132 1607,-1489.2133 1603.5001,-1499.2133 1610.5001,-1499.2132"/>
</g>
<!-- Respond_to_App -->
<g id="node2" class="node">
<title>Respond_to_App</title>
<ellipse fill="#add8e6" stroke="#000000" cx="1545" cy="-18" rx="104.2438" ry="18"/>
<text text-anchor="middle" x="1545" y="-13.8" font-family="Times,serif" font-size="14.00" fill="#000000">Respond to App or flow</text>
</g>
<!-- Run_Child_Extract_XML -->
<g id="node3" class="node">
<title>Run_Child_Extract_XML</title>
<path fill="#add8e6" stroke="#000000" d="M1837.1531,-1272.8C1837.1531,-1272.8 1475.9417,-1272.8 1475.9417,-1272.8 1469.9417,-1272.8 1458.3023,-1270.7513 1452.663,-1268.7025 1452.663,-1268.7025 1376.1257,-1240.8975 1376.1257,-1240.8975 1370.4863,-1238.8487 1370.8469,-1236.8 1376.8469,-1236.8 1376.8469,-1236.8 1738.0583,-1236.8 1738.0583,-1236.8 1744.0583,-1236.8 1755.6977,-1238.8487 1761.337,-1240.8975 1761.337,-1240.8975 1837.8743,-1268.7025 1837.8743,-1268.7025 1843.5137,-1270.7513 1843.1531,-1272.8 1837.1531,-1272.8"/>
<text text-anchor="middle" x="1607" y="-1250.6" font-family="Times,serif" font-size="14.00" fill="#000000">Run Child Flow: Extract Solution XML</text>
</g>
<!-- Init_Entire_Desktop_Info -->
<g id="node12" class="node">
<title>Init_Entire_Desktop_Info</title>
<path fill="#add8e6" stroke="#000000" d="M1727.6847,-1200.8C1727.6847,-1200.8 1486.3153,-1200.8 1486.3153,-1200.8 1480.3153,-1200.8 1474.3153,-1194.8 1474.3153,-1188.8 1474.3153,-1188.8 1474.3153,-1176.8 1474.3153,-1176.8 1474.3153,-1170.8 1480.3153,-1164.8 1486.3153,-1164.8 1486.3153,-1164.8 1727.6847,-1164.8 1727.6847,-1164.8 1733.6847,-1164.8 1739.6847,-1170.8 1739.6847,-1176.8 1739.6847,-1176.8 1739.6847,-1188.8 1739.6847,-1188.8 1739.6847,-1194.8 1733.6847,-1200.8 1727.6847,-1200.8"/>
<text text-anchor="middle" x="1607" y="-1178.6" font-family="Times,serif" font-size="14.00" fill="#000000">Initialize Variable: Entire Desktop flow Info</text>
</g>
<!-- Run_Child_Extract_XML&#45;&gt;Init_Entire_Desktop_Info -->
<g id="edge29" class="edge">
<title>Run_Child_Extract_XML&#45;&gt;Init_Entire_Desktop_Info</title>
<path fill="none" stroke="#000000" d="M1607,-1236.6314C1607,-1228.931 1607,-1219.7743 1607,-1211.2166"/>
<polygon fill="#000000" stroke="#000000" points="1610.5001,-1211.2132 1607,-1201.2133 1603.5001,-1211.2133 1610.5001,-1211.2132"/>
</g>
<!-- Run_Child_Process_Entire_Flow -->
<g id="node4" class="node">
<title>Run_Child_Process_Entire_Flow</title>
<path fill="#add8e6" stroke="#000000" d="M1791.3673,-396C1791.3673,-396 1404.3627,-396 1404.3627,-396 1398.3627,-396 1386.6829,-394.0661 1381.0032,-392.1322 1381.0032,-392.1322 1297.9923,-363.8678 1297.9923,-363.8678 1292.3125,-361.9339 1292.6327,-360 1298.6327,-360 1298.6327,-360 1685.6373,-360 1685.6373,-360 1691.6373,-360 1703.3171,-361.9339 1708.9968,-363.8678 1708.9968,-363.8678 1792.0077,-392.1322 1792.0077,-392.1322 1797.6875,-394.0661 1797.3673,-396 1791.3673,-396"/>
<text text-anchor="middle" x="1545" y="-373.8" font-family="Times,serif" font-size="14.00" fill="#000000">Run Child Flow: Process Entire Flow Text</text>
</g>
<!-- Compose_Entire_Flow_JSON -->
<g id="node20" class="node">
<title>Compose_Entire_Flow_JSON</title>
<path fill="#add8e6" stroke="#000000" d="M1633.58,-324C1633.58,-324 1456.42,-324 1456.42,-324 1450.42,-324 1444.42,-318 1444.42,-312 1444.42,-312 1444.42,-300 1444.42,-300 1444.42,-294 1450.42,-288 1456.42,-288 1456.42,-288 1633.58,-288 1633.58,-288 1639.58,-288 1645.58,-294 1645.58,-300 1645.58,-300 1645.58,-312 1645.58,-312 1645.58,-318 1639.58,-324 1633.58,-324"/>
<text text-anchor="middle" x="1545" y="-301.8" font-family="Times,serif" font-size="14.00" fill="#000000">Compose: Entire flow text JSON</text>
</g>
<!-- Run_Child_Process_Entire_Flow&#45;&gt;Compose_Entire_Flow_JSON -->
<g id="edge48" class="edge">
<title>Run_Child_Process_Entire_Flow&#45;&gt;Compose_Entire_Flow_JSON</title>
<path fill="none" stroke="#000000" d="M1545,-359.8314C1545,-352.131 1545,-342.9743 1545,-334.4166"/>
<polygon fill="#000000" stroke="#000000" points="1548.5001,-334.4132 1545,-324.4133 1541.5001,-334.4133 1548.5001,-334.4132"/>
</g>
<!-- Run_Child_Generate_Document -->
<g id="node5" class="node">
<title>Run_Child_Generate_Document</title>
<path fill="#add8e6" stroke="#000000" d="M1823.0203,-108C1823.0203,-108 1385.6629,-108 1385.6629,-108 1379.6629,-108 1367.9212,-106.2584 1362.1795,-104.5168 1362.1795,-104.5168 1266.463,-75.4832 1266.463,-75.4832 1260.7213,-73.7416 1260.9797,-72 1266.9797,-72 1266.9797,-72 1704.3371,-72 1704.3371,-72 1710.3371,-72 1722.0788,-73.7416 1727.8205,-75.4832 1727.8205,-75.4832 1823.537,-104.5168 1823.537,-104.5168 1829.2787,-106.2584 1829.0203,-108 1823.0203,-108"/>
<text text-anchor="middle" x="1545" y="-85.8" font-family="Times,serif" font-size="14.00" fill="#000000">Run Child Flow: Generate Formatted Document</text>
</g>
<!-- Run_Child_Generate_Document&#45;&gt;Respond_to_App -->
<g id="edge52" class="edge">
<title>Run_Child_Generate_Document&#45;&gt;Respond_to_App</title>
<path fill="none" stroke="#000000" d="M1545,-71.8314C1545,-64.131 1545,-54.9743 1545,-46.4166"/>
<polygon fill="#000000" stroke="#000000" points="1548.5001,-46.4132 1545,-36.4133 1541.5001,-46.4133 1548.5001,-46.4132"/>
</g>
<!-- Scope_Get_Flow_IDs_Node -->
<g id="node6" class="node">
<title>Scope_Get_Flow_IDs_Node</title>
<path fill="#add8e6" stroke="#000000" d="M1617.1496,-540C1617.1496,-540 1426.1568,-540 1426.1568,-540 1420.1568,-540 1409.1283,-536.7268 1404.0997,-533.4536 1404.0997,-533.4536 1368.9075,-510.5464 1368.9075,-510.5464 1363.879,-507.2732 1364.8504,-504 1370.8504,-504 1370.8504,-504 1561.8432,-504 1561.8432,-504 1567.8432,-504 1578.8717,-507.2732 1583.9003,-510.5464 1583.9003,-510.5464 1619.0925,-533.4536 1619.0925,-533.4536 1624.121,-536.7268 1623.1496,-540 1617.1496,-540"/>
<text text-anchor="middle" x="1494" y="-517.8" font-family="Times,serif" font-size="14.00" fill="#000000">Scope: Get Flow IDs</text>
</g>
<!-- Scope_Process_Desktop_flows_Node -->
<g id="node7" class="node">
<title>Scope_Process_Desktop_flows_Node</title>
<path fill="#add8e6" stroke="#000000" d="M2239.4487,-468C2239.4487,-468 1965.2598,-468 1965.2598,-468 1959.2598,-468 1947.8282,-465.4509 1942.3966,-462.9018 1942.3966,-462.9018 1887.4145,-437.0982 1887.4145,-437.0982 1881.9829,-434.5491 1882.5513,-432 1888.5513,-432 1888.5513,-432 2162.7402,-432 2162.7402,-432 2168.7402,-432 2180.1718,-434.5491 2185.6034,-437.0982 2185.6034,-437.0982 2240.5855,-462.9018 2240.5855,-462.9018 2246.0171,-465.4509 2245.4487,-468 2239.4487,-468"/>
<text text-anchor="middle" x="2064" y="-445.8" font-family="Times,serif" font-size="14.00" fill="#000000">Scope: Process Desktop flows</text>
</g>
<!-- Scope_Get_Flow_IDs_Node&#45;&gt;Scope_Process_Desktop_flows_Node -->
<g id="edge40" class="edge">
<title>Scope_Get_Flow_IDs_Node&#45;&gt;Scope_Process_Desktop_flows_Node</title>
<path fill="none" stroke="#000000" d="M1584.3182,-510.5914C1679.199,-498.6064 1829.2227,-479.6561 1936.2188,-466.1408"/>
<polygon fill="#000000" stroke="#000000" points="1936.9532,-469.5759 1946.4357,-464.8502 1936.0759,-462.6311 1936.9532,-469.5759"/>
</g>
<!-- Scope_Process_Cloud_flows_Node -->
<g id="node8" class="node">
<title>Scope_Process_Cloud_flows_Node</title>
<path fill="#add8e6" stroke="#000000" d="M1517.808,-468C1517.808,-468 1263.7276,-468 1263.7276,-468 1257.7276,-468 1246.368,-465.3028 1241.0084,-462.6056 1241.0084,-462.6056 1190.9112,-437.3944 1190.9112,-437.3944 1185.5516,-434.6972 1186.192,-432 1192.192,-432 1192.192,-432 1446.2724,-432 1446.2724,-432 1452.2724,-432 1463.632,-434.6972 1468.9916,-437.3944 1468.9916,-437.3944 1519.0888,-462.6056 1519.0888,-462.6056 1524.4484,-465.3028 1523.808,-468 1517.808,-468"/>
<text text-anchor="middle" x="1355" y="-445.8" font-family="Times,serif" font-size="14.00" fill="#000000">Scope: Process Cloud flows</text>
</g>
<!-- Scope_Get_Flow_IDs_Node&#45;&gt;Scope_Process_Cloud_flows_Node -->
<g id="edge41" class="edge">
<title>Scope_Get_Flow_IDs_Node&#45;&gt;Scope_Process_Cloud_flows_Node</title>
<path fill="none" stroke="#000000" d="M1458.9244,-503.8314C1440.7339,-494.4089 1418.3342,-482.8062 1398.994,-472.7883"/>
<polygon fill="#000000" stroke="#000000" points="1400.5537,-469.6545 1390.0643,-468.1628 1397.334,-475.8701 1400.5537,-469.6545"/>
</g>
<!-- Select_Flow_ID_List -->
<g id="node23" class="node">
<title>Select_Flow_ID_List</title>
<path fill="#add8e6" stroke="#000000" d="M1483.6228,-684C1483.6228,-684 1266.3772,-684 1266.3772,-684 1260.3772,-684 1254.3772,-678 1254.3772,-672 1254.3772,-672 1254.3772,-660 1254.3772,-660 1254.3772,-654 1260.3772,-648 1266.3772,-648 1266.3772,-648 1483.6228,-648 1483.6228,-648 1489.6228,-648 1495.6228,-654 1495.6228,-660 1495.6228,-660 1495.6228,-672 1495.6228,-672 1495.6228,-678 1489.6228,-684 1483.6228,-684"/>
<text text-anchor="middle" x="1375" y="-661.8" font-family="Times,serif" font-size="14.00" fill="#000000">Select: Build Flow ID Replacement List</text>
</g>
<!-- Scope_Get_Flow_IDs_Node&#45;&gt;Select_Flow_ID_List -->
<g id="edge38" class="edge">
<title>Scope_Get_Flow_IDs_Node&#45;&gt;Select_Flow_ID_List</title>
<path fill="none" stroke="#000000" stroke-dasharray="1,5" d="M1494.4843,-540.0312C1494.1081,-559.6074 1490.7751,-590.8945 1475,-612 1465.2178,-625.0876 1451.3001,-635.3587 1436.946,-643.2658"/>
<polygon fill="#000000" stroke="#000000" points="1435.2683,-640.193 1427.9853,-647.8877 1438.4772,-646.4142 1435.2683,-640.193"/>
</g>
<!-- Scope_Process_Desktop_flows_Node&#45;&gt;Run_Child_Process_Entire_Flow -->
<g id="edge46" class="edge">
<title>Scope_Process_Desktop_flows_Node&#45;&gt;Run_Child_Process_Entire_Flow</title>
<path fill="none" stroke="#000000" d="M1934.0389,-431.9707C1858.3209,-421.4665 1762.8133,-408.2169 1685.3787,-397.4745"/>
<polygon fill="#000000" stroke="#000000" points="1685.4475,-393.9506 1675.0614,-396.0432 1684.4856,-400.8842 1685.4475,-393.9506"/>
</g>
<!-- Compose_Desktop_Category -->
<g id="node25" class="node">
<title>Compose_Desktop_Category</title>
<path fill="#add8e6" stroke="#000000" d="M3024.0342,-684C3024.0342,-684 2787.9658,-684 2787.9658,-684 2781.9658,-684 2775.9658,-678 2775.9658,-672 2775.9658,-672 2775.9658,-660 2775.9658,-660 2775.9658,-654 2781.9658,-648 2787.9658,-648 2787.9658,-648 3024.0342,-648 3024.0342,-648 3030.0342,-648 3036.0342,-654 3036.0342,-660 3036.0342,-660 3036.0342,-672 3036.0342,-672 3036.0342,-678 3030.0342,-684 3024.0342,-684"/>
<text text-anchor="middle" x="2906" y="-661.8" font-family="Times,serif" font-size="14.00" fill="#000000">Compose: Desktop flow category (Value 6)</text>
</g>
<!-- Scope_Process_Desktop_flows_Node&#45;&gt;Compose_Desktop_Category -->
<g id="edge42" class="edge">
<title>Scope_Process_Desktop_flows_Node&#45;&gt;Compose_Desktop_Category</title>
<path fill="none" stroke="#000000" stroke-dasharray="1,5" d="M2225.9633,-455.9105C2346.4748,-461.8983 2514.6999,-473.6121 2661,-496 2801.6735,-517.5269 2884.404,-456.6303 2973,-568 2985.1743,-583.3038 2981.4392,-594.3592 2973,-612 2967.404,-623.6975 2957.9007,-633.6705 2947.7828,-641.7437"/>
<polygon fill="#000000" stroke="#000000" points="2945.5504,-639.0417 2939.5997,-647.8076 2949.718,-644.6659 2945.5504,-639.0417"/>
</g>
<!-- Scope_Process_Cloud_flows_Node&#45;&gt;Run_Child_Process_Entire_Flow -->
<g id="edge47" class="edge">
<title>Scope_Process_Cloud_flows_Node&#45;&gt;Run_Child_Process_Entire_Flow</title>
<path fill="none" stroke="#000000" d="M1402.945,-431.8314C1428.8082,-422.0306 1460.8962,-409.8709 1488.028,-399.5894"/>
<polygon fill="#000000" stroke="#000000" points="1489.2889,-402.8545 1497.3997,-396.038 1486.8084,-396.3087 1489.2889,-402.8545"/>
</g>
<!-- Compose_Cloud_Category -->
<g id="node35" class="node">
<title>Compose_Cloud_Category</title>
<path fill="#add8e6" stroke="#000000" d="M1218.1046,-684C1218.1046,-684 993.8954,-684 993.8954,-684 987.8954,-684 981.8954,-678 981.8954,-672 981.8954,-672 981.8954,-660 981.8954,-660 981.8954,-654 987.8954,-648 993.8954,-648 993.8954,-648 1218.1046,-648 1218.1046,-648 1224.1046,-648 1230.1046,-654 1230.1046,-660 1230.1046,-660 1230.1046,-672 1230.1046,-672 1230.1046,-678 1224.1046,-684 1218.1046,-684"/>
<text text-anchor="middle" x="1106" y="-661.8" font-family="Times,serif" font-size="14.00" fill="#000000">Compose: Cloud flow category (Value 5)</text>
</g>
<!-- Scope_Process_Cloud_flows_Node&#45;&gt;Compose_Cloud_Category -->
<g id="edge44" class="edge">
<title>Scope_Process_Cloud_flows_Node&#45;&gt;Compose_Cloud_Category</title>
<path fill="none" stroke="#000000" stroke-dasharray="1,5" d="M1338.1487,-468.061C1308.7318,-499.1397 1245.4616,-564.0138 1186,-612 1172.8427,-622.6181 1157.6295,-633.2548 1144.0249,-642.2459"/>
<polygon fill="#000000" stroke="#000000" points="1141.8192,-639.5058 1135.3548,-647.9 1145.643,-645.3692 1141.8192,-639.5058"/>
</g>
<!-- Compose_Document_File_Name_Input -->
<g id="node10" class="node">
<title>Compose_Document_File_Name_Input</title>
<path fill="#add8e6" stroke="#000000" d="M1693.2989,-1416.8C1693.2989,-1416.8 1520.7011,-1416.8 1520.7011,-1416.8 1514.7011,-1416.8 1508.7011,-1410.8 1508.7011,-1404.8 1508.7011,-1404.8 1508.7011,-1392.8 1508.7011,-1392.8 1508.7011,-1386.8 1514.7011,-1380.8 1520.7011,-1380.8 1520.7011,-1380.8 1693.2989,-1380.8 1693.2989,-1380.8 1699.2989,-1380.8 1705.2989,-1386.8 1705.2989,-1392.8 1705.2989,-1392.8 1705.2989,-1404.8 1705.2989,-1404.8 1705.2989,-1410.8 1699.2989,-1416.8 1693.2989,-1416.8"/>
<text text-anchor="middle" x="1607" y="-1394.6" font-family="Times,serif" font-size="14.00" fill="#000000">Compose: Document File Name</text>
</g>
<!-- Compose_Destination_Folder_Path_Input&#45;&gt;Compose_Document_File_Name_Input -->
<g id="edge26" class="edge">
<title>Compose_Destination_Folder_Path_Input&#45;&gt;Compose_Document_File_Name_Input</title>
<path fill="none" stroke="#000000" d="M1607,-1452.6314C1607,-1444.931 1607,-1435.7743 1607,-1427.2166"/>
<polygon fill="#000000" stroke="#000000" points="1610.5001,-1427.2132 1607,-1417.2133 1603.5001,-1427.2133 1610.5001,-1427.2132"/>
</g>
<!-- Compose_Zip_File_ID_Input -->
<g id="node11" class="node">
<title>Compose_Zip_File_ID_Input</title>
<path fill="#add8e6" stroke="#000000" d="M1664.7661,-1344.8C1664.7661,-1344.8 1549.2339,-1344.8 1549.2339,-1344.8 1543.2339,-1344.8 1537.2339,-1338.8 1537.2339,-1332.8 1537.2339,-1332.8 1537.2339,-1320.8 1537.2339,-1320.8 1537.2339,-1314.8 1543.2339,-1308.8 1549.2339,-1308.8 1549.2339,-1308.8 1664.7661,-1308.8 1664.7661,-1308.8 1670.7661,-1308.8 1676.7661,-1314.8 1676.7661,-1320.8 1676.7661,-1320.8 1676.7661,-1332.8 1676.7661,-1332.8 1676.7661,-1338.8 1670.7661,-1344.8 1664.7661,-1344.8"/>
<text text-anchor="middle" x="1607" y="-1322.6" font-family="Times,serif" font-size="14.00" fill="#000000">Compose: Zip File ID</text>
</g>
<!-- Compose_Document_File_Name_Input&#45;&gt;Compose_Zip_File_ID_Input -->
<g id="edge27" class="edge">
<title>Compose_Document_File_Name_Input&#45;&gt;Compose_Zip_File_ID_Input</title>
<path fill="none" stroke="#000000" d="M1607,-1380.6314C1607,-1372.931 1607,-1363.7743 1607,-1355.2166"/>
<polygon fill="#000000" stroke="#000000" points="1610.5001,-1355.2132 1607,-1345.2133 1603.5001,-1355.2133 1610.5001,-1355.2132"/>
</g>
<!-- Compose_Zip_File_ID_Input&#45;&gt;Run_Child_Extract_XML -->
<g id="edge28" class="edge">
<title>Compose_Zip_File_ID_Input&#45;&gt;Run_Child_Extract_XML</title>
<path fill="none" stroke="#000000" d="M1607,-1308.6314C1607,-1300.931 1607,-1291.7743 1607,-1283.2166"/>
<polygon fill="#000000" stroke="#000000" points="1610.5001,-1283.2132 1607,-1273.2133 1603.5001,-1283.2133 1610.5001,-1283.2132"/>
</g>
<!-- Init_Entire_Cloud_Info -->
<g id="node13" class="node">
<title>Init_Entire_Cloud_Info</title>
<path fill="#add8e6" stroke="#000000" d="M1721.2555,-1128.8C1721.2555,-1128.8 1492.7445,-1128.8 1492.7445,-1128.8 1486.7445,-1128.8 1480.7445,-1122.8 1480.7445,-1116.8 1480.7445,-1116.8 1480.7445,-1104.8 1480.7445,-1104.8 1480.7445,-1098.8 1486.7445,-1092.8 1492.7445,-1092.8 1492.7445,-1092.8 1721.2555,-1092.8 1721.2555,-1092.8 1727.2555,-1092.8 1733.2555,-1098.8 1733.2555,-1104.8 1733.2555,-1104.8 1733.2555,-1116.8 1733.2555,-1116.8 1733.2555,-1122.8 1727.2555,-1128.8 1721.2555,-1128.8"/>
<text text-anchor="middle" x="1607" y="-1106.6" font-family="Times,serif" font-size="14.00" fill="#000000">Initialize Variable: Entire Cloud flow Info</text>
</g>
<!-- Init_Entire_Desktop_Info&#45;&gt;Init_Entire_Cloud_Info -->
<g id="edge30" class="edge">
<title>Init_Entire_Desktop_Info&#45;&gt;Init_Entire_Cloud_Info</title>
<path fill="none" stroke="#000000" d="M1607,-1164.6314C1607,-1156.931 1607,-1147.7743 1607,-1139.2166"/>
<polygon fill="#000000" stroke="#000000" points="1610.5001,-1139.2132 1607,-1129.2133 1603.5001,-1139.2133 1610.5001,-1139.2132"/>
</g>
<!-- Init_Desktop_Repeating -->
<g id="node14" class="node">
<title>Init_Desktop_Repeating</title>
<path fill="#add8e6" stroke="#000000" d="M1752.4602,-1019.2C1752.4602,-1019.2 1461.5398,-1019.2 1461.5398,-1019.2 1455.5398,-1019.2 1449.5398,-1013.2 1449.5398,-1007.2 1449.5398,-1007.2 1449.5398,-995.2 1449.5398,-995.2 1449.5398,-989.2 1455.5398,-983.2 1461.5398,-983.2 1461.5398,-983.2 1752.4602,-983.2 1752.4602,-983.2 1758.4602,-983.2 1764.4602,-989.2 1764.4602,-995.2 1764.4602,-995.2 1764.4602,-1007.2 1764.4602,-1007.2 1764.4602,-1013.2 1758.4602,-1019.2 1752.4602,-1019.2"/>
<text text-anchor="middle" x="1607" y="-997" font-family="Times,serif" font-size="14.00" fill="#000000">Initialize Variable: Desktop flows Repeating sections</text>
</g>
<!-- Init_Entire_Cloud_Info&#45;&gt;Init_Desktop_Repeating -->
<g id="edge31" class="edge">
<title>Init_Entire_Cloud_Info&#45;&gt;Init_Desktop_Repeating</title>
<path fill="none" stroke="#000000" d="M1607,-1092.7018C1607,-1075.4883 1607,-1049.3333 1607,-1029.3888"/>
<polygon fill="#000000" stroke="#000000" points="1610.5001,-1029.3251 1607,-1019.3251 1603.5001,-1029.3251 1610.5001,-1029.3251"/>
</g>
<!-- Init_Cloud_Repeating -->
<g id="node15" class="node">
<title>Init_Cloud_Repeating</title>
<path fill="#add8e6" stroke="#000000" d="M1746.0314,-909.6C1746.0314,-909.6 1467.9686,-909.6 1467.9686,-909.6 1461.9686,-909.6 1455.9686,-903.6 1455.9686,-897.6 1455.9686,-897.6 1455.9686,-885.6 1455.9686,-885.6 1455.9686,-879.6 1461.9686,-873.6 1467.9686,-873.6 1467.9686,-873.6 1746.0314,-873.6 1746.0314,-873.6 1752.0314,-873.6 1758.0314,-879.6 1758.0314,-885.6 1758.0314,-885.6 1758.0314,-897.6 1758.0314,-897.6 1758.0314,-903.6 1752.0314,-909.6 1746.0314,-909.6"/>
<text text-anchor="middle" x="1607" y="-887.4" font-family="Times,serif" font-size="14.00" fill="#000000">Initialize Variable: Cloud flows Repeating sections</text>
</g>
<!-- Init_Desktop_Repeating&#45;&gt;Init_Cloud_Repeating -->
<g id="edge32" class="edge">
<title>Init_Desktop_Repeating&#45;&gt;Init_Cloud_Repeating</title>
<path fill="none" stroke="#000000" d="M1607,-983.1018C1607,-965.8883 1607,-939.7333 1607,-919.7888"/>
<polygon fill="#000000" stroke="#000000" points="1610.5001,-919.7251 1607,-909.7251 1603.5001,-919.7251 1610.5001,-919.7251"/>
</g>
<!-- Init_Connection_Refs -->
<g id="node16" class="node">
<title>Init_Connection_Refs</title>
<path fill="#add8e6" stroke="#000000" d="M1733.5626,-837.6C1733.5626,-837.6 1502.4374,-837.6 1502.4374,-837.6 1496.4374,-837.6 1490.4374,-831.6 1490.4374,-825.6 1490.4374,-825.6 1490.4374,-813.6 1490.4374,-813.6 1490.4374,-807.6 1496.4374,-801.6 1502.4374,-801.6 1502.4374,-801.6 1733.5626,-801.6 1733.5626,-801.6 1739.5626,-801.6 1745.5626,-807.6 1745.5626,-813.6 1745.5626,-813.6 1745.5626,-825.6 1745.5626,-825.6 1745.5626,-831.6 1739.5626,-837.6 1733.5626,-837.6"/>
<text text-anchor="middle" x="1618" y="-815.4" font-family="Times,serif" font-size="14.00" fill="#000000">Initialize Variable: Connection References</text>
</g>
<!-- Init_Cloud_Repeating&#45;&gt;Init_Connection_Refs -->
<g id="edge33" class="edge">
<title>Init_Cloud_Repeating&#45;&gt;Init_Connection_Refs</title>
<path fill="none" stroke="#000000" d="M1609.7758,-873.4314C1610.9522,-865.731 1612.3511,-856.5743 1613.6586,-848.0166"/>
<polygon fill="#000000" stroke="#000000" points="1617.1364,-848.4272 1615.1869,-838.0133 1610.2167,-847.3699 1617.1364,-848.4272"/>
</g>
<!-- Init_Business_Exceptions -->
<g id="node17" class="node">
<title>Init_Business_Exceptions</title>
<path fill="#add8e6" stroke="#000000" d="M1735.3236,-760.8C1735.3236,-760.8 1518.6764,-760.8 1518.6764,-760.8 1512.6764,-760.8 1506.6764,-754.8 1506.6764,-748.8 1506.6764,-748.8 1506.6764,-736.8 1506.6764,-736.8 1506.6764,-730.8 1512.6764,-724.8 1518.6764,-724.8 1518.6764,-724.8 1735.3236,-724.8 1735.3236,-724.8 1741.3236,-724.8 1747.3236,-730.8 1747.3236,-736.8 1747.3236,-736.8 1747.3236,-748.8 1747.3236,-748.8 1747.3236,-754.8 1741.3236,-760.8 1735.3236,-760.8"/>
<text text-anchor="middle" x="1627" y="-738.6" font-family="Times,serif" font-size="14.00" fill="#000000">Initialize Variable: Business Exceptions</text>
</g>
<!-- Init_Connection_Refs&#45;&gt;Init_Business_Exceptions -->
<g id="edge34" class="edge">
<title>Init_Connection_Refs&#45;&gt;Init_Business_Exceptions</title>
<path fill="none" stroke="#000000" d="M1620.1329,-801.3995C1621.1977,-792.3132 1622.5097,-781.1176 1623.7006,-770.9549"/>
<polygon fill="#000000" stroke="#000000" points="1627.1947,-771.2093 1624.8824,-760.8699 1620.2422,-770.3945 1627.1947,-771.2093"/>
</g>
<!-- Compose_Customization_XML_JSON -->
<g id="node18" class="node">
<title>Compose_Customization_XML_JSON</title>
<path fill="#add8e6" stroke="#000000" d="M1746.1441,-684C1746.1441,-684 1525.8559,-684 1525.8559,-684 1519.8559,-684 1513.8559,-678 1513.8559,-672 1513.8559,-672 1513.8559,-660 1513.8559,-660 1513.8559,-654 1519.8559,-648 1525.8559,-648 1525.8559,-648 1746.1441,-648 1746.1441,-648 1752.1441,-648 1758.1441,-654 1758.1441,-660 1758.1441,-660 1758.1441,-672 1758.1441,-672 1758.1441,-678 1752.1441,-684 1746.1441,-684"/>
<text text-anchor="middle" x="1636" y="-661.8" font-family="Times,serif" font-size="14.00" fill="#000000">Compose: Customization XML as JSON</text>
</g>
<!-- Init_Business_Exceptions&#45;&gt;Compose_Customization_XML_JSON -->
<g id="edge35" class="edge">
<title>Init_Business_Exceptions&#45;&gt;Compose_Customization_XML_JSON</title>
<path fill="none" stroke="#000000" d="M1629.1329,-724.5995C1630.1977,-715.5132 1631.5097,-704.3176 1632.7006,-694.1549"/>
<polygon fill="#000000" stroke="#000000" points="1636.1947,-694.4093 1633.8824,-684.0699 1629.2422,-693.5945 1636.1947,-694.4093"/>
</g>
<!-- Parse_Customization_XML_JSON -->
<g id="node19" class="node">
<title>Parse_Customization_XML_JSON</title>
<path fill="#add8e6" stroke="#000000" d="M1721.4152,-612C1721.4152,-612 1538.5848,-612 1538.5848,-612 1532.5848,-612 1526.5848,-606 1526.5848,-600 1526.5848,-600 1526.5848,-588 1526.5848,-588 1526.5848,-582 1532.5848,-576 1538.5848,-576 1538.5848,-576 1721.4152,-576 1721.4152,-576 1727.4152,-576 1733.4152,-582 1733.4152,-588 1733.4152,-588 1733.4152,-600 1733.4152,-600 1733.4152,-606 1727.4152,-612 1721.4152,-612"/>
<text text-anchor="middle" x="1630" y="-589.8" font-family="Times,serif" font-size="14.00" fill="#000000">Parse JSON: Customization XML</text>
</g>
<!-- Compose_Customization_XML_JSON&#45;&gt;Parse_Customization_XML_JSON -->
<g id="edge36" class="edge">
<title>Compose_Customization_XML_JSON&#45;&gt;Parse_Customization_XML_JSON</title>
<path fill="none" stroke="#000000" d="M1634.4859,-647.8314C1633.8442,-640.131 1633.0812,-630.9743 1632.3681,-622.4166"/>
<polygon fill="#000000" stroke="#000000" points="1635.8529,-622.088 1631.5344,-612.4133 1628.8771,-622.6694 1635.8529,-622.088"/>
</g>
<!-- Parse_Customization_XML_JSON&#45;&gt;Scope_Get_Flow_IDs_Node -->
<g id="edge37" class="edge">
<title>Parse_Customization_XML_JSON&#45;&gt;Scope_Get_Flow_IDs_Node</title>
<path fill="none" stroke="#000000" d="M1595.6815,-575.8314C1577.9641,-566.4516 1556.1655,-554.9112 1537.3016,-544.9244"/>
<polygon fill="#000000" stroke="#000000" points="1538.7831,-541.7485 1528.3076,-540.1628 1535.5078,-547.935 1538.7831,-541.7485"/>
</g>
<!-- Parse_Entire_Flow_JSON -->
<g id="node21" class="node">
<title>Parse_Entire_Flow_JSON</title>
<path fill="#add8e6" stroke="#000000" d="M1626.2948,-252C1626.2948,-252 1463.7052,-252 1463.7052,-252 1457.7052,-252 1451.7052,-246 1451.7052,-240 1451.7052,-240 1451.7052,-228 1451.7052,-228 1451.7052,-222 1457.7052,-216 1463.7052,-216 1463.7052,-216 1626.2948,-216 1626.2948,-216 1632.2948,-216 1638.2948,-222 1638.2948,-228 1638.2948,-228 1638.2948,-240 1638.2948,-240 1638.2948,-246 1632.2948,-252 1626.2948,-252"/>
<text text-anchor="middle" x="1545" y="-229.8" font-family="Times,serif" font-size="14.00" fill="#000000">Parse JSON: Entire Flow Text</text>
</g>
<!-- Compose_Entire_Flow_JSON&#45;&gt;Parse_Entire_Flow_JSON -->
<g id="edge49" class="edge">
<title>Compose_Entire_Flow_JSON&#45;&gt;Parse_Entire_Flow_JSON</title>
<path fill="none" stroke="#000000" d="M1545,-287.8314C1545,-280.131 1545,-270.9743 1545,-262.4166"/>
<polygon fill="#000000" stroke="#000000" points="1548.5001,-262.4132 1545,-252.4133 1541.5001,-262.4133 1548.5001,-262.4132"/>
</g>
<!-- Compose_Document_Content -->
<g id="node22" class="node">
<title>Compose_Document_Content</title>
<path fill="#add8e6" stroke="#000000" d="M1642.8671,-180C1642.8671,-180 1447.1329,-180 1447.1329,-180 1441.1329,-180 1435.1329,-174 1435.1329,-168 1435.1329,-168 1435.1329,-156 1435.1329,-156 1435.1329,-150 1441.1329,-144 1447.1329,-144 1447.1329,-144 1642.8671,-144 1642.8671,-144 1648.8671,-144 1654.8671,-150 1654.8671,-156 1654.8671,-156 1654.8671,-168 1654.8671,-168 1654.8671,-174 1648.8671,-180 1642.8671,-180"/>
<text text-anchor="middle" x="1545" y="-157.8" font-family="Times,serif" font-size="14.00" fill="#000000">Compose: Document Content JSON</text>
</g>
<!-- Parse_Entire_Flow_JSON&#45;&gt;Compose_Document_Content -->
<g id="edge50" class="edge">
<title>Parse_Entire_Flow_JSON&#45;&gt;Compose_Document_Content</title>
<path fill="none" stroke="#000000" d="M1545,-215.8314C1545,-208.131 1545,-198.9743 1545,-190.4166"/>
<polygon fill="#000000" stroke="#000000" points="1548.5001,-190.4132 1545,-180.4133 1541.5001,-190.4133 1548.5001,-190.4132"/>
</g>
<!-- Compose_Document_Content&#45;&gt;Run_Child_Generate_Document -->
<g id="edge51" class="edge">
<title>Compose_Document_Content&#45;&gt;Run_Child_Generate_Document</title>
<path fill="none" stroke="#000000" d="M1545,-143.8314C1545,-136.131 1545,-126.9743 1545,-118.4166"/>
<polygon fill="#000000" stroke="#000000" points="1548.5001,-118.4132 1545,-108.4133 1541.5001,-118.4133 1548.5001,-118.4132"/>
</g>
<!-- Compose_Flow_ID_List -->
<g id="node24" class="node">
<title>Compose_Flow_ID_List</title>
<path fill="#add8e6" stroke="#000000" d="M1453.6539,-612C1453.6539,-612 1296.3461,-612 1296.3461,-612 1290.3461,-612 1284.3461,-606 1284.3461,-600 1284.3461,-600 1284.3461,-588 1284.3461,-588 1284.3461,-582 1290.3461,-576 1296.3461,-576 1296.3461,-576 1453.6539,-576 1453.6539,-576 1459.6539,-576 1465.6539,-582 1465.6539,-588 1465.6539,-588 1465.6539,-600 1465.6539,-600 1465.6539,-606 1459.6539,-612 1453.6539,-612"/>
<text text-anchor="middle" x="1375" y="-589.8" font-family="Times,serif" font-size="14.00" fill="#000000">Compose: Flow ID List Input</text>
</g>
<!-- Select_Flow_ID_List&#45;&gt;Compose_Flow_ID_List -->
<g id="edge1" class="edge">
<title>Select_Flow_ID_List&#45;&gt;Compose_Flow_ID_List</title>
<path fill="none" stroke="#000000" d="M1375,-647.8314C1375,-640.131 1375,-630.9743 1375,-622.4166"/>
<polygon fill="#000000" stroke="#000000" points="1378.5001,-622.4132 1375,-612.4133 1371.5001,-622.4133 1378.5001,-622.4132"/>
</g>
<!-- Compose_Flow_ID_List&#45;&gt;Scope_Get_Flow_IDs_Node -->
<g id="edge39" class="edge">
<title>Compose_Flow_ID_List&#45;&gt;Scope_Get_Flow_IDs_Node</title>
<path fill="none" stroke="#000000" stroke-dasharray="1,5" d="M1405.0287,-575.8314C1420.2496,-566.6221 1438.9128,-555.3301 1455.2083,-545.4706"/>
<polygon fill="#000000" stroke="#000000" points="1457.2369,-548.3341 1463.9809,-540.1628 1453.6132,-542.345 1457.2369,-548.3341"/>
</g>
<!-- Filter_Desktop_Flows -->
<g id="node26" class="node">
<title>Filter_Desktop_Flows</title>
<path fill="#add8e6" stroke="#000000" d="M2951.8347,-612C2951.8347,-612 2788.1653,-612 2788.1653,-612 2782.1653,-612 2776.1653,-606 2776.1653,-600 2776.1653,-600 2776.1653,-588 2776.1653,-588 2776.1653,-582 2782.1653,-576 2788.1653,-576 2788.1653,-576 2951.8347,-576 2951.8347,-576 2957.8347,-576 2963.8347,-582 2963.8347,-588 2963.8347,-588 2963.8347,-600 2963.8347,-600 2963.8347,-606 2957.8347,-612 2951.8347,-612"/>
<text text-anchor="middle" x="2870" y="-589.8" font-family="Times,serif" font-size="14.00" fill="#000000">Filter array: Get desktop flows</text>
</g>
<!-- Compose_Desktop_Category&#45;&gt;Filter_Desktop_Flows -->
<g id="edge2" class="edge">
<title>Compose_Desktop_Category&#45;&gt;Filter_Desktop_Flows</title>
<path fill="none" stroke="#000000" d="M2896.9157,-647.8314C2892.9385,-639.8771 2888.1845,-630.369 2883.7861,-621.5723"/>
<polygon fill="#000000" stroke="#000000" points="2886.8093,-619.7923 2879.2066,-612.4133 2880.5483,-622.9228 2886.8093,-619.7923"/>
</g>
<!-- For_each_Desktop_flows -->
<g id="node27" class="node">
<title>For_each_Desktop_flows</title>
<path fill="#add8e6" stroke="#000000" d="M2639.7366,-540C2639.7366,-540 2510.2634,-540 2510.2634,-540 2504.2634,-540 2498.2634,-534 2498.2634,-528 2498.2634,-528 2498.2634,-516 2498.2634,-516 2498.2634,-510 2504.2634,-504 2510.2634,-504 2510.2634,-504 2639.7366,-504 2639.7366,-504 2645.7366,-504 2651.7366,-510 2651.7366,-516 2651.7366,-516 2651.7366,-528 2651.7366,-528 2651.7366,-534 2645.7366,-540 2639.7366,-540"/>
<text text-anchor="middle" x="2575" y="-517.8" font-family="Times,serif" font-size="14.00" fill="#000000">For each: Desktop flows</text>
</g>
<!-- Filter_Desktop_Flows&#45;&gt;For_each_Desktop_flows -->
<g id="edge3" class="edge">
<title>Filter_Desktop_Flows&#45;&gt;For_each_Desktop_flows</title>
<path fill="none" stroke="#000000" d="M2795.9398,-575.9243C2754.2174,-565.7412 2701.9697,-552.9892 2658.7587,-542.4428"/>
<polygon fill="#000000" stroke="#000000" points="2659.3795,-538.9916 2648.8347,-540.0207 2657.7197,-545.792 2659.3795,-538.9916"/>
</g>
<!-- For_each_Desktop_flows&#45;&gt;Scope_Process_Desktop_flows_Node -->
<g id="edge43" class="edge">
<title>For_each_Desktop_flows&#45;&gt;Scope_Process_Desktop_flows_Node</title>
<path fill="none" stroke="#000000" stroke-dasharray="1,5" d="M2498.2217,-511.1819C2420.0496,-500.1675 2297.1588,-482.8521 2202.0347,-469.4491"/>
<polygon fill="#000000" stroke="#000000" points="2202.4337,-465.9708 2192.0431,-468.0413 2201.4569,-472.9024 2202.4337,-465.9708"/>
</g>
<!-- Compose_Individual_Desktop_Input -->
<g id="node28" class="node">
<title>Compose_Individual_Desktop_Input</title>
<path fill="#add8e6" stroke="#000000" d="M2591.8116,-909.6C2591.8116,-909.6 2366.1884,-909.6 2366.1884,-909.6 2360.1884,-909.6 2354.1884,-903.6 2354.1884,-897.6 2354.1884,-897.6 2354.1884,-885.6 2354.1884,-885.6 2354.1884,-879.6 2360.1884,-873.6 2366.1884,-873.6 2366.1884,-873.6 2591.8116,-873.6 2591.8116,-873.6 2597.8116,-873.6 2603.8116,-879.6 2603.8116,-885.6 2603.8116,-885.6 2603.8116,-897.6 2603.8116,-897.6 2603.8116,-903.6 2597.8116,-909.6 2591.8116,-909.6"/>
<text text-anchor="middle" x="2479" y="-887.4" font-family="Times,serif" font-size="14.00" fill="#000000">Compose: Individual Desktop Flow Input</text>
</g>
<!-- For_each_Desktop_flows&#45;&gt;Compose_Individual_Desktop_Input -->
<g id="edge11" class="edge">
<title>For_each_Desktop_flows&#45;&gt;Compose_Individual_Desktop_Input</title>
<path fill="none" stroke="#000000" d="M2650.2105,-540.0879C2694.9064,-551.1737 2743.5799,-563.9852 2747,-568 2775.3914,-601.3282 2757,-622.2183 2757,-666 2757,-742.8 2757,-742.8 2757,-742.8 2757,-814.2978 2684.6402,-851.5723 2613.7541,-870.9339"/>
<polygon fill="#000000" stroke="#000000" points="2612.5564,-867.6295 2603.7693,-873.5487 2614.3298,-874.4011 2612.5564,-867.6295"/>
</g>
<!-- Compose_Individual_Desktop_Name -->
<g id="node29" class="node">
<title>Compose_Individual_Desktop_Name</title>
<path fill="#add8e6" stroke="#000000" d="M2460.6867,-837.6C2460.6867,-837.6 2231.3133,-837.6 2231.3133,-837.6 2225.3133,-837.6 2219.3133,-831.6 2219.3133,-825.6 2219.3133,-825.6 2219.3133,-813.6 2219.3133,-813.6 2219.3133,-807.6 2225.3133,-801.6 2231.3133,-801.6 2231.3133,-801.6 2460.6867,-801.6 2460.6867,-801.6 2466.6867,-801.6 2472.6867,-807.6 2472.6867,-813.6 2472.6867,-813.6 2472.6867,-825.6 2472.6867,-825.6 2472.6867,-831.6 2466.6867,-837.6 2460.6867,-837.6"/>
<text text-anchor="middle" x="2346" y="-815.4" font-family="Times,serif" font-size="14.00" fill="#000000">Compose: Individual Desktop Flow Name</text>
</g>
<!-- Compose_Individual_Desktop_Input&#45;&gt;Compose_Individual_Desktop_Name -->
<g id="edge4" class="edge">
<title>Compose_Individual_Desktop_Input&#45;&gt;Compose_Individual_Desktop_Name</title>
<path fill="none" stroke="#000000" d="M2445.4385,-873.4314C2428.1119,-864.0516 2406.7942,-852.5112 2388.3464,-842.5244"/>
<polygon fill="#000000" stroke="#000000" points="2390.0111,-839.4457 2379.5508,-837.7628 2386.6786,-845.6015 2390.0111,-839.4457"/>
</g>
<!-- Run_Child_Process_Individual_Desktop -->
<g id="node30" class="node">
<title>Run_Child_Process_Individual_Desktop</title>
<path fill="#add8e6" stroke="#000000" d="M2370.2322,-760.8C2370.2322,-760.8 1916.6299,-760.8 1916.6299,-760.8 1910.6299,-760.8 1898.872,-759.1129 1893.1141,-757.4257 1893.1141,-757.4257 1793.2836,-728.1743 1793.2836,-728.1743 1787.5257,-726.4871 1787.7678,-724.8 1793.7678,-724.8 1793.7678,-724.8 2247.3701,-724.8 2247.3701,-724.8 2253.3701,-724.8 2265.128,-726.4871 2270.8859,-728.1743 2270.8859,-728.1743 2370.7164,-757.4257 2370.7164,-757.4257 2376.4743,-759.1129 2376.2322,-760.8 2370.2322,-760.8"/>
<text text-anchor="middle" x="2082" y="-738.6" font-family="Times,serif" font-size="14.00" fill="#000000">Run Child Flow: Process Individual Desktop flow</text>
</g>
<!-- Compose_Individual_Desktop_Name&#45;&gt;Run_Child_Process_Individual_Desktop -->
<g id="edge5" class="edge">
<title>Compose_Individual_Desktop_Name&#45;&gt;Run_Child_Process_Individual_Desktop</title>
<path fill="none" stroke="#000000" d="M2284.1037,-801.5938C2245.0212,-790.2244 2194.3883,-775.4948 2153.5796,-763.6232"/>
<polygon fill="#000000" stroke="#000000" points="2154.545,-760.259 2143.9653,-760.8263 2152.5896,-766.9803 2154.545,-760.259"/>
</g>
<!-- Append_Desktop_Info -->
<g id="node31" class="node">
<title>Append_Desktop_Info</title>
<path fill="#add8e6" stroke="#000000" d="M2286.5324,-684C2286.5324,-684 2039.4676,-684 2039.4676,-684 2033.4676,-684 2027.4676,-678 2027.4676,-672 2027.4676,-672 2027.4676,-660 2027.4676,-660 2027.4676,-654 2033.4676,-648 2039.4676,-648 2039.4676,-648 2286.5324,-648 2286.5324,-648 2292.5324,-648 2298.5324,-654 2298.5324,-660 2298.5324,-660 2298.5324,-672 2298.5324,-672 2298.5324,-678 2292.5324,-684 2286.5324,-684"/>
<text text-anchor="middle" x="2163" y="-661.8" font-family="Times,serif" font-size="14.00" fill="#000000">Append to variable: Entire Desktop flow Info</text>
</g>
<!-- Run_Child_Process_Individual_Desktop&#45;&gt;Append_Desktop_Info -->
<g id="edge6" class="edge">
<title>Run_Child_Process_Individual_Desktop&#45;&gt;Append_Desktop_Info</title>
<path fill="none" stroke="#000000" d="M2101.1959,-724.5995C2111.7878,-714.5568 2125.0974,-701.9372 2136.6501,-690.9836"/>
<polygon fill="#000000" stroke="#000000" points="2139.0934,-693.4902 2143.9419,-684.0699 2134.277,-688.4105 2139.0934,-693.4902"/>
</g>
<!-- Scope_Desktop_Repeating_Node -->
<g id="node32" class="node">
<title>Scope_Desktop_Repeating_Node</title>
<path fill="#add8e6" stroke="#000000" d="M2725.7987,-612C2725.7987,-612 2201.3011,-612 2201.3011,-612 2195.3011,-612 2183.4874,-610.5167 2177.6736,-609.0334 2177.6736,-609.0334 2059.8288,-578.9666 2059.8288,-578.9666 2054.0151,-577.4833 2054.2013,-576 2060.2013,-576 2060.2013,-576 2584.6989,-576 2584.6989,-576 2590.6989,-576 2602.5126,-577.4833 2608.3264,-578.9666 2608.3264,-578.9666 2726.1712,-609.0334 2726.1712,-609.0334 2731.9849,-610.5167 2731.7987,-612 2725.7987,-612"/>
<text text-anchor="middle" x="2393" y="-589.8" font-family="Times,serif" font-size="14.00" fill="#000000">Scope: Process Repeating Section (Desktop Flow Details)</text>
</g>
<!-- Append_Desktop_Info&#45;&gt;Scope_Desktop_Repeating_Node -->
<g id="edge7" class="edge">
<title>Append_Desktop_Info&#45;&gt;Scope_Desktop_Repeating_Node</title>
<path fill="none" stroke="#000000" d="M2220.7418,-647.9243C2252.5943,-637.9531 2292.3149,-625.5188 2325.5844,-615.104"/>
<polygon fill="#000000" stroke="#000000" points="2326.7367,-618.4109 2335.2344,-612.0831 2324.6454,-611.7305 2326.7367,-618.4109"/>
</g>
<!-- Scope_Desktop_Repeating_Node&#45;&gt;For_each_Desktop_flows -->
<g id="edge12" class="edge">
<title>Scope_Desktop_Repeating_Node&#45;&gt;For_each_Desktop_flows</title>
<path fill="none" stroke="#000000" d="M2438.9263,-575.8314C2463.5923,-566.0734 2494.1691,-553.977 2520.086,-543.7242"/>
<polygon fill="#000000" stroke="#000000" points="2521.3927,-546.9713 2529.404,-540.038 2518.8176,-540.4621 2521.3927,-546.9713"/>
</g>
<!-- Compose_Desktop_Repeating_Content -->
<g id="node33" class="node">
<title>Compose_Desktop_Repeating_Content</title>
<path fill="#add8e6" stroke="#000000" d="M2682.3643,-760.8C2682.3643,-760.8 2479.6357,-760.8 2479.6357,-760.8 2473.6357,-760.8 2467.6357,-754.8 2467.6357,-748.8 2467.6357,-748.8 2467.6357,-736.8 2467.6357,-736.8 2467.6357,-730.8 2473.6357,-724.8 2479.6357,-724.8 2479.6357,-724.8 2682.3643,-724.8 2682.3643,-724.8 2688.3643,-724.8 2694.3643,-730.8 2694.3643,-736.8 2694.3643,-736.8 2694.3643,-748.8 2694.3643,-748.8 2694.3643,-754.8 2688.3643,-760.8 2682.3643,-760.8"/>
<text text-anchor="middle" x="2581" y="-738.6" font-family="Times,serif" font-size="14.00" fill="#000000">Compose: Repeating Section Content</text>
</g>
<!-- Scope_Desktop_Repeating_Node&#45;&gt;Compose_Desktop_Repeating_Content -->
<g id="edge9" class="edge">
<title>Scope_Desktop_Repeating_Node&#45;&gt;Compose_Desktop_Repeating_Content</title>
<path fill="none" stroke="#000000" stroke-dasharray="1,5" d="M2602.2937,-612.0273C2663.7849,-619.443 2717.3363,-628.9142 2727,-640 2738.2145,-652.8649 2737.9591,-703.7168 2727,-716.8 2725.7528,-718.2889 2716.9794,-720.5208 2704.2976,-723.0627"/>
<polygon fill="#000000" stroke="#000000" points="2703.583,-719.6359 2694.4243,-724.9621 2704.9055,-726.5098 2703.583,-719.6359"/>
</g>
<!-- Append_Desktop_Repeating -->
<g id="node34" class="node">
<title>Append_Desktop_Repeating</title>
<path fill="#add8e6" stroke="#000000" d="M2706.3081,-684C2706.3081,-684 2409.6919,-684 2409.6919,-684 2403.6919,-684 2397.6919,-678 2397.6919,-672 2397.6919,-672 2397.6919,-660 2397.6919,-660 2397.6919,-654 2403.6919,-648 2409.6919,-648 2409.6919,-648 2706.3081,-648 2706.3081,-648 2712.3081,-648 2718.3081,-654 2718.3081,-660 2718.3081,-660 2718.3081,-672 2718.3081,-672 2718.3081,-678 2712.3081,-684 2706.3081,-684"/>
<text text-anchor="middle" x="2558" y="-661.8" font-family="Times,serif" font-size="14.00" fill="#000000">Append to variable: Desktop flows Repeating sections</text>
</g>
<!-- Compose_Desktop_Repeating_Content&#45;&gt;Append_Desktop_Repeating -->
<g id="edge8" class="edge">
<title>Compose_Desktop_Repeating_Content&#45;&gt;Append_Desktop_Repeating</title>
<path fill="none" stroke="#000000" d="M2575.5493,-724.5995C2572.7995,-715.4176 2569.4047,-704.0817 2566.3358,-693.8343"/>
<polygon fill="#000000" stroke="#000000" points="2569.6334,-692.6454 2563.4116,-684.0699 2562.9277,-694.6537 2569.6334,-692.6454"/>
</g>
<!-- Append_Desktop_Repeating&#45;&gt;Scope_Desktop_Repeating_Node -->
<g id="edge10" class="edge">
<title>Append_Desktop_Repeating&#45;&gt;Scope_Desktop_Repeating_Node</title>
<path fill="none" stroke="#000000" stroke-dasharray="1,5" d="M2516.3635,-647.8314C2494.2958,-638.2018 2467.0093,-626.295 2443.7143,-616.1299"/>
<polygon fill="#000000" stroke="#000000" points="2444.9023,-612.8296 2434.3371,-612.038 2442.1026,-619.2454 2444.9023,-612.8296"/>
</g>
<!-- Filter_Cloud_Flows -->
<g id="node36" class="node">
<title>Filter_Cloud_Flows</title>
<path fill="#add8e6" stroke="#000000" d="M1165.0127,-612C1165.0127,-612 1010.9873,-612 1010.9873,-612 1004.9873,-612 998.9873,-606 998.9873,-600 998.9873,-600 998.9873,-588 998.9873,-588 998.9873,-582 1004.9873,-576 1010.9873,-576 1010.9873,-576 1165.0127,-576 1165.0127,-576 1171.0127,-576 1177.0127,-582 1177.0127,-588 1177.0127,-588 1177.0127,-600 1177.0127,-600 1177.0127,-606 1171.0127,-612 1165.0127,-612"/>
<text text-anchor="middle" x="1088" y="-589.8" font-family="Times,serif" font-size="14.00" fill="#000000">Filter array: Get Cloud flows</text>
</g>
<!-- Compose_Cloud_Category&#45;&gt;Filter_Cloud_Flows -->
<g id="edge13" class="edge">
<title>Compose_Cloud_Category&#45;&gt;Filter_Cloud_Flows</title>
<path fill="none" stroke="#000000" d="M1101.4578,-647.8314C1099.5116,-640.0463 1097.1932,-630.7729 1095.0337,-622.1347"/>
<polygon fill="#000000" stroke="#000000" points="1098.4242,-621.2658 1092.6033,-612.4133 1091.6332,-622.9636 1098.4242,-621.2658"/>
</g>
<!-- For_each_Cloud_flows -->
<g id="node37" class="node">
<title>For_each_Cloud_flows</title>
<path fill="#add8e6" stroke="#000000" d="M1084.3073,-540C1084.3073,-540 967.6927,-540 967.6927,-540 961.6927,-540 955.6927,-534 955.6927,-528 955.6927,-528 955.6927,-516 955.6927,-516 955.6927,-510 961.6927,-504 967.6927,-504 967.6927,-504 1084.3073,-504 1084.3073,-504 1090.3073,-504 1096.3073,-510 1096.3073,-516 1096.3073,-516 1096.3073,-528 1096.3073,-528 1096.3073,-534 1090.3073,-540 1084.3073,-540"/>
<text text-anchor="middle" x="1026" y="-517.8" font-family="Times,serif" font-size="14.00" fill="#000000">For each: Cloud flows</text>
</g>
<!-- Filter_Cloud_Flows&#45;&gt;For_each_Cloud_flows -->
<g id="edge14" class="edge">
<title>Filter_Cloud_Flows&#45;&gt;For_each_Cloud_flows</title>
<path fill="none" stroke="#000000" d="M1072.3548,-575.8314C1065.1409,-567.454 1056.443,-557.3531 1048.5395,-548.1749"/>
<polygon fill="#000000" stroke="#000000" points="1051.0333,-545.7071 1041.8559,-540.4133 1045.7289,-550.2748 1051.0333,-545.7071"/>
</g>
<!-- For_each_Cloud_flows&#45;&gt;Scope_Process_Cloud_flows_Node -->
<g id="edge45" class="edge">
<title>For_each_Cloud_flows&#45;&gt;Scope_Process_Cloud_flows_Node</title>
<path fill="none" stroke="#000000" stroke-dasharray="1,5" d="M1096.5788,-506.5542C1145.0918,-495.9373 1209.9945,-481.7337 1262.6193,-470.217"/>
<polygon fill="#000000" stroke="#000000" points="1263.613,-473.5825 1272.6335,-468.0255 1262.1165,-466.7443 1263.613,-473.5825"/>
</g>
<!-- Compose_Individual_Cloud_Input -->
<g id="node38" class="node">
<title>Compose_Individual_Cloud_Input</title>
<path fill="#add8e6" stroke="#000000" d="M862.3822,-1019.2C862.3822,-1019.2 649.6178,-1019.2 649.6178,-1019.2 643.6178,-1019.2 637.6178,-1013.2 637.6178,-1007.2 637.6178,-1007.2 637.6178,-995.2 637.6178,-995.2 637.6178,-989.2 643.6178,-983.2 649.6178,-983.2 649.6178,-983.2 862.3822,-983.2 862.3822,-983.2 868.3822,-983.2 874.3822,-989.2 874.3822,-995.2 874.3822,-995.2 874.3822,-1007.2 874.3822,-1007.2 874.3822,-1013.2 868.3822,-1019.2 862.3822,-1019.2"/>
<text text-anchor="middle" x="756" y="-997" font-family="Times,serif" font-size="14.00" fill="#000000">Compose: Individual Cloud Flow Input</text>
</g>
<!-- For_each_Cloud_flows&#45;&gt;Compose_Individual_Cloud_Input -->
<g id="edge23" class="edge">
<title>For_each_Cloud_flows&#45;&gt;Compose_Individual_Cloud_Input</title>
<path fill="none" stroke="#000000" d="M1009.1232,-540.0975C1002.3688,-548.1424 995.0166,-558.0365 990,-568 969.6827,-608.3521 963,-620.8216 963,-666 963,-819.6 963,-819.6 963,-819.6 963,-911.1559 903.4944,-923.4014 828,-975.2 826.5309,-976.208 825.0181,-977.1817 823.4704,-978.122"/>
<polygon fill="#000000" stroke="#000000" points="821.3771,-975.2777 814.2835,-983.1474 824.7364,-981.4189 821.3771,-975.2777"/>
</g>
<!-- Compose_Individual_Cloud_JSON_File -->
<g id="node39" class="node">
<title>Compose_Individual_Cloud_JSON_File</title>
<path fill="#add8e6" stroke="#000000" d="M807.0498,-909.6C807.0498,-909.6 564.9502,-909.6 564.9502,-909.6 558.9502,-909.6 552.9502,-903.6 552.9502,-897.6 552.9502,-897.6 552.9502,-885.6 552.9502,-885.6 552.9502,-879.6 558.9502,-873.6 564.9502,-873.6 564.9502,-873.6 807.0498,-873.6 807.0498,-873.6 813.0498,-873.6 819.0498,-879.6 819.0498,-885.6 819.0498,-885.6 819.0498,-897.6 819.0498,-897.6 819.0498,-903.6 813.0498,-909.6 807.0498,-909.6"/>
<text text-anchor="middle" x="686" y="-887.4" font-family="Times,serif" font-size="14.00" fill="#000000">Compose: Individual Cloud Flow JSON File</text>
</g>
<!-- Compose_Individual_Cloud_Input&#45;&gt;Compose_Individual_Cloud_JSON_File -->
<g id="edge15" class="edge">
<title>Compose_Individual_Cloud_Input&#45;&gt;Compose_Individual_Cloud_JSON_File</title>
<path fill="none" stroke="#000000" d="M744.4409,-983.1018C733.1936,-965.4917 715.9693,-938.5233 703.1297,-918.4203"/>
<polygon fill="#000000" stroke="#000000" points="705.9087,-916.2689 697.5762,-909.7251 700.0093,-920.0368 705.9087,-916.2689"/>
</g>
<!-- Compose_Individual_Cloud_Name -->
<g id="node40" class="node">
<title>Compose_Individual_Cloud_Name</title>
<path fill="#add8e6" stroke="#000000" d="M545.2575,-837.6C545.2575,-837.6 328.7425,-837.6 328.7425,-837.6 322.7425,-837.6 316.7425,-831.6 316.7425,-825.6 316.7425,-825.6 316.7425,-813.6 316.7425,-813.6 316.7425,-807.6 322.7425,-801.6 328.7425,-801.6 328.7425,-801.6 545.2575,-801.6 545.2575,-801.6 551.2575,-801.6 557.2575,-807.6 557.2575,-813.6 557.2575,-813.6 557.2575,-825.6 557.2575,-825.6 557.2575,-831.6 551.2575,-837.6 545.2575,-837.6"/>
<text text-anchor="middle" x="437" y="-815.4" font-family="Times,serif" font-size="14.00" fill="#000000">Compose: Individual Cloud Flow Name</text>
</g>
<!-- Compose_Individual_Cloud_JSON_File&#45;&gt;Compose_Individual_Cloud_Name -->
<g id="edge16" class="edge">
<title>Compose_Individual_Cloud_JSON_File&#45;&gt;Compose_Individual_Cloud_Name</title>
<path fill="none" stroke="#000000" d="M623.4882,-873.5243C588.8564,-863.5103 545.6333,-851.012 509.5213,-840.57"/>
<polygon fill="#000000" stroke="#000000" points="510.1162,-837.0987 499.5375,-837.6831 508.1717,-843.8232 510.1162,-837.0987"/>
</g>
<!-- Run_Child_Process_Individual_Cloud -->
<g id="node41" class="node">
<title>Run_Child_Process_Individual_Cloud</title>
<path fill="#add8e6" stroke="#000000" d="M587.5916,-760.8C587.5916,-760.8 154.0977,-760.8 154.0977,-760.8 148.0977,-760.8 136.3601,-759.0449 130.6226,-757.2899 130.6226,-757.2899 35.8835,-728.3101 35.8835,-728.3101 30.146,-726.5551 30.4084,-724.8 36.4084,-724.8 36.4084,-724.8 469.9023,-724.8 469.9023,-724.8 475.9023,-724.8 487.6399,-726.5551 493.3774,-728.3101 493.3774,-728.3101 588.1165,-757.2899 588.1165,-757.2899 593.854,-759.0449 593.5916,-760.8 587.5916,-760.8"/>
<text text-anchor="middle" x="312" y="-738.6" font-family="Times,serif" font-size="14.00" fill="#000000">Run Child Flow: Process Individual Cloud flow</text>
</g>
<!-- Compose_Individual_Cloud_Name&#45;&gt;Run_Child_Process_Individual_Cloud -->
<g id="edge17" class="edge">
<title>Compose_Individual_Cloud_Name&#45;&gt;Run_Child_Process_Individual_Cloud</title>
<path fill="none" stroke="#000000" d="M407.6931,-801.5938C390.5775,-791.078 368.7833,-777.6877 350.3185,-766.3429"/>
<polygon fill="#000000" stroke="#000000" points="351.909,-763.2123 341.5564,-760.9595 348.2446,-769.1765 351.909,-763.2123"/>
</g>
<!-- Append_Cloud_Info -->
<g id="node42" class="node">
<title>Append_Cloud_Info</title>
<path fill="#add8e6" stroke="#000000" d="M507.1035,-684C507.1035,-684 272.8965,-684 272.8965,-684 266.8965,-684 260.8965,-678 260.8965,-672 260.8965,-672 260.8965,-660 260.8965,-660 260.8965,-654 266.8965,-648 272.8965,-648 272.8965,-648 507.1035,-648 507.1035,-648 513.1035,-648 519.1035,-654 519.1035,-660 519.1035,-660 519.1035,-672 519.1035,-672 519.1035,-678 513.1035,-684 507.1035,-684"/>
<text text-anchor="middle" x="390" y="-661.8" font-family="Times,serif" font-size="14.00" fill="#000000">Append to variable: Entire Cloud flow Info</text>
</g>
<!-- Run_Child_Process_Individual_Cloud&#45;&gt;Append_Cloud_Info -->
<g id="edge18" class="edge">
<title>Run_Child_Process_Individual_Cloud&#45;&gt;Append_Cloud_Info</title>
<path fill="none" stroke="#000000" d="M330.4849,-724.5995C340.5874,-714.6524 353.2573,-702.1774 364.3077,-691.297"/>
<polygon fill="#000000" stroke="#000000" points="366.9777,-693.5799 371.6478,-684.0699 362.0665,-688.592 366.9777,-693.5799"/>
</g>
<!-- Scope_Cloud_Repeating_Node -->
<g id="node43" class="node">
<title>Scope_Cloud_Repeating_Node</title>
<path fill="#add8e6" stroke="#000000" d="M932.1582,-612C932.1582,-612 427.7688,-612 427.7688,-612 421.7688,-612 409.9688,-610.4639 404.1688,-608.9277 404.1688,-608.9277 291.4419,-579.0723 291.4419,-579.0723 285.6418,-577.5361 285.8418,-576 291.8418,-576 291.8418,-576 796.2312,-576 796.2312,-576 802.2312,-576 814.0312,-577.5361 819.8312,-579.0723 819.8312,-579.0723 932.5581,-608.9277 932.5581,-608.9277 938.3582,-610.4639 938.1582,-612 932.1582,-612"/>
<text text-anchor="middle" x="612" y="-589.8" font-family="Times,serif" font-size="14.00" fill="#000000">Scope: Process Repeating Section (Cloud Flow Details)</text>
</g>
<!-- Append_Cloud_Info&#45;&gt;Scope_Cloud_Repeating_Node -->
<g id="edge19" class="edge">
<title>Append_Cloud_Info&#45;&gt;Scope_Cloud_Repeating_Node</title>
<path fill="none" stroke="#000000" d="M445.7334,-647.9243C476.346,-637.9959 514.4881,-625.6255 546.5155,-615.2382"/>
<polygon fill="#000000" stroke="#000000" points="547.8112,-618.4975 556.2436,-612.0831 545.6516,-611.839 547.8112,-618.4975"/>
</g>
<!-- Scope_Cloud_Repeating_Node&#45;&gt;For_each_Cloud_flows -->
<g id="edge24" class="edge">
<title>Scope_Cloud_Repeating_Node&#45;&gt;For_each_Cloud_flows</title>
<path fill="none" stroke="#000000" d="M715.6684,-575.9707C786.8609,-563.5894 879.9853,-547.3939 945.5819,-535.9858"/>
<polygon fill="#000000" stroke="#000000" points="946.2073,-539.4296 955.4597,-534.2679 945.0079,-532.5331 946.2073,-539.4296"/>
</g>
<!-- Compose_Cloud_Repeating_Content -->
<g id="node44" class="node">
<title>Compose_Cloud_Repeating_Content</title>
<path fill="#add8e6" stroke="#000000" d="M891.3643,-760.8C891.3643,-760.8 688.6357,-760.8 688.6357,-760.8 682.6357,-760.8 676.6357,-754.8 676.6357,-748.8 676.6357,-748.8 676.6357,-736.8 676.6357,-736.8 676.6357,-730.8 682.6357,-724.8 688.6357,-724.8 688.6357,-724.8 891.3643,-724.8 891.3643,-724.8 897.3643,-724.8 903.3643,-730.8 903.3643,-736.8 903.3643,-736.8 903.3643,-748.8 903.3643,-748.8 903.3643,-754.8 897.3643,-760.8 891.3643,-760.8"/>
<text text-anchor="middle" x="790" y="-738.6" font-family="Times,serif" font-size="14.00" fill="#000000">Compose: Repeating Section Content</text>
</g>
<!-- Scope_Cloud_Repeating_Node&#45;&gt;Compose_Cloud_Repeating_Content -->
<g id="edge21" class="edge">
<title>Scope_Cloud_Repeating_Node&#45;&gt;Compose_Cloud_Repeating_Content</title>
<path fill="none" stroke="#000000" stroke-dasharray="1,5" d="M809.6348,-612.0248C870.2072,-619.5534 923.5501,-629.0994 933,-640 944.1793,-652.8955 943.9354,-703.697 933,-716.8 931.8082,-718.228 923.578,-720.3777 911.6151,-722.8408"/>
<polygon fill="#000000" stroke="#000000" points="910.9273,-719.4089 901.7941,-724.7787 912.2825,-726.2765 910.9273,-719.4089"/>
</g>
<!-- Append_Cloud_Repeating -->
<g id="node45" class="node">
<title>Append_Cloud_Repeating</title>
<path fill="#add8e6" stroke="#000000" d="M912.379,-684C912.379,-684 627.621,-684 627.621,-684 621.621,-684 615.621,-678 615.621,-672 615.621,-672 615.621,-660 615.621,-660 615.621,-654 621.621,-648 627.621,-648 627.621,-648 912.379,-648 912.379,-648 918.379,-648 924.379,-654 924.379,-660 924.379,-660 924.379,-672 924.379,-672 924.379,-678 918.379,-684 912.379,-684"/>
<text text-anchor="middle" x="770" y="-661.8" font-family="Times,serif" font-size="14.00" fill="#000000">Append to variable: Cloud flows Repeating sections</text>
</g>
<!-- Compose_Cloud_Repeating_Content&#45;&gt;Append_Cloud_Repeating -->
<g id="edge20" class="edge">
<title>Compose_Cloud_Repeating_Content&#45;&gt;Append_Cloud_Repeating</title>
<path fill="none" stroke="#000000" d="M785.2603,-724.5995C782.8692,-715.4176 779.9171,-704.0817 777.2485,-693.8343"/>
<polygon fill="#000000" stroke="#000000" points="780.6129,-692.8651 774.7057,-684.0699 773.8389,-694.6292 780.6129,-692.8651"/>
</g>
<!-- Append_Cloud_Repeating&#45;&gt;Scope_Cloud_Repeating_Node -->
<g id="edge22" class="edge">
<title>Append_Cloud_Repeating&#45;&gt;Scope_Cloud_Repeating_Node</title>
<path fill="none" stroke="#000000" stroke-dasharray="1,5" d="M730.1299,-647.8314C709.0923,-638.2446 683.1017,-626.4008 660.8604,-616.2655"/>
<polygon fill="#000000" stroke="#000000" points="662.1345,-612.9999 651.5834,-612.038 659.2317,-619.3697 662.1345,-612.9999"/>
</g>
</g>
</svg>
