<?xml version="1.0" encoding="UTF-8" standalone="no"?>
<!DOCTYPE svg PUBLIC "-//W3C//DTD SVG 1.1//EN"
 "http://www.w3.org/Graphics/SVG/1.1/DTD/svg11.dtd">
<!-- Generated by graphviz version 2.40.1 (20161225.0304)
 -->
<!-- Title: Retrieve Desktop Flow Details Pages: 1 -->
<svg width="1672pt" height="1030pt"
 viewBox="0.00 0.00 1671.74 1029.82" xmlns="http://www.w3.org/2000/svg" xmlns:xlink="http://www.w3.org/1999/xlink">
<g id="graph0" class="graph" transform="scale(0.6 0.6) rotate(0) translate(4 1025.8156)">
<title>Retrieve Desktop Flow Details</title>
<polygon fill="#ffffff" stroke="transparent" points="-4,4 -4,-1025.8156 1667.7406,-1025.8156 1667.7406,4 -4,4"/>
<g id="clust1" class="cluster">
<title>cluster_Scope_Extract_and_Format_Desktop_Flow_Info</title>
<polygon fill="#d3d3d3" stroke="#000000" points="794,-64 794,-1013.8156 1174,-1013.8156 1174,-64 794,-64"/>
<text text-anchor="middle" x="984" y="-997.2156" font-family="Times,serif" font-size="14.00" fill="#000000">Scope: Extract and Format Desktop Flow Info</text>
</g>
<g id="clust2" class="cluster">
<title>cluster_Scope_Format_Inputs</title>
<polygon fill="#d3d3d3" stroke="#000000" points="1182,-632.8 1182,-781.6 1354,-781.6 1354,-632.8 1182,-632.8"/>
<text text-anchor="middle" x="1268" y="-765" font-family="Times,serif" font-size="14.00" fill="#000000">Scope: Format Inputs</text>
</g>
<g id="clust3" class="cluster">
<title>cluster_Scope_Format_Dependencies</title>
<polygon fill="#d3d3d3" stroke="#000000" points="1182,-471.2 1182,-624.8 1428,-624.8 1428,-471.2 1182,-471.2"/>
<text text-anchor="middle" x="1305" y="-608.2" font-family="Times,serif" font-size="14.00" fill="#000000">Scope: Format Dependencies</text>
</g>
<g id="clust4" class="cluster">
<title>cluster_Scope_Format_Outputs</title>
<polygon fill="#d3d3d3" stroke="#000000" points="8,-208 8,-548 348,-548 348,-208 8,-208"/>
<text text-anchor="middle" x="178" y="-531.4" font-family="Times,serif" font-size="14.00" fill="#000000">Scope: Format Outputs</text>
</g>
<g id="clust5" class="cluster">
<title>cluster_Scope_Format_Definition</title>
<polygon fill="#d3d3d3" stroke="#000000" points="356,-136 356,-452.4 572,-452.4 572,-136 356,-136"/>
<text text-anchor="middle" x="464" y="-435.8" font-family="Times,serif" font-size="14.00" fill="#000000">Scope: Format Definition</text>
</g>
<!-- trigger -->
<g id="node1" class="node">
<title>trigger</title>
<ellipse fill="#add8e6" stroke="#000000" cx="508" cy="-963.0156" rx="79.5009" ry="29.3315"/>
<text text-anchor="middle" x="508" y="-967.2156" font-family="Times,serif" font-size="14.00" fill="#000000">Manual Trigger</text>
<text text-anchor="middle" x="508" y="-950.4156" font-family="Times,serif" font-size="14.00" fill="#000000">(Request/Button)</text>
</g>
<!-- Scope_&#45;_Extract_and_Format_Desktop_Flow_Info_Node -->
<g id="node2" class="node">
<title>Scope_&#45;_Extract_and_Format_Desktop_Flow_Info_Node</title>
<path fill="#add8e6" stroke="#000000" d="M774.1158,-897.6C774.1158,-897.6 355.6958,-897.6 355.6958,-897.6 349.6958,-897.6 337.9751,-895.7905 332.2545,-893.981 332.2545,-893.981 241.3254,-865.219 241.3254,-865.219 235.6048,-863.4095 235.8842,-861.6 241.8842,-861.6 241.8842,-861.6 660.3042,-861.6 660.3042,-861.6 666.3042,-861.6 678.0249,-863.4095 683.7455,-865.219 683.7455,-865.219 774.6746,-893.981 774.6746,-893.981 780.3952,-895.7905 780.1158,-897.6 774.1158,-897.6"/>
<text text-anchor="middle" x="508" y="-875.4" font-family="Times,serif" font-size="14.00" fill="#000000">Scope: Extract and Format Desktop Flow Info</text>
</g>
<!-- trigger&#45;&gt;Scope_&#45;_Extract_and_Format_Desktop_Flow_Info_Node -->
<g id="edge20" class="edge">
<title>trigger&#45;&gt;Scope_&#45;_Extract_and_Format_Desktop_Flow_Info_Node</title>
<path fill="none" stroke="#000000" d="M508,-933.3715C508,-925.1664 508,-916.2796 508,-908.1388"/>
<polygon fill="#000000" stroke="#000000" points="511.5001,-907.9865 508,-897.9866 504.5001,-907.9866 511.5001,-907.9865"/>
</g>
<!-- cluster_Scope_Extract_and_Format_Desktop_Flow_Info -->
<g id="node28" class="node">
<title>cluster_Scope_Extract_and_Format_Desktop_Flow_Info</title>
<path fill="#add8e6" stroke="#000000" d="M664.3622,-825.6C664.3622,-825.6 351.6378,-825.6 351.6378,-825.6 345.6378,-825.6 339.6378,-819.6 339.6378,-813.6 339.6378,-813.6 339.6378,-801.6 339.6378,-801.6 339.6378,-795.6 345.6378,-789.6 351.6378,-789.6 351.6378,-789.6 664.3622,-789.6 664.3622,-789.6 670.3622,-789.6 676.3622,-795.6 676.3622,-801.6 676.3622,-801.6 676.3622,-813.6 676.3622,-813.6 676.3622,-819.6 670.3622,-825.6 664.3622,-825.6"/>
<text text-anchor="middle" x="508" y="-803.4" font-family="Times,serif" font-size="14.00" fill="#000000">cluster_Scope_Extract_and_Format_Desktop_Flow_Info</text>
</g>
<!-- Scope_&#45;_Extract_and_Format_Desktop_Flow_Info_Node&#45;&gt;cluster_Scope_Extract_and_Format_Desktop_Flow_Info -->
<g id="edge21" class="edge">
<title>Scope_&#45;_Extract_and_Format_Desktop_Flow_Info_Node&#45;&gt;cluster_Scope_Extract_and_Format_Desktop_Flow_Info</title>
<path fill="none" stroke="#000000" stroke-dasharray="1,5" d="M508,-861.4314C508,-853.731 508,-844.5743 508,-836.0166"/>
<polygon fill="#000000" stroke="#000000" points="511.5001,-836.0132 508,-826.0133 504.5001,-836.0133 511.5001,-836.0132"/>
</g>
<!-- Scope_Format_Inputs_Node -->
<g id="node3" class="node">
<title>Scope_Format_Inputs_Node</title>
<path fill="#add8e6" stroke="#000000" d="M1110.1742,-748.8C1110.1742,-748.8 914.37,-748.8 914.37,-748.8 908.37,-748.8 897.3087,-745.5776 892.2474,-742.3553 892.2474,-742.3553 855.9483,-719.2447 855.9483,-719.2447 850.887,-716.0224 851.8258,-712.8 857.8258,-712.8 857.8258,-712.8 1053.63,-712.8 1053.63,-712.8 1059.63,-712.8 1070.6913,-716.0224 1075.7526,-719.2447 1075.7526,-719.2447 1112.0517,-742.3553 1112.0517,-742.3553 1117.113,-745.5776 1116.1742,-748.8 1110.1742,-748.8"/>
<text text-anchor="middle" x="984" y="-726.6" font-family="Times,serif" font-size="14.00" fill="#000000">Scope: Format Inputs</text>
</g>
<!-- Scope_Format_Dependencies_Node -->
<g id="node4" class="node">
<title>Scope_Format_Dependencies_Node</title>
<path fill="#add8e6" stroke="#000000" d="M1154.2002,-676.8C1154.2002,-676.8 888.3604,-676.8 888.3604,-676.8 882.3604,-676.8 870.9573,-674.1912 865.5541,-671.5824 865.5541,-671.5824 812.6061,-646.0176 812.6061,-646.0176 807.2029,-643.4088 807.7998,-640.8 813.7998,-640.8 813.7998,-640.8 1079.6396,-640.8 1079.6396,-640.8 1085.6396,-640.8 1097.0427,-643.4088 1102.4459,-646.0176 1102.4459,-646.0176 1155.3939,-671.5824 1155.3939,-671.5824 1160.7971,-674.1912 1160.2002,-676.8 1154.2002,-676.8"/>
<text text-anchor="middle" x="984" y="-654.6" font-family="Times,serif" font-size="14.00" fill="#000000">Scope: Format Dependencies</text>
</g>
<!-- Scope_Format_Inputs_Node&#45;&gt;Scope_Format_Dependencies_Node -->
<g id="edge4" class="edge">
<title>Scope_Format_Inputs_Node&#45;&gt;Scope_Format_Dependencies_Node</title>
<path fill="none" stroke="#000000" d="M984,-712.6314C984,-704.931 984,-695.7743 984,-687.2166"/>
<polygon fill="#000000" stroke="#000000" points="987.5001,-687.2132 984,-677.2133 980.5001,-687.2133 987.5001,-687.2132"/>
</g>
<!-- cluster_Scope_Format_Inputs -->
<g id="node29" class="node">
<title>cluster_Scope_Format_Inputs</title>
<path fill="#add8e6" stroke="#000000" d="M771.9622,-676.8C771.9622,-676.8 612.0378,-676.8 612.0378,-676.8 606.0378,-676.8 600.0378,-670.8 600.0378,-664.8 600.0378,-664.8 600.0378,-652.8 600.0378,-652.8 600.0378,-646.8 606.0378,-640.8 612.0378,-640.8 612.0378,-640.8 771.9622,-640.8 771.9622,-640.8 777.9622,-640.8 783.9622,-646.8 783.9622,-652.8 783.9622,-652.8 783.9622,-664.8 783.9622,-664.8 783.9622,-670.8 777.9622,-676.8 771.9622,-676.8"/>
<text text-anchor="middle" x="692" y="-654.6" font-family="Times,serif" font-size="14.00" fill="#000000">cluster_Scope_Format_Inputs</text>
</g>
<!-- Scope_Format_Inputs_Node&#45;&gt;cluster_Scope_Format_Inputs -->
<g id="edge24" class="edge">
<title>Scope_Format_Inputs_Node&#45;&gt;cluster_Scope_Format_Inputs</title>
<path fill="none" stroke="#000000" stroke-dasharray="1,5" d="M910.693,-712.7243C869.3948,-702.5412 817.6785,-689.7892 774.9069,-679.2428"/>
<polygon fill="#000000" stroke="#000000" points="775.631,-675.8166 765.0839,-676.8207 773.9551,-682.613 775.631,-675.8166"/>
</g>
<!-- Scope_Format_Outputs_Node -->
<g id="node5" class="node">
<title>Scope_Format_Outputs_Node</title>
<path fill="#add8e6" stroke="#000000" d="M1098.5593,-592C1098.5593,-592 887.8255,-592 887.8255,-592 881.8255,-592 870.6718,-588.9275 865.5182,-585.8551 865.5182,-585.8551 825.7479,-562.1449 825.7479,-562.1449 820.5943,-559.0725 821.4407,-556 827.4407,-556 827.4407,-556 1038.1745,-556 1038.1745,-556 1044.1745,-556 1055.3282,-559.0725 1060.4818,-562.1449 1060.4818,-562.1449 1100.2521,-585.8551 1100.2521,-585.8551 1105.4057,-588.9275 1104.5593,-592 1098.5593,-592"/>
<text text-anchor="middle" x="963" y="-569.8" font-family="Times,serif" font-size="14.00" fill="#000000">Scope: Format Outputs</text>
</g>
<!-- Scope_Format_Dependencies_Node&#45;&gt;Scope_Format_Outputs_Node -->
<g id="edge5" class="edge">
<title>Scope_Format_Dependencies_Node&#45;&gt;Scope_Format_Outputs_Node</title>
<path fill="none" stroke="#000000" d="M979.4433,-640.3997C976.6726,-629.2112 973.0786,-614.6983 969.9576,-602.0954"/>
<polygon fill="#000000" stroke="#000000" points="973.2769,-600.9385 967.4757,-592.0731 966.4822,-602.6213 973.2769,-600.9385"/>
</g>
<!-- Compose_Dependencies_JSON -->
<g id="node18" class="node">
<title>Compose_Dependencies_JSON</title>
<path fill="#add8e6" stroke="#000000" d="M1378.7324,-592C1378.7324,-592 1211.2676,-592 1211.2676,-592 1205.2676,-592 1199.2676,-586 1199.2676,-580 1199.2676,-580 1199.2676,-568 1199.2676,-568 1199.2676,-562 1205.2676,-556 1211.2676,-556 1211.2676,-556 1378.7324,-556 1378.7324,-556 1384.7324,-556 1390.7324,-562 1390.7324,-568 1390.7324,-568 1390.7324,-580 1390.7324,-580 1390.7324,-586 1384.7324,-592 1378.7324,-592"/>
<text text-anchor="middle" x="1295" y="-569.8" font-family="Times,serif" font-size="14.00" fill="#000000">Compose: Dependencies JSON</text>
</g>
<!-- Scope_Format_Dependencies_Node&#45;&gt;Compose_Dependencies_JSON -->
<g id="edge26" class="edge">
<title>Scope_Format_Dependencies_Node&#45;&gt;Compose_Dependencies_JSON</title>
<path fill="none" stroke="#000000" d="M1097.3835,-643.5582C1124.1068,-638.6965 1152.2906,-632.5157 1178,-624.8 1202.5729,-617.4253 1228.8672,-606.3212 1250.2921,-596.3737"/>
<polygon fill="#000000" stroke="#000000" points="1251.9104,-599.4803 1259.4623,-592.0494 1248.9247,-593.1489 1251.9104,-599.4803"/>
</g>
<!-- cluster_Scope_Format_Dependencies -->
<g id="node30" class="node">
<title>cluster_Scope_Format_Dependencies</title>
<path fill="#add8e6" stroke="#000000" d="M1651.9817,-592C1651.9817,-592 1448.0183,-592 1448.0183,-592 1442.0183,-592 1436.0183,-586 1436.0183,-580 1436.0183,-580 1436.0183,-568 1436.0183,-568 1436.0183,-562 1442.0183,-556 1448.0183,-556 1448.0183,-556 1651.9817,-556 1651.9817,-556 1657.9817,-556 1663.9817,-562 1663.9817,-568 1663.9817,-568 1663.9817,-580 1663.9817,-580 1663.9817,-586 1657.9817,-592 1651.9817,-592"/>
<text text-anchor="middle" x="1550" y="-569.8" font-family="Times,serif" font-size="14.00" fill="#000000">cluster_Scope_Format_Dependencies</text>
</g>
<!-- Scope_Format_Dependencies_Node&#45;&gt;cluster_Scope_Format_Dependencies -->
<g id="edge27" class="edge">
<title>Scope_Format_Dependencies_Node&#45;&gt;cluster_Scope_Format_Dependencies</title>
<path fill="none" stroke="#000000" stroke-dasharray="1,5" d="M1094.3325,-642.035C1121.6196,-638.4352 1150.8221,-635.0433 1178,-632.8 1234.281,-628.1544 1376.8765,-637.0692 1432,-624.8 1458.2886,-618.9488 1486.0305,-607.3153 1508.0059,-596.6561"/>
<polygon fill="#000000" stroke="#000000" points="1509.6486,-599.7482 1517.0498,-592.1672 1506.5364,-593.4781 1509.6486,-599.7482"/>
</g>
<!-- Scope_Format_Definition_Node -->
<g id="node6" class="node">
<title>Scope_Format_Definition_Node</title>
<path fill="#add8e6" stroke="#000000" d="M1111.783,-515.2C1111.783,-515.2 880.0133,-515.2 880.0133,-515.2 874.0133,-515.2 862.7496,-512.32 857.486,-509.4401 857.486,-509.4401 812.7443,-484.9599 812.7443,-484.9599 807.4807,-482.08 808.217,-479.2 814.217,-479.2 814.217,-479.2 1045.9867,-479.2 1045.9867,-479.2 1051.9867,-479.2 1063.2504,-482.08 1068.514,-484.9599 1068.514,-484.9599 1113.2557,-509.4401 1113.2557,-509.4401 1118.5193,-512.32 1117.783,-515.2 1111.783,-515.2"/>
<text text-anchor="middle" x="963" y="-493" font-family="Times,serif" font-size="14.00" fill="#000000">Scope: Format Definition</text>
</g>
<!-- Scope_Format_Outputs_Node&#45;&gt;Scope_Format_Definition_Node -->
<g id="edge6" class="edge">
<title>Scope_Format_Outputs_Node&#45;&gt;Scope_Format_Definition_Node</title>
<path fill="none" stroke="#000000" d="M963,-555.7995C963,-546.7132 963,-535.5176 963,-525.3549"/>
<polygon fill="#000000" stroke="#000000" points="966.5001,-525.2698 963,-515.2699 959.5001,-525.2699 966.5001,-525.2698"/>
</g>
<!-- Compose_Output_JSON -->
<g id="node20" class="node">
<title>Compose_Output_JSON</title>
<path fill="#add8e6" stroke="#000000" d="M285.1052,-515.2C285.1052,-515.2 156.8948,-515.2 156.8948,-515.2 150.8948,-515.2 144.8948,-509.2 144.8948,-503.2 144.8948,-503.2 144.8948,-491.2 144.8948,-491.2 144.8948,-485.2 150.8948,-479.2 156.8948,-479.2 156.8948,-479.2 285.1052,-479.2 285.1052,-479.2 291.1052,-479.2 297.1052,-485.2 297.1052,-491.2 297.1052,-491.2 297.1052,-503.2 297.1052,-503.2 297.1052,-509.2 291.1052,-515.2 285.1052,-515.2"/>
<text text-anchor="middle" x="221" y="-493" font-family="Times,serif" font-size="14.00" fill="#000000">Compose: Output JSON</text>
</g>
<!-- Scope_Format_Outputs_Node&#45;&gt;Compose_Output_JSON -->
<g id="edge29" class="edge">
<title>Scope_Format_Outputs_Node&#45;&gt;Compose_Output_JSON</title>
<path fill="none" stroke="#000000" d="M834.5965,-567.5789C760.379,-563.2882 665.2944,-556.8045 581,-548 487.1664,-538.1992 380.1814,-522.5254 307.3902,-511.1778"/>
<polygon fill="#000000" stroke="#000000" points="307.7719,-507.695 297.3509,-509.6064 306.6894,-514.6108 307.7719,-507.695"/>
</g>
<!-- cluster_Scope_Format_Outputs -->
<g id="node31" class="node">
<title>cluster_Scope_Format_Outputs</title>
<path fill="#add8e6" stroke="#000000" d="M771.799,-515.2C771.799,-515.2 602.201,-515.2 602.201,-515.2 596.201,-515.2 590.201,-509.2 590.201,-503.2 590.201,-503.2 590.201,-491.2 590.201,-491.2 590.201,-485.2 596.201,-479.2 602.201,-479.2 602.201,-479.2 771.799,-479.2 771.799,-479.2 777.799,-479.2 783.799,-485.2 783.799,-491.2 783.799,-491.2 783.799,-503.2 783.799,-503.2 783.799,-509.2 777.799,-515.2 771.799,-515.2"/>
<text text-anchor="middle" x="687" y="-493" font-family="Times,serif" font-size="14.00" fill="#000000">cluster_Scope_Format_Outputs</text>
</g>
<!-- Scope_Format_Outputs_Node&#45;&gt;cluster_Scope_Format_Outputs -->
<g id="edge30" class="edge">
<title>Scope_Format_Outputs_Node&#45;&gt;cluster_Scope_Format_Outputs</title>
<path fill="none" stroke="#000000" stroke-dasharray="1,5" d="M819.1951,-555.9004C809.2351,-553.5731 799.4192,-550.9518 790,-548 768.0901,-541.1339 745.05,-530.1658 726.3298,-520.1754"/>
<polygon fill="#000000" stroke="#000000" points="727.9668,-517.0815 717.5108,-515.3718 724.6184,-523.2288 727.9668,-517.0815"/>
</g>
<!-- Compose_Connection_References -->
<g id="node11" class="node">
<title>Compose_Connection_References</title>
<path fill="#add8e6" stroke="#000000" d="M1026.5,-419.6C1026.5,-419.6 843.5,-419.6 843.5,-419.6 837.5,-419.6 831.5,-413.6 831.5,-407.6 831.5,-407.6 831.5,-395.6 831.5,-395.6 831.5,-389.6 837.5,-383.6 843.5,-383.6 843.5,-383.6 1026.5,-383.6 1026.5,-383.6 1032.5,-383.6 1038.5,-389.6 1038.5,-395.6 1038.5,-395.6 1038.5,-407.6 1038.5,-407.6 1038.5,-413.6 1032.5,-419.6 1026.5,-419.6"/>
<text text-anchor="middle" x="935" y="-397.4" font-family="Times,serif" font-size="14.00" fill="#000000">Compose: Connection References</text>
</g>
<!-- Scope_Format_Definition_Node&#45;&gt;Compose_Connection_References -->
<g id="edge7" class="edge">
<title>Scope_Format_Definition_Node&#45;&gt;Compose_Connection_References</title>
<path fill="none" stroke="#000000" d="M957.6013,-478.7674C953.508,-464.7916 947.813,-445.3473 943.1639,-429.4739"/>
<polygon fill="#000000" stroke="#000000" points="946.4569,-428.2649 940.2872,-419.6518 939.7391,-430.2325 946.4569,-428.2649"/>
</g>
<!-- Compose_Flow_Definition_Text -->
<g id="node24" class="node">
<title>Compose_Flow_Definition_Text</title>
<path fill="#add8e6" stroke="#000000" d="M542.479,-419.6C542.479,-419.6 403.521,-419.6 403.521,-419.6 397.521,-419.6 391.521,-413.6 391.521,-407.6 391.521,-407.6 391.521,-395.6 391.521,-395.6 391.521,-389.6 397.521,-383.6 403.521,-383.6 403.521,-383.6 542.479,-383.6 542.479,-383.6 548.479,-383.6 554.479,-389.6 554.479,-395.6 554.479,-395.6 554.479,-407.6 554.479,-407.6 554.479,-413.6 548.479,-419.6 542.479,-419.6"/>
<text text-anchor="middle" x="473" y="-397.4" font-family="Times,serif" font-size="14.00" fill="#000000">Compose: Definition Text</text>
</g>
<!-- Scope_Format_Definition_Node&#45;&gt;Compose_Flow_Definition_Text -->
<g id="edge32" class="edge">
<title>Scope_Format_Definition_Node&#45;&gt;Compose_Flow_Definition_Text</title>
<path fill="none" stroke="#000000" d="M852.4968,-479.1968C832.7169,-476.289 812.2719,-473.4871 793,-471.2 694.6702,-459.5306 666.1263,-479.8939 571,-452.4 549.6785,-446.2375 527.5918,-435.2541 509.7959,-425.0728"/>
<polygon fill="#000000" stroke="#000000" points="511.3028,-421.8989 500.9076,-419.8516 507.7572,-427.9345 511.3028,-421.8989"/>
</g>
<!-- cluster_Scope_Format_Definition -->
<g id="node32" class="node">
<title>cluster_Scope_Format_Definition</title>
<path fill="#add8e6" stroke="#000000" d="M774.0112,-419.6C774.0112,-419.6 591.9888,-419.6 591.9888,-419.6 585.9888,-419.6 579.9888,-413.6 579.9888,-407.6 579.9888,-407.6 579.9888,-395.6 579.9888,-395.6 579.9888,-389.6 585.9888,-383.6 591.9888,-383.6 591.9888,-383.6 774.0112,-383.6 774.0112,-383.6 780.0112,-383.6 786.0112,-389.6 786.0112,-395.6 786.0112,-395.6 786.0112,-407.6 786.0112,-407.6 786.0112,-413.6 780.0112,-419.6 774.0112,-419.6"/>
<text text-anchor="middle" x="683" y="-397.4" font-family="Times,serif" font-size="14.00" fill="#000000">cluster_Scope_Format_Definition</text>
</g>
<!-- Scope_Format_Definition_Node&#45;&gt;cluster_Scope_Format_Definition -->
<g id="edge33" class="edge">
<title>Scope_Format_Definition_Node&#45;&gt;cluster_Scope_Format_Definition</title>
<path fill="none" stroke="#000000" stroke-dasharray="1,5" d="M880.1824,-479.1471C851.284,-471.959 818.8706,-462.8838 790,-452.4 768.4062,-444.5586 745.2818,-433.8865 726.0751,-424.3478"/>
<polygon fill="#000000" stroke="#000000" points="727.4911,-421.1422 716.985,-419.7735 724.3445,-427.3951 727.4911,-421.1422"/>
</g>
<!-- Respond_to_a_Power_App_or_flow -->
<g id="node7" class="node">
<title>Respond_to_a_Power_App_or_flow</title>
<path fill="#add8e6" stroke="#000000" d="M1019.698,-36C1019.698,-36 850.302,-36 850.302,-36 844.302,-36 838.302,-30 838.302,-24 838.302,-24 838.302,-12 838.302,-12 838.302,-6 844.302,0 850.302,0 850.302,0 1019.698,0 1019.698,0 1025.698,0 1031.698,-6 1031.698,-12 1031.698,-12 1031.698,-24 1031.698,-24 1031.698,-30 1025.698,-36 1019.698,-36"/>
<text text-anchor="middle" x="935" y="-13.8" font-family="Times,serif" font-size="14.00" fill="#000000">Respond to Power App or Flow</text>
</g>
<!-- Compose_Desktop_Flow_Info_Input -->
<g id="node8" class="node">
<title>Compose_Desktop_Flow_Info_Input</title>
<path fill="#add8e6" stroke="#000000" d="M1116.5856,-981.0156C1116.5856,-981.0156 925.4144,-981.0156 925.4144,-981.0156 919.4144,-981.0156 913.4144,-975.0156 913.4144,-969.0156 913.4144,-969.0156 913.4144,-957.0156 913.4144,-957.0156 913.4144,-951.0156 919.4144,-945.0156 925.4144,-945.0156 925.4144,-945.0156 1116.5856,-945.0156 1116.5856,-945.0156 1122.5856,-945.0156 1128.5856,-951.0156 1128.5856,-957.0156 1128.5856,-957.0156 1128.5856,-969.0156 1128.5856,-969.0156 1128.5856,-975.0156 1122.5856,-981.0156 1116.5856,-981.0156"/>
<text text-anchor="middle" x="1021" y="-958.8156" font-family="Times,serif" font-size="14.00" fill="#000000">Compose: Desktop Flow Info Input</text>
</g>
<!-- Compose_Flow_ID_List_Input -->
<g id="node9" class="node">
<title>Compose_Flow_ID_List_Input</title>
<path fill="#add8e6" stroke="#000000" d="M1099.6539,-897.6C1099.6539,-897.6 942.3461,-897.6 942.3461,-897.6 936.3461,-897.6 930.3461,-891.6 930.3461,-885.6 930.3461,-885.6 930.3461,-873.6 930.3461,-873.6 930.3461,-867.6 936.3461,-861.6 942.3461,-861.6 942.3461,-861.6 1099.6539,-861.6 1099.6539,-861.6 1105.6539,-861.6 1111.6539,-867.6 1111.6539,-873.6 1111.6539,-873.6 1111.6539,-885.6 1111.6539,-885.6 1111.6539,-891.6 1105.6539,-897.6 1099.6539,-897.6"/>
<text text-anchor="middle" x="1021" y="-875.4" font-family="Times,serif" font-size="14.00" fill="#000000">Compose: Flow ID List Input</text>
</g>
<!-- Compose_Desktop_Flow_Info_Input&#45;&gt;Compose_Flow_ID_List_Input -->
<g id="edge1" class="edge">
<title>Compose_Desktop_Flow_Info_Input&#45;&gt;Compose_Flow_ID_List_Input</title>
<path fill="none" stroke="#000000" d="M1021,-944.9157C1021,-934.0941 1021,-920.1108 1021,-907.8607"/>
<polygon fill="#000000" stroke="#000000" points="1024.5001,-907.6646 1021,-897.6646 1017.5001,-907.6647 1024.5001,-907.6646"/>
</g>
<!-- Parse_JSON_Desktop_Flow_Info -->
<g id="node10" class="node">
<title>Parse_JSON_Desktop_Flow_Info</title>
<path fill="#add8e6" stroke="#000000" d="M1107.4058,-825.6C1107.4058,-825.6 934.5942,-825.6 934.5942,-825.6 928.5942,-825.6 922.5942,-819.6 922.5942,-813.6 922.5942,-813.6 922.5942,-801.6 922.5942,-801.6 922.5942,-795.6 928.5942,-789.6 934.5942,-789.6 934.5942,-789.6 1107.4058,-789.6 1107.4058,-789.6 1113.4058,-789.6 1119.4058,-795.6 1119.4058,-801.6 1119.4058,-801.6 1119.4058,-813.6 1119.4058,-813.6 1119.4058,-819.6 1113.4058,-825.6 1107.4058,-825.6"/>
<text text-anchor="middle" x="1021" y="-803.4" font-family="Times,serif" font-size="14.00" fill="#000000">Parse JSON: Desktop Flow Info</text>
</g>
<!-- Compose_Flow_ID_List_Input&#45;&gt;Parse_JSON_Desktop_Flow_Info -->
<g id="edge2" class="edge">
<title>Compose_Flow_ID_List_Input&#45;&gt;Parse_JSON_Desktop_Flow_Info</title>
<path fill="none" stroke="#000000" d="M1021,-861.4314C1021,-853.731 1021,-844.5743 1021,-836.0166"/>
<polygon fill="#000000" stroke="#000000" points="1024.5001,-836.0132 1021,-826.0133 1017.5001,-836.0133 1024.5001,-836.0132"/>
</g>
<!-- Parse_JSON_Desktop_Flow_Info&#45;&gt;Scope_Format_Inputs_Node -->
<g id="edge3" class="edge">
<title>Parse_JSON_Desktop_Flow_Info&#45;&gt;Scope_Format_Inputs_Node</title>
<path fill="none" stroke="#000000" d="M1012.2315,-789.3995C1007.7158,-780.0263 1002.1186,-768.4084 997.1019,-757.9953"/>
<polygon fill="#000000" stroke="#000000" points="1000.199,-756.3598 992.7055,-748.8699 993.8927,-759.398 1000.199,-756.3598"/>
</g>
<!-- Compose_Format_Inputs -->
<g id="node16" class="node">
<title>Compose_Format_Inputs</title>
<path fill="#add8e6" stroke="#000000" d="M1333.7119,-748.8C1333.7119,-748.8 1202.2881,-748.8 1202.2881,-748.8 1196.2881,-748.8 1190.2881,-742.8 1190.2881,-736.8 1190.2881,-736.8 1190.2881,-724.8 1190.2881,-724.8 1190.2881,-718.8 1196.2881,-712.8 1202.2881,-712.8 1202.2881,-712.8 1333.7119,-712.8 1333.7119,-712.8 1339.7119,-712.8 1345.7119,-718.8 1345.7119,-724.8 1345.7119,-724.8 1345.7119,-736.8 1345.7119,-736.8 1345.7119,-742.8 1339.7119,-748.8 1333.7119,-748.8"/>
<text text-anchor="middle" x="1268" y="-726.6" font-family="Times,serif" font-size="14.00" fill="#000000">Compose: Format Inputs</text>
</g>
<!-- Parse_JSON_Desktop_Flow_Info&#45;&gt;Compose_Format_Inputs -->
<g id="edge23" class="edge">
<title>Parse_JSON_Desktop_Flow_Info&#45;&gt;Compose_Format_Inputs</title>
<path fill="none" stroke="#000000" d="M1119.4861,-796.71C1139.1858,-793.0277 1159.5003,-788.123 1178,-781.6 1197.1315,-774.8542 1216.9191,-764.1582 1233.0515,-754.317"/>
<polygon fill="#000000" stroke="#000000" points="1234.9852,-757.2358 1241.6106,-748.9681 1231.2755,-751.2997 1234.9852,-757.2358"/>
</g>
<!-- Compose_Flow_Name -->
<g id="node12" class="node">
<title>Compose_Flow_Name</title>
<path fill="#add8e6" stroke="#000000" d="M993.9832,-324C993.9832,-324 876.0168,-324 876.0168,-324 870.0168,-324 864.0168,-318 864.0168,-312 864.0168,-312 864.0168,-300 864.0168,-300 864.0168,-294 870.0168,-288 876.0168,-288 876.0168,-288 993.9832,-288 993.9832,-288 999.9832,-288 1005.9832,-294 1005.9832,-300 1005.9832,-300 1005.9832,-312 1005.9832,-312 1005.9832,-318 999.9832,-324 993.9832,-324"/>
<text text-anchor="middle" x="935" y="-301.8" font-family="Times,serif" font-size="14.00" fill="#000000">Compose: Flow Name</text>
</g>
<!-- Compose_Connection_References&#45;&gt;Compose_Flow_Name -->
<g id="edge8" class="edge">
<title>Compose_Connection_References&#45;&gt;Compose_Flow_Name</title>
<path fill="none" stroke="#000000" d="M935,-383.1674C935,-369.3247 935,-350.1172 935,-334.3284"/>
<polygon fill="#000000" stroke="#000000" points="938.5001,-334.0518 935,-324.0518 931.5001,-334.0519 938.5001,-334.0518"/>
</g>
<!-- Compose_Formatted_Desktop_Flow_Information -->
<g id="node13" class="node">
<title>Compose_Formatted_Desktop_Flow_Information</title>
<path fill="#add8e6" stroke="#000000" d="M1003.1428,-252C1003.1428,-252 866.8572,-252 866.8572,-252 860.8572,-252 854.8572,-246 854.8572,-240 854.8572,-240 854.8572,-228 854.8572,-228 854.8572,-222 860.8572,-216 866.8572,-216 866.8572,-216 1003.1428,-216 1003.1428,-216 1009.1428,-216 1015.1428,-222 1015.1428,-228 1015.1428,-228 1015.1428,-240 1015.1428,-240 1015.1428,-246 1009.1428,-252 1003.1428,-252"/>
<text text-anchor="middle" x="935" y="-229.8" font-family="Times,serif" font-size="14.00" fill="#000000">Compose: Formatted Info</text>
</g>
<!-- Compose_Flow_Name&#45;&gt;Compose_Formatted_Desktop_Flow_Information -->
<g id="edge9" class="edge">
<title>Compose_Flow_Name&#45;&gt;Compose_Formatted_Desktop_Flow_Information</title>
<path fill="none" stroke="#000000" d="M935,-287.8314C935,-280.131 935,-270.9743 935,-262.4166"/>
<polygon fill="#000000" stroke="#000000" points="938.5001,-262.4132 935,-252.4133 931.5001,-262.4133 938.5001,-262.4132"/>
</g>
<!-- Replace_Workflow_IDs_with_Flow_Names -->
<g id="node14" class="node">
<title>Replace_Workflow_IDs_with_Flow_Names</title>
<path fill="#add8e6" stroke="#000000" d="M1006.432,-180C1006.432,-180 863.568,-180 863.568,-180 857.568,-180 851.568,-174 851.568,-168 851.568,-168 851.568,-156 851.568,-156 851.568,-150 857.568,-144 863.568,-144 863.568,-144 1006.432,-144 1006.432,-144 1012.432,-144 1018.432,-150 1018.432,-156 1018.432,-156 1018.432,-168 1018.432,-168 1018.432,-174 1012.432,-180 1006.432,-180"/>
<text text-anchor="middle" x="935" y="-157.8" font-family="Times,serif" font-size="14.00" fill="#000000">Replace Text: Replace IDs</text>
</g>
<!-- Compose_Formatted_Desktop_Flow_Information&#45;&gt;Replace_Workflow_IDs_with_Flow_Names -->
<g id="edge10" class="edge">
<title>Compose_Formatted_Desktop_Flow_Information&#45;&gt;Replace_Workflow_IDs_with_Flow_Names</title>
<path fill="none" stroke="#000000" d="M935,-215.8314C935,-208.131 935,-198.9743 935,-190.4166"/>
<polygon fill="#000000" stroke="#000000" points="938.5001,-190.4132 935,-180.4133 931.5001,-190.4133 938.5001,-190.4132"/>
</g>
<!-- Compose_Extracted_Desktop_Flow_Information -->
<g id="node15" class="node">
<title>Compose_Extracted_Desktop_Flow_Information</title>
<path fill="#add8e6" stroke="#000000" d="M1001.2366,-108C1001.2366,-108 868.7634,-108 868.7634,-108 862.7634,-108 856.7634,-102 856.7634,-96 856.7634,-96 856.7634,-84 856.7634,-84 856.7634,-78 862.7634,-72 868.7634,-72 868.7634,-72 1001.2366,-72 1001.2366,-72 1007.2366,-72 1013.2366,-78 1013.2366,-84 1013.2366,-84 1013.2366,-96 1013.2366,-96 1013.2366,-102 1007.2366,-108 1001.2366,-108"/>
<text text-anchor="middle" x="935" y="-85.8" font-family="Times,serif" font-size="14.00" fill="#000000">Compose: Extracted Info</text>
</g>
<!-- Replace_Workflow_IDs_with_Flow_Names&#45;&gt;Compose_Extracted_Desktop_Flow_Information -->
<g id="edge11" class="edge">
<title>Replace_Workflow_IDs_with_Flow_Names&#45;&gt;Compose_Extracted_Desktop_Flow_Information</title>
<path fill="none" stroke="#000000" d="M935,-143.8314C935,-136.131 935,-126.9743 935,-118.4166"/>
<polygon fill="#000000" stroke="#000000" points="938.5001,-118.4132 935,-108.4133 931.5001,-118.4133 938.5001,-118.4132"/>
</g>
<!-- Compose_Extracted_Desktop_Flow_Information&#45;&gt;Respond_to_a_Power_App_or_flow -->
<g id="edge22" class="edge">
<title>Compose_Extracted_Desktop_Flow_Information&#45;&gt;Respond_to_a_Power_App_or_flow</title>
<path fill="none" stroke="#000000" d="M935,-71.8314C935,-64.131 935,-54.9743 935,-46.4166"/>
<polygon fill="#000000" stroke="#000000" points="938.5001,-46.4132 935,-36.4133 931.5001,-46.4133 938.5001,-46.4132"/>
</g>
<!-- Compose_Inputs_List -->
<g id="node17" class="node">
<title>Compose_Inputs_List</title>
<path fill="#add8e6" stroke="#000000" d="M1319.0519,-676.8C1319.0519,-676.8 1206.9481,-676.8 1206.9481,-676.8 1200.9481,-676.8 1194.9481,-670.8 1194.9481,-664.8 1194.9481,-664.8 1194.9481,-652.8 1194.9481,-652.8 1194.9481,-646.8 1200.9481,-640.8 1206.9481,-640.8 1206.9481,-640.8 1319.0519,-640.8 1319.0519,-640.8 1325.0519,-640.8 1331.0519,-646.8 1331.0519,-652.8 1331.0519,-652.8 1331.0519,-664.8 1331.0519,-664.8 1331.0519,-670.8 1325.0519,-676.8 1319.0519,-676.8"/>
<text text-anchor="middle" x="1263" y="-654.6" font-family="Times,serif" font-size="14.00" fill="#000000">Compose: Inputs List</text>
</g>
<!-- Compose_Format_Inputs&#45;&gt;Compose_Inputs_List -->
<g id="edge12" class="edge">
<title>Compose_Format_Inputs&#45;&gt;Compose_Inputs_List</title>
<path fill="none" stroke="#000000" d="M1266.7383,-712.6314C1266.2035,-704.931 1265.5677,-695.7743 1264.9734,-687.2166"/>
<polygon fill="#000000" stroke="#000000" points="1268.4632,-686.9467 1264.2787,-677.2133 1261.48,-687.4317 1268.4632,-686.9467"/>
</g>
<!-- Compose_Inputs_List&#45;&gt;Scope_Format_Dependencies_Node -->
<g id="edge25" class="edge">
<title>Compose_Inputs_List&#45;&gt;Scope_Format_Dependencies_Node</title>
<path fill="none" stroke="#000000" d="M1194.9273,-658.8C1176.2851,-658.8 1157.6428,-658.8 1139.0006,-658.8"/>
<polygon fill="#000000" stroke="#000000" points="1138.9493,-655.3001 1128.9492,-658.8 1138.9492,-662.3001 1138.9493,-655.3001"/>
</g>
<!-- Compose_Desktop_Dependencies_List -->
<g id="node19" class="node">
<title>Compose_Desktop_Dependencies_List</title>
<path fill="#add8e6" stroke="#000000" d="M1408.2267,-515.2C1408.2267,-515.2 1201.7733,-515.2 1201.7733,-515.2 1195.7733,-515.2 1189.7733,-509.2 1189.7733,-503.2 1189.7733,-503.2 1189.7733,-491.2 1189.7733,-491.2 1189.7733,-485.2 1195.7733,-479.2 1201.7733,-479.2 1201.7733,-479.2 1408.2267,-479.2 1408.2267,-479.2 1414.2267,-479.2 1420.2267,-485.2 1420.2267,-491.2 1420.2267,-491.2 1420.2267,-503.2 1420.2267,-503.2 1420.2267,-509.2 1414.2267,-515.2 1408.2267,-515.2"/>
<text text-anchor="middle" x="1305" y="-493" font-family="Times,serif" font-size="14.00" fill="#000000">Compose: Desktop Dependencies List</text>
</g>
<!-- Compose_Dependencies_JSON&#45;&gt;Compose_Desktop_Dependencies_List -->
<g id="edge13" class="edge">
<title>Compose_Dependencies_JSON&#45;&gt;Compose_Desktop_Dependencies_List</title>
<path fill="none" stroke="#000000" d="M1297.3699,-555.7995C1298.553,-546.7132 1300.0107,-535.5176 1301.334,-525.3549"/>
<polygon fill="#000000" stroke="#000000" points="1304.8266,-525.6381 1302.6472,-515.2699 1297.8852,-524.7342 1304.8266,-525.6381"/>
</g>
<!-- Compose_Desktop_Dependencies_List&#45;&gt;Scope_Format_Outputs_Node -->
<g id="edge28" class="edge">
<title>Compose_Desktop_Dependencies_List&#45;&gt;Scope_Format_Outputs_Node</title>
<path fill="none" stroke="#000000" d="M1267.2432,-515.3181C1242.4287,-526.4641 1208.9435,-540.0848 1178,-548 1146.1447,-556.1484 1110.9634,-561.7638 1078.4459,-565.6259"/>
<polygon fill="#000000" stroke="#000000" points="1077.9842,-562.1558 1068.4464,-566.7691 1078.7793,-569.1105 1077.9842,-562.1558"/>
</g>
<!-- Condition_Check_for_Output_Schema -->
<g id="node21" class="node">
<title>Condition_Check_for_Output_Schema</title>
<path fill="#add8e6" stroke="#000000" d="M166.3807,-440.3016C166.3807,-440.3016 28.0354,-404.5986 28.0354,-404.5986 22.2258,-403.0993 22.2258,-400.1007 28.0354,-398.6014 28.0354,-398.6014 166.3807,-362.8984 166.3807,-362.8984 172.1903,-361.3991 183.8097,-361.3991 189.6193,-362.8984 189.6193,-362.8984 327.9646,-398.6014 327.9646,-398.6014 333.7742,-400.1007 333.7742,-403.0993 327.9646,-404.5986 327.9646,-404.5986 189.6193,-440.3016 189.6193,-440.3016 183.8097,-441.8009 172.1903,-441.8009 166.3807,-440.3016"/>
<text text-anchor="middle" x="178" y="-405.8" font-family="Times,serif" font-size="14.00" fill="#000000">Condition:</text>
<text text-anchor="middle" x="178" y="-389" font-family="Times,serif" font-size="14.00" fill="#000000">Check for Output Schema</text>
</g>
<!-- Compose_Output_JSON&#45;&gt;Condition_Check_for_Output_Schema -->
<g id="edge14" class="edge">
<title>Compose_Output_JSON&#45;&gt;Condition_Check_for_Output_Schema</title>
<path fill="none" stroke="#000000" d="M212.7092,-478.7674C208.783,-470.0386 203.8974,-459.1766 199.0429,-448.3837"/>
<polygon fill="#000000" stroke="#000000" points="202.1038,-446.6564 194.8097,-438.9722 195.7198,-449.5279 202.1038,-446.6564"/>
</g>
<!-- Condition_Check_for_Output_Schema&#45;&gt;Scope_Format_Definition_Node -->
<g id="edge31" class="edge">
<title>Condition_Check_for_Output_Schema&#45;&gt;Scope_Format_Definition_Node</title>
<path fill="none" stroke="#000000" d="M246.5432,-425.766C278.2259,-435.8546 316.6023,-446.5665 352,-452.4 545.5671,-484.2998 597.7477,-452.1645 793,-471.2 810.5511,-472.9111 829.0525,-475.2166 847.1315,-477.7511"/>
<polygon fill="#000000" stroke="#000000" points="846.7284,-481.229 857.1233,-479.1804 847.7197,-474.2995 846.7284,-481.229"/>
</g>
<!-- Extract_Output_Keys -->
<g id="node22" class="node">
<title>Extract_Output_Keys</title>
<path fill="#add8e6" stroke="#000000" d="M244.342,-324C244.342,-324 111.658,-324 111.658,-324 105.658,-324 99.658,-318 99.658,-312 99.658,-312 99.658,-300 99.658,-300 99.658,-294 105.658,-288 111.658,-288 111.658,-288 244.342,-288 244.342,-288 250.342,-288 256.342,-294 256.342,-300 256.342,-300 256.342,-312 256.342,-312 256.342,-318 250.342,-324 244.342,-324"/>
<text text-anchor="middle" x="178" y="-301.8" font-family="Times,serif" font-size="14.00" fill="#000000">Extract Keys from JSON</text>
</g>
<!-- Condition_Check_for_Output_Schema&#45;&gt;Extract_Output_Keys -->
<g id="edge15" class="edge">
<title>Condition_Check_for_Output_Schema&#45;&gt;Extract_Output_Keys</title>
<path fill="none" stroke="#000000" d="M178,-359.9466C178,-351.3675 178,-342.5199 178,-334.5339"/>
<polygon fill="#000000" stroke="#000000" points="181.5001,-334.2842 178,-324.2842 174.5001,-334.2843 181.5001,-334.2842"/>
</g>
<!-- Compose_Output_list -->
<g id="node23" class="node">
<title>Compose_Output_list</title>
<path fill="#add8e6" stroke="#000000" d="M236.4439,-252C236.4439,-252 119.5561,-252 119.5561,-252 113.5561,-252 107.5561,-246 107.5561,-240 107.5561,-240 107.5561,-228 107.5561,-228 107.5561,-222 113.5561,-216 119.5561,-216 119.5561,-216 236.4439,-216 236.4439,-216 242.4439,-216 248.4439,-222 248.4439,-228 248.4439,-228 248.4439,-240 248.4439,-240 248.4439,-246 242.4439,-252 236.4439,-252"/>
<text text-anchor="middle" x="178" y="-229.8" font-family="Times,serif" font-size="14.00" fill="#000000">Compose: Output List</text>
</g>
<!-- Extract_Output_Keys&#45;&gt;Compose_Output_list -->
<g id="edge16" class="edge">
<title>Extract_Output_Keys&#45;&gt;Compose_Output_list</title>
<path fill="none" stroke="#000000" d="M178,-287.8314C178,-280.131 178,-270.9743 178,-262.4166"/>
<polygon fill="#000000" stroke="#000000" points="181.5001,-262.4132 178,-252.4133 174.5001,-262.4133 181.5001,-262.4132"/>
</g>
<!-- Compose_Definition_Replacement_JSON -->
<g id="node25" class="node">
<title>Compose_Definition_Replacement_JSON</title>
<path fill="#add8e6" stroke="#000000" d="M548.299,-324C548.299,-324 385.701,-324 385.701,-324 379.701,-324 373.701,-318 373.701,-312 373.701,-312 373.701,-300 373.701,-300 373.701,-294 379.701,-288 385.701,-288 385.701,-288 548.299,-288 548.299,-288 554.299,-288 560.299,-294 560.299,-300 560.299,-300 560.299,-312 560.299,-312 560.299,-318 554.299,-324 548.299,-324"/>
<text text-anchor="middle" x="467" y="-301.8" font-family="Times,serif" font-size="14.00" fill="#000000">Compose: Replacement JSON</text>
</g>
<!-- Compose_Flow_Definition_Text&#45;&gt;Compose_Definition_Replacement_JSON -->
<g id="edge17" class="edge">
<title>Compose_Flow_Definition_Text&#45;&gt;Compose_Definition_Replacement_JSON</title>
<path fill="none" stroke="#000000" d="M471.8431,-383.1674C470.9744,-369.3247 469.7689,-350.1172 468.7779,-334.3284"/>
<polygon fill="#000000" stroke="#000000" points="472.2526,-333.8129 468.133,-324.0518 465.2663,-334.2515 472.2526,-333.8129"/>
</g>
<!-- Replace_Format_Flow_Definition_Text -->
<g id="node26" class="node">
<title>Replace_Format_Flow_Definition_Text</title>
<path fill="#add8e6" stroke="#000000" d="M551.6172,-252C551.6172,-252 376.3828,-252 376.3828,-252 370.3828,-252 364.3828,-246 364.3828,-240 364.3828,-240 364.3828,-228 364.3828,-228 364.3828,-222 370.3828,-216 376.3828,-216 376.3828,-216 551.6172,-216 551.6172,-216 557.6172,-216 563.6172,-222 563.6172,-228 563.6172,-228 563.6172,-240 563.6172,-240 563.6172,-246 557.6172,-252 551.6172,-252"/>
<text text-anchor="middle" x="464" y="-229.8" font-family="Times,serif" font-size="14.00" fill="#000000">Replace Text: Format Definition</text>
</g>
<!-- Compose_Definition_Replacement_JSON&#45;&gt;Replace_Format_Flow_Definition_Text -->
<g id="edge18" class="edge">
<title>Compose_Definition_Replacement_JSON&#45;&gt;Replace_Format_Flow_Definition_Text</title>
<path fill="none" stroke="#000000" d="M466.243,-287.8314C465.9221,-280.131 465.5406,-270.9743 465.184,-262.4166"/>
<polygon fill="#000000" stroke="#000000" points="468.6806,-262.2589 464.7672,-252.4133 461.6867,-262.5503 468.6806,-262.2589"/>
</g>
<!-- Compose_Formatted_Definition_Text -->
<g id="node27" class="node">
<title>Compose_Formatted_Definition_Text</title>
<path fill="#add8e6" stroke="#000000" d="M550.3654,-180C550.3654,-180 379.6346,-180 379.6346,-180 373.6346,-180 367.6346,-174 367.6346,-168 367.6346,-168 367.6346,-156 367.6346,-156 367.6346,-150 373.6346,-144 379.6346,-144 379.6346,-144 550.3654,-144 550.3654,-144 556.3654,-144 562.3654,-150 562.3654,-156 562.3654,-156 562.3654,-168 562.3654,-168 562.3654,-174 556.3654,-180 550.3654,-180"/>
<text text-anchor="middle" x="465" y="-157.8" font-family="Times,serif" font-size="14.00" fill="#000000">Compose: Formatted Definition</text>
</g>
<!-- Replace_Format_Flow_Definition_Text&#45;&gt;Compose_Formatted_Definition_Text -->
<g id="edge19" class="edge">
<title>Replace_Format_Flow_Definition_Text&#45;&gt;Compose_Formatted_Definition_Text</title>
<path fill="none" stroke="#000000" d="M464.2523,-215.8314C464.3593,-208.131 464.4865,-198.9743 464.6053,-190.4166"/>
<polygon fill="#000000" stroke="#000000" points="468.1049,-190.4609 464.7443,-180.4133 461.1056,-190.3637 468.1049,-190.4609"/>
</g>
<!-- Compose_Formatted_Definition_Text&#45;&gt;Compose_Connection_References -->
<g id="edge34" class="edge">
<title>Compose_Formatted_Definition_Text&#45;&gt;Compose_Connection_References</title>
<path fill="none" stroke="#000000" d="M509.7967,-180.0364C529.3786,-188.1878 552.5079,-198.1799 573,-208 692.086,-265.0674 828.4214,-340.9435 894.6547,-378.5076"/>
<polygon fill="#000000" stroke="#000000" points="893.1025,-381.6511 903.5261,-383.5478 896.5604,-375.5648 893.1025,-381.6511"/>
</g>
</g>
</svg>
